M48
; DRILL file {KiCad (5.1.10)-1} date 09/07/21 10:06:41
; FORMAT={-:-/ absolute / metric / decimal}
; #@! TF.CreationDate,2021-09-07T10:06:41+02:00
; #@! TF.GenerationSoftware,Kicad,Pcbnew,(5.1.10)-1
; #@! TF.FileFunction,Plated,1,2,PTH
FMAT,2
METRIC
T1C0.200
T2C0.750
T3C1.100
T4C3.200
%
G90
G05
T1
X272.034Y-110.998
X272.034Y-111.506
X272.034Y-113.03
X272.034Y-113.538
X272.034Y-116.84
X272.034Y-117.348
X272.034Y-118.872
X272.034Y-119.38
X272.034Y-122.682
X272.034Y-123.19
X272.034Y-124.714
X272.034Y-125.222
X272.034Y-128.524
X272.034Y-129.032
X272.034Y-130.556
X272.034Y-131.064
X272.034Y-134.366
X272.034Y-134.366
X272.034Y-134.874
X272.034Y-134.874
X272.034Y-136.398
X272.034Y-136.906
X272.034Y-140.208
X272.034Y-140.716
X272.034Y-142.24
X272.034Y-142.748
X272.034Y-146.05
X272.034Y-146.558
X272.034Y-148.082
X272.034Y-148.59
X272.034Y-151.892
X272.034Y-152.4
X272.034Y-153.924
X272.034Y-154.432
X272.034Y-157.734
X272.034Y-158.242
X272.034Y-159.766
X272.034Y-160.274
X272.034Y-163.576
X272.034Y-164.084
X272.034Y-165.608
X272.034Y-166.116
X272.286Y-112.27
X272.286Y-118.112
X272.286Y-123.954
X272.286Y-129.796
X272.286Y-135.638
X272.286Y-141.48
X272.286Y-147.322
X272.286Y-153.164
X272.286Y-159.006
X272.286Y-164.848
X272.542Y-110.998
X272.542Y-111.506
X272.542Y-113.03
X272.542Y-113.538
X272.542Y-116.84
X272.542Y-117.348
X272.542Y-118.872
X272.542Y-119.38
X272.542Y-122.682
X272.542Y-123.19
X272.542Y-124.714
X272.542Y-125.222
X272.542Y-128.524
X272.542Y-129.032
X272.542Y-130.556
X272.542Y-131.064
X272.542Y-134.366
X272.542Y-134.366
X272.542Y-134.874
X272.542Y-134.874
X272.542Y-136.398
X272.542Y-136.906
X272.542Y-140.208
X272.542Y-140.716
X272.542Y-142.24
X272.542Y-142.748
X272.542Y-146.05
X272.542Y-146.558
X272.542Y-148.082
X272.542Y-148.59
X272.542Y-151.892
X272.542Y-152.4
X272.542Y-153.924
X272.542Y-154.432
X272.542Y-157.734
X272.542Y-158.242
X272.542Y-159.766
X272.542Y-160.274
X272.542Y-163.576
X272.542Y-164.084
X272.542Y-165.608
X272.542Y-166.116
X286.258Y-110.998
X286.258Y-111.506
X286.258Y-113.03
X286.258Y-113.538
X286.258Y-116.84
X286.258Y-117.348
X286.258Y-118.872
X286.258Y-119.38
X286.258Y-122.682
X286.258Y-123.19
X286.258Y-124.714
X286.258Y-125.222
X286.258Y-128.524
X286.258Y-129.032
X286.258Y-130.556
X286.258Y-131.064
X286.258Y-134.366
X286.258Y-134.874
X286.258Y-136.398
X286.258Y-136.906
X286.258Y-140.208
X286.258Y-140.716
X286.258Y-142.24
X286.258Y-142.748
X286.258Y-146.05
X286.258Y-146.558
X286.258Y-148.082
X286.258Y-148.59
X286.258Y-151.892
X286.258Y-152.4
X286.258Y-153.924
X286.258Y-154.432
X286.258Y-157.734
X286.258Y-158.242
X286.258Y-159.766
X286.258Y-160.274
X286.258Y-163.576
X286.258Y-164.084
X286.258Y-165.608
X286.258Y-166.116
X286.514Y-112.268
X286.514Y-118.11
X286.514Y-123.952
X286.514Y-129.794
X286.514Y-135.636
X286.514Y-141.478
X286.514Y-147.32
X286.514Y-153.162
X286.514Y-159.004
X286.514Y-164.846
X286.766Y-110.998
X286.766Y-111.506
X286.766Y-113.03
X286.766Y-113.538
X286.766Y-116.84
X286.766Y-117.348
X286.766Y-118.872
X286.766Y-119.38
X286.766Y-122.682
X286.766Y-123.19
X286.766Y-124.714
X286.766Y-125.222
X286.766Y-128.524
X286.766Y-129.032
X286.766Y-130.556
X286.766Y-131.064
X286.766Y-134.366
X286.766Y-134.874
X286.766Y-136.398
X286.766Y-136.906
X286.766Y-140.208
X286.766Y-140.716
X286.766Y-142.24
X286.766Y-142.748
X286.766Y-146.05
X286.766Y-146.558
X286.766Y-148.082
X286.766Y-148.59
X286.766Y-151.892
X286.766Y-152.4
X286.766Y-153.924
X286.766Y-154.432
X286.766Y-157.734
X286.766Y-158.242
X286.766Y-159.766
X286.766Y-160.274
X286.766Y-163.576
X286.766Y-164.084
X286.766Y-165.608
X286.766Y-166.116
X289.494Y-128.082
X289.494Y-151.45
X289.494Y-157.292
X289.56Y-114.046
X289.56Y-114.554
X289.748Y-163.134
X289.773Y-121.707
X289.773Y-133.391
X289.773Y-139.233
X289.814Y-120.142
X289.814Y-125.984
X289.814Y-131.826
X289.814Y-137.668
X289.814Y-143.51
X289.814Y-149.352
X289.814Y-155.194
X289.814Y-161.036
X289.814Y-166.878
X289.9Y-145.202
X290.068Y-114.046
X290.068Y-114.554
X290.068Y-116.078
X290.068Y-122.19
X290.068Y-122.682
X290.076Y-128.024
X290.281Y-133.899
X290.281Y-139.741
X290.281Y-145.583
X290.306Y-112.456
X290.306Y-118.298
X290.306Y-124.14
X290.306Y-129.982
X290.306Y-135.824
X290.306Y-141.666
X290.306Y-147.508
X290.306Y-151.45
X290.306Y-153.35
X290.306Y-157.292
X290.306Y-159.192
X290.306Y-163.134
X290.306Y-165.034
X290.576Y-116.586
X295.91Y-111.522
X295.91Y-111.522
X295.91Y-112.014
X295.91Y-117.364
X295.91Y-117.364
X295.91Y-117.856
X295.91Y-123.206
X295.91Y-123.206
X295.91Y-123.698
X295.91Y-129.048
X295.91Y-129.048
X295.91Y-129.54
X295.91Y-134.89
X295.91Y-134.89
X295.91Y-135.382
X295.91Y-140.732
X295.91Y-140.732
X295.91Y-141.224
X295.91Y-146.574
X295.91Y-146.574
X295.91Y-147.066
X295.91Y-152.416
X295.91Y-152.416
X295.91Y-152.908
X295.91Y-158.258
X295.91Y-158.258
X295.91Y-158.75
X295.91Y-164.1
X295.91Y-164.1
X295.91Y-164.592
X312.862Y-113.472
X317.5Y-151.384
X317.754Y-123.19
X318.262Y-118.364
X318.262Y-122.174
X318.484Y-149.606
X318.484Y-153.67
X318.516Y-120.904
X319.024Y-123.698
X319.278Y-147.574
X321.31Y-158.242
X322.326Y-158.75
X323.088Y-125.984
X323.088Y-128.778
X323.342Y-118.364
X323.342Y-119.634
X323.342Y-120.904
X323.342Y-122.174
X327.66Y-122.174
X328.168Y-122.174
X328.168Y-132.588
X328.422Y-135.636
X328.676Y-122.174
X328.676Y-145.542
X329.184Y-122.174
X329.692Y-146.304
X331.724Y-132.334
X331.724Y-134.112
X332.232Y-151.13
X332.486Y-155.194
X332.486Y-156.972
X332.486Y-158.75
X333.248Y-135.89
X333.502Y-132.842
X334.518Y-122.682
X334.518Y-155.194
X334.518Y-158.75
X334.772Y-156.718
X336.042Y-128.778
X336.042Y-129.286
X339.028Y-137.73
X339.598Y-142.24
X339.598Y-144.78
X339.598Y-154.686
X339.598Y-156.21
X340.106Y-138.938
X340.106Y-140.716
X341.122Y-118.618
X341.63Y-153.67
X341.646Y-152.162
X341.884Y-128.778
X343.154Y-118.364
X343.154Y-127.762
X343.535Y-128.143
X344.678Y-154.178
X345.44Y-126.746
X345.44Y-128.778
X346.202Y-148.336
X346.583Y-148.717
X346.964Y-149.098
X346.964Y-154.178
X347.472Y-119.126
X347.472Y-120.904
X350.52Y-129.54
X350.52Y-130.048
X350.52Y-130.556
X350.52Y-131.064
X350.52Y-131.572
X350.52Y-132.08
X350.52Y-132.588
X350.52Y-133.096
X350.52Y-133.604
X350.52Y-134.112
X350.52Y-134.62
X350.52Y-135.128
X350.52Y-135.636
X350.52Y-136.144
X350.52Y-136.652
X350.52Y-137.16
X350.52Y-137.668
X350.52Y-138.176
X350.52Y-138.684
X350.52Y-139.954
X350.52Y-140.462
X350.52Y-140.97
X350.52Y-141.478
X350.52Y-141.986
X350.52Y-142.494
X350.52Y-143.002
X350.52Y-143.51
X350.52Y-144.018
X350.52Y-144.526
X350.52Y-145.034
X350.52Y-145.542
X350.52Y-146.05
X350.52Y-146.558
X350.52Y-147.066
X350.52Y-147.574
X350.52Y-148.082
X350.52Y-148.59
X350.52Y-149.098
X351.028Y-129.54
X351.028Y-130.048
X351.028Y-130.556
X351.028Y-131.064
X351.028Y-131.572
X351.028Y-132.08
X351.028Y-132.588
X351.028Y-133.096
X351.028Y-133.604
X351.028Y-134.112
X351.028Y-134.62
X351.028Y-135.128
X351.028Y-135.636
X351.028Y-136.144
X351.028Y-136.652
X351.028Y-137.16
X351.028Y-137.668
X351.028Y-138.176
X351.028Y-138.684
X351.028Y-139.954
X351.028Y-140.462
X351.028Y-140.97
X351.028Y-141.478
X351.028Y-141.986
X351.028Y-142.494
X351.028Y-143.002
X351.028Y-143.51
X351.028Y-144.018
X351.028Y-144.526
X351.028Y-145.034
X351.028Y-145.542
X351.028Y-146.05
X351.028Y-146.558
X351.028Y-147.066
X351.028Y-147.574
X351.028Y-148.082
X351.028Y-148.59
X351.028Y-149.098
X351.536Y-129.54
X351.536Y-130.048
X351.536Y-130.556
X351.536Y-131.064
X351.536Y-131.572
X351.536Y-132.08
X351.536Y-132.588
X351.536Y-133.096
X351.536Y-133.604
X351.536Y-134.112
X351.536Y-134.62
X351.536Y-135.128
X351.536Y-135.636
X351.536Y-136.144
X351.536Y-136.652
X351.536Y-137.16
X351.536Y-137.668
X351.536Y-138.176
X351.536Y-138.684
X351.536Y-139.954
X351.536Y-140.462
X351.536Y-140.97
X351.536Y-141.478
X351.536Y-141.986
X351.536Y-142.494
X351.536Y-143.002
X351.536Y-143.51
X351.536Y-144.018
X351.536Y-144.526
X351.536Y-145.034
X351.536Y-145.542
X351.536Y-146.05
X351.536Y-146.558
X351.536Y-147.066
X351.536Y-147.574
X351.536Y-148.082
X351.536Y-148.59
X351.536Y-149.098
X352.044Y-129.54
X352.044Y-130.048
X352.044Y-130.556
X352.044Y-131.064
X352.044Y-131.572
X352.044Y-132.08
X352.044Y-132.588
X352.044Y-133.096
X352.044Y-133.604
X352.044Y-134.112
X352.044Y-134.62
X352.044Y-135.128
X352.044Y-135.636
X352.044Y-136.144
X352.044Y-136.652
X352.044Y-137.16
X352.044Y-137.668
X352.044Y-138.176
X352.044Y-138.684
X352.044Y-139.954
X352.044Y-140.462
X352.044Y-140.97
X352.044Y-141.478
X352.044Y-141.986
X352.044Y-142.494
X352.044Y-143.002
X352.044Y-143.51
X352.044Y-144.018
X352.044Y-144.526
X352.044Y-145.034
X352.044Y-145.542
X352.044Y-146.05
X352.044Y-146.558
X352.044Y-147.066
X352.044Y-147.574
X352.044Y-148.082
X352.044Y-148.59
X352.044Y-149.098
X352.552Y-129.54
X352.552Y-130.048
X352.552Y-130.556
X352.552Y-131.064
X352.552Y-131.572
X352.552Y-132.08
X352.552Y-132.588
X352.552Y-133.096
X352.552Y-133.604
X352.552Y-134.112
X352.552Y-134.62
X352.552Y-135.128
X352.552Y-135.636
X352.552Y-136.144
X352.552Y-136.652
X352.552Y-137.16
X352.552Y-137.668
X352.552Y-138.176
X352.552Y-138.684
X352.552Y-139.954
X352.552Y-140.462
X352.552Y-140.97
X352.552Y-141.478
X352.552Y-141.986
X352.552Y-142.494
X352.552Y-143.002
X352.552Y-143.51
X352.552Y-144.018
X352.552Y-144.526
X352.552Y-145.034
X352.552Y-145.542
X352.552Y-146.05
X352.552Y-146.558
X352.552Y-147.066
X352.552Y-147.574
X352.552Y-148.082
X352.552Y-148.59
X352.552Y-149.098
X353.06Y-129.54
X353.06Y-130.048
X353.06Y-130.556
X353.06Y-131.064
X353.06Y-131.572
X353.06Y-132.08
X353.06Y-132.588
X353.06Y-133.096
X353.06Y-133.604
X353.06Y-134.112
X353.06Y-134.62
X353.06Y-135.128
X353.06Y-135.636
X353.06Y-136.144
X353.06Y-136.652
X353.06Y-137.16
X353.06Y-137.668
X353.06Y-138.176
X353.06Y-138.684
X353.06Y-139.954
X353.06Y-140.462
X353.06Y-140.97
X353.06Y-141.478
X353.06Y-141.986
X353.06Y-142.494
X353.06Y-143.002
X353.06Y-143.51
X353.06Y-144.018
X353.06Y-144.526
X353.06Y-145.034
X353.06Y-145.542
X353.06Y-146.05
X353.06Y-146.558
X353.06Y-147.066
X353.06Y-147.574
X353.06Y-148.082
X353.06Y-148.59
X353.06Y-149.098
X353.06Y-154.94
X353.568Y-129.54
X353.568Y-130.048
X353.568Y-130.556
X353.568Y-131.064
X353.568Y-131.572
X353.568Y-132.08
X353.568Y-132.588
X353.568Y-133.096
X353.568Y-133.604
X353.568Y-134.112
X353.568Y-134.62
X353.568Y-135.128
X353.568Y-135.636
X353.568Y-136.144
X353.568Y-136.652
X353.568Y-137.16
X353.568Y-137.668
X353.568Y-138.176
X353.568Y-138.684
X353.568Y-139.954
X353.568Y-140.462
X353.568Y-140.97
X353.568Y-141.478
X353.568Y-141.986
X353.568Y-142.494
X353.568Y-143.002
X353.568Y-143.51
X353.568Y-144.018
X353.568Y-144.526
X353.568Y-145.034
X353.568Y-145.542
X353.568Y-146.05
X353.568Y-146.558
X353.568Y-147.066
X353.568Y-147.574
X353.568Y-148.082
X353.568Y-148.59
X353.568Y-149.098
X354.076Y-129.54
X354.076Y-130.048
X354.076Y-130.556
X354.076Y-131.064
X354.076Y-131.572
X354.076Y-132.08
X354.076Y-132.588
X354.076Y-133.096
X354.076Y-133.604
X354.076Y-134.112
X354.076Y-134.62
X354.076Y-135.128
X354.076Y-135.636
X354.076Y-136.144
X354.076Y-136.652
X354.076Y-137.16
X354.076Y-137.668
X354.076Y-138.176
X354.076Y-138.684
X354.076Y-139.954
X354.076Y-140.462
X354.076Y-140.97
X354.076Y-141.478
X354.076Y-141.986
X354.076Y-142.494
X354.076Y-143.002
X354.076Y-143.51
X354.076Y-144.018
X354.076Y-144.526
X354.076Y-145.034
X354.076Y-145.542
X354.076Y-146.05
X354.076Y-146.558
X354.076Y-147.066
X354.076Y-147.574
X354.076Y-148.082
X354.076Y-148.59
X354.076Y-149.098
X354.584Y-129.54
X354.584Y-130.048
X354.584Y-130.556
X354.584Y-131.064
X354.584Y-131.572
X354.584Y-132.08
X354.584Y-132.588
X354.584Y-133.096
X354.584Y-133.604
X354.584Y-134.112
X354.584Y-134.62
X354.584Y-135.128
X354.584Y-135.636
X354.584Y-136.144
X354.584Y-136.652
X354.584Y-137.16
X354.584Y-137.668
X354.584Y-138.176
X354.584Y-138.684
X354.584Y-139.954
X354.584Y-140.462
X354.584Y-140.97
X354.584Y-141.478
X354.584Y-141.986
X354.584Y-142.494
X354.584Y-143.002
X354.584Y-143.51
X354.584Y-144.018
X354.584Y-144.526
X354.584Y-145.034
X354.584Y-145.542
X354.584Y-146.05
X354.584Y-146.558
X354.584Y-147.066
X354.584Y-147.574
X354.584Y-148.082
X354.584Y-148.59
X354.584Y-149.098
X355.092Y-129.54
X355.092Y-130.048
X355.092Y-130.556
X355.092Y-131.064
X355.092Y-131.572
X355.092Y-132.08
X355.092Y-132.588
X355.092Y-133.096
X355.092Y-133.604
X355.092Y-134.112
X355.092Y-134.62
X355.092Y-135.128
X355.092Y-135.636
X355.092Y-136.144
X355.092Y-136.652
X355.092Y-137.16
X355.092Y-137.668
X355.092Y-138.176
X355.092Y-138.684
X355.092Y-139.954
X355.092Y-140.462
X355.092Y-140.97
X355.092Y-141.478
X355.092Y-141.986
X355.092Y-142.494
X355.092Y-143.002
X355.092Y-143.51
X355.092Y-144.018
X355.092Y-144.526
X355.092Y-145.034
X355.092Y-145.542
X355.092Y-146.05
X355.092Y-146.558
X355.092Y-147.066
X355.092Y-147.574
X355.092Y-148.082
X355.092Y-148.59
X355.092Y-149.098
X355.6Y-129.54
X355.6Y-130.048
X355.6Y-130.556
X355.6Y-131.064
X355.6Y-131.572
X355.6Y-132.08
X355.6Y-132.588
X355.6Y-133.096
X355.6Y-133.604
X355.6Y-134.112
X355.6Y-134.62
X355.6Y-135.128
X355.6Y-135.636
X355.6Y-136.144
X355.6Y-136.652
X355.6Y-137.16
X355.6Y-137.668
X355.6Y-138.176
X355.6Y-138.684
X355.6Y-139.954
X355.6Y-140.462
X355.6Y-140.97
X355.6Y-141.478
X355.6Y-141.986
X355.6Y-142.494
X355.6Y-143.002
X355.6Y-143.51
X355.6Y-144.018
X355.6Y-144.526
X355.6Y-145.034
X355.6Y-145.542
X355.6Y-146.05
X355.6Y-146.558
X355.6Y-147.066
X355.6Y-147.574
X355.6Y-148.082
X355.6Y-148.59
X355.6Y-149.098
X356.108Y-129.54
X356.108Y-130.048
X356.108Y-130.556
X356.108Y-131.064
X356.108Y-131.572
X356.108Y-132.08
X356.108Y-132.588
X356.108Y-133.096
X356.108Y-133.604
X356.108Y-134.112
X356.108Y-134.62
X356.108Y-135.128
X356.108Y-135.636
X356.108Y-136.144
X356.108Y-136.652
X356.108Y-137.16
X356.108Y-137.668
X356.108Y-138.176
X356.108Y-138.684
X356.108Y-139.954
X356.108Y-140.462
X356.108Y-140.97
X356.108Y-141.478
X356.108Y-141.986
X356.108Y-142.494
X356.108Y-143.002
X356.108Y-143.51
X356.108Y-144.018
X356.108Y-144.526
X356.108Y-145.034
X356.108Y-145.542
X356.108Y-146.05
X356.108Y-146.558
X356.108Y-147.066
X356.108Y-147.574
X356.108Y-148.082
X356.108Y-148.59
X356.108Y-149.098
X356.616Y-129.54
X356.616Y-130.048
X356.616Y-130.556
X356.616Y-131.064
X356.616Y-131.572
X356.616Y-132.08
X356.616Y-132.588
X356.616Y-133.096
X356.616Y-133.604
X356.616Y-134.112
X356.616Y-134.62
X356.616Y-135.128
X356.616Y-135.636
X356.616Y-136.144
X356.616Y-136.652
X356.616Y-137.16
X356.616Y-137.668
X356.616Y-138.176
X356.616Y-138.684
X356.616Y-139.954
X356.616Y-140.462
X356.616Y-140.97
X356.616Y-141.478
X356.616Y-141.986
X356.616Y-142.494
X356.616Y-143.002
X356.616Y-143.51
X356.616Y-144.018
X356.616Y-144.526
X356.616Y-145.034
X356.616Y-145.542
X356.616Y-146.05
X356.616Y-146.558
X356.616Y-147.066
X356.616Y-147.574
X356.616Y-148.082
X356.616Y-148.59
X356.616Y-149.098
X357.124Y-129.54
X357.124Y-130.048
X357.124Y-130.556
X357.124Y-131.064
X357.124Y-131.572
X357.124Y-132.08
X357.124Y-132.588
X357.124Y-133.096
X357.124Y-133.604
X357.124Y-134.112
X357.124Y-134.62
X357.124Y-135.128
X357.124Y-135.636
X357.124Y-136.144
X357.124Y-136.652
X357.124Y-137.16
X357.124Y-137.668
X357.124Y-138.176
X357.124Y-138.684
X357.124Y-139.954
X357.124Y-140.462
X357.124Y-140.97
X357.124Y-141.478
X357.124Y-141.986
X357.124Y-142.494
X357.124Y-143.002
X357.124Y-143.51
X357.124Y-144.018
X357.124Y-144.526
X357.124Y-145.034
X357.124Y-145.542
X357.124Y-146.05
X357.124Y-146.558
X357.124Y-147.066
X357.124Y-147.574
X357.124Y-148.082
X357.124Y-148.59
X357.124Y-149.098
X357.632Y-129.54
X357.632Y-130.048
X357.632Y-130.556
X357.632Y-131.064
X357.632Y-131.572
X357.632Y-132.08
X357.632Y-132.588
X357.632Y-133.096
X357.632Y-133.604
X357.632Y-134.112
X357.632Y-134.62
X357.632Y-135.128
X357.632Y-135.636
X357.632Y-136.144
X357.632Y-136.652
X357.632Y-137.16
X357.632Y-137.668
X357.632Y-138.176
X357.632Y-138.684
X357.632Y-139.954
X357.632Y-140.462
X357.632Y-140.97
X357.632Y-141.478
X357.632Y-141.986
X357.632Y-142.494
X357.632Y-143.002
X357.632Y-143.51
X357.632Y-144.018
X357.632Y-144.526
X357.632Y-145.034
X357.632Y-145.542
X357.632Y-146.05
X357.632Y-146.558
X357.632Y-147.066
X357.632Y-147.574
X357.632Y-148.082
X357.632Y-148.59
X357.632Y-149.098
X358.14Y-129.54
X358.14Y-130.048
X358.14Y-130.556
X358.14Y-131.064
X358.14Y-131.572
X358.14Y-132.08
X358.14Y-132.588
X358.14Y-133.096
X358.14Y-133.604
X358.14Y-134.112
X358.14Y-134.62
X358.14Y-135.128
X358.14Y-135.636
X358.14Y-136.144
X358.14Y-136.652
X358.14Y-137.16
X358.14Y-137.668
X358.14Y-138.176
X358.14Y-138.684
X358.14Y-139.954
X358.14Y-140.462
X358.14Y-140.97
X358.14Y-141.478
X358.14Y-141.986
X358.14Y-142.494
X358.14Y-143.002
X358.14Y-143.51
X358.14Y-144.018
X358.14Y-144.526
X358.14Y-145.034
X358.14Y-145.542
X358.14Y-146.05
X358.14Y-146.558
X358.14Y-147.066
X358.14Y-147.574
X358.14Y-148.082
X358.14Y-148.59
X358.14Y-149.098
X358.648Y-129.54
X358.648Y-130.048
X358.648Y-130.556
X358.648Y-131.064
X358.648Y-131.572
X358.648Y-132.08
X358.648Y-132.588
X358.648Y-133.096
X358.648Y-133.604
X358.648Y-134.112
X358.648Y-134.62
X358.648Y-135.128
X358.648Y-135.636
X358.648Y-136.144
X358.648Y-136.652
X358.648Y-137.16
X358.648Y-137.668
X358.648Y-138.176
X358.648Y-138.684
X358.648Y-139.954
X358.648Y-140.462
X358.648Y-140.97
X358.648Y-141.478
X358.648Y-141.986
X358.648Y-142.494
X358.648Y-143.002
X358.648Y-143.51
X358.648Y-144.018
X358.648Y-144.526
X358.648Y-145.034
X358.648Y-145.542
X358.648Y-146.05
X358.648Y-146.558
X358.648Y-147.066
X358.648Y-147.574
X358.648Y-148.082
X358.648Y-148.59
X358.648Y-149.098
X359.156Y-129.54
X359.156Y-130.048
X359.156Y-130.556
X359.156Y-131.064
X359.156Y-131.572
X359.156Y-132.08
X359.156Y-132.588
X359.156Y-133.096
X359.156Y-133.604
X359.156Y-134.112
X359.156Y-134.62
X359.156Y-135.128
X359.156Y-135.636
X359.156Y-136.144
X359.156Y-136.652
X359.156Y-137.16
X359.156Y-137.668
X359.156Y-138.176
X359.156Y-138.684
X359.156Y-139.954
X359.156Y-140.462
X359.156Y-140.97
X359.156Y-141.478
X359.156Y-141.986
X359.156Y-142.494
X359.156Y-143.002
X359.156Y-143.51
X359.156Y-144.018
X359.156Y-144.526
X359.156Y-145.034
X359.156Y-145.542
X359.156Y-146.05
X359.156Y-146.558
X359.156Y-147.066
X359.156Y-147.574
X359.156Y-148.082
X359.156Y-148.59
X359.156Y-149.098
X359.664Y-129.54
X359.664Y-130.048
X359.664Y-130.556
X359.664Y-131.064
X359.664Y-131.572
X359.664Y-132.08
X359.664Y-132.588
X359.664Y-133.096
X359.664Y-133.604
X359.664Y-134.112
X359.664Y-134.62
X359.664Y-135.128
X359.664Y-135.636
X359.664Y-136.144
X359.664Y-136.652
X359.664Y-137.16
X359.664Y-137.668
X359.664Y-138.176
X359.664Y-138.684
X359.664Y-139.954
X359.664Y-140.462
X359.664Y-140.97
X359.664Y-141.478
X359.664Y-141.986
X359.664Y-142.494
X359.664Y-143.002
X359.664Y-143.51
X359.664Y-144.018
X359.664Y-144.526
X359.664Y-145.034
X359.664Y-145.542
X359.664Y-146.05
X359.664Y-146.558
X359.664Y-147.066
X359.664Y-147.574
X359.664Y-148.082
X359.664Y-148.59
X359.664Y-149.098
X359.918Y-115.316
X359.918Y-115.824
X359.918Y-116.332
X359.918Y-121.412
X359.918Y-121.92
X359.918Y-122.428
X360.172Y-129.54
X360.172Y-130.048
X360.172Y-130.556
X360.172Y-131.064
X360.172Y-131.572
X360.172Y-132.08
X360.172Y-132.588
X360.172Y-133.096
X360.172Y-133.604
X360.172Y-134.112
X360.172Y-134.62
X360.172Y-135.128
X360.172Y-135.636
X360.172Y-136.144
X360.172Y-136.652
X360.172Y-137.16
X360.172Y-137.668
X360.172Y-138.176
X360.172Y-138.684
X360.172Y-139.954
X360.172Y-140.462
X360.172Y-140.97
X360.172Y-141.478
X360.172Y-141.986
X360.172Y-142.494
X360.172Y-143.002
X360.172Y-143.51
X360.172Y-144.018
X360.172Y-144.526
X360.172Y-145.034
X360.172Y-145.542
X360.172Y-146.05
X360.172Y-146.558
X360.172Y-147.066
X360.172Y-147.574
X360.172Y-148.082
X360.172Y-148.59
X360.172Y-149.098
X360.426Y-115.316
X360.426Y-115.824
X360.426Y-116.332
X360.426Y-121.412
X360.426Y-121.92
X360.426Y-122.428
X360.68Y-129.54
X360.68Y-130.048
X360.68Y-130.556
X360.68Y-131.064
X360.68Y-131.572
X360.68Y-132.08
X360.68Y-132.588
X360.68Y-133.096
X360.68Y-133.604
X360.68Y-134.112
X360.68Y-134.62
X360.68Y-135.128
X360.68Y-135.636
X360.68Y-136.144
X360.68Y-136.652
X360.68Y-137.16
X360.68Y-137.668
X360.68Y-138.176
X360.68Y-138.684
X360.68Y-139.954
X360.68Y-140.462
X360.68Y-140.97
X360.68Y-141.478
X360.68Y-141.986
X360.68Y-142.494
X360.68Y-143.002
X360.68Y-143.51
X360.68Y-144.018
X360.68Y-144.526
X360.68Y-145.034
X360.68Y-145.542
X360.68Y-146.05
X360.68Y-146.558
X360.68Y-147.066
X360.68Y-147.574
X360.68Y-148.082
X360.68Y-148.59
X360.68Y-149.098
X360.934Y-115.316
X360.934Y-115.824
X360.934Y-116.332
X360.934Y-121.412
X360.934Y-121.92
X360.934Y-122.428
X361.442Y-115.316
X361.442Y-115.824
X361.442Y-116.332
X361.442Y-121.412
X361.442Y-121.92
X361.442Y-122.428
X361.95Y-115.316
X361.95Y-115.824
X361.95Y-116.332
X361.95Y-121.412
X361.95Y-121.92
X361.95Y-122.428
X362.204Y-129.54
X362.204Y-130.048
X362.204Y-130.556
X362.204Y-131.064
X362.204Y-131.572
X362.204Y-132.08
X362.204Y-132.588
X362.204Y-133.096
X362.204Y-133.604
X362.204Y-134.112
X362.204Y-134.62
X362.204Y-135.128
X362.204Y-135.636
X362.204Y-136.144
X362.204Y-136.652
X362.204Y-137.16
X362.204Y-137.668
X362.204Y-138.176
X362.204Y-138.684
X362.204Y-139.954
X362.204Y-140.462
X362.204Y-140.97
X362.204Y-141.478
X362.204Y-141.986
X362.204Y-142.494
X362.204Y-143.002
X362.204Y-143.51
X362.204Y-144.018
X362.204Y-144.526
X362.204Y-145.034
X362.204Y-145.542
X362.204Y-146.05
X362.204Y-146.558
X362.204Y-147.066
X362.204Y-147.574
X362.204Y-148.082
X362.204Y-148.59
X362.204Y-149.098
X362.458Y-115.316
X362.458Y-115.824
X362.458Y-116.332
X362.458Y-121.412
X362.458Y-121.92
X362.458Y-122.428
X362.712Y-129.54
X362.712Y-130.048
X362.712Y-130.556
X362.712Y-131.064
X362.712Y-131.572
X362.712Y-132.08
X362.712Y-132.588
X362.712Y-133.096
X362.712Y-133.604
X362.712Y-134.112
X362.712Y-134.62
X362.712Y-135.128
X362.712Y-135.636
X362.712Y-136.144
X362.712Y-136.652
X362.712Y-137.16
X362.712Y-137.668
X362.712Y-138.176
X362.712Y-138.684
X362.712Y-139.954
X362.712Y-140.462
X362.712Y-140.97
X362.712Y-141.478
X362.712Y-141.986
X362.712Y-142.494
X362.712Y-143.002
X362.712Y-143.51
X362.712Y-144.018
X362.712Y-144.526
X362.712Y-145.034
X362.712Y-145.542
X362.712Y-146.05
X362.712Y-146.558
X362.712Y-147.066
X362.712Y-147.574
X362.712Y-148.082
X362.712Y-148.59
X362.712Y-149.098
X362.966Y-115.316
X362.966Y-115.824
X362.966Y-116.332
X362.966Y-121.412
X362.966Y-121.92
X362.966Y-122.428
X363.22Y-129.54
X363.22Y-130.048
X363.22Y-130.556
X363.22Y-131.064
X363.22Y-131.572
X363.22Y-132.08
X363.22Y-132.588
X363.22Y-133.096
X363.22Y-133.604
X363.22Y-134.112
X363.22Y-134.62
X363.22Y-135.128
X363.22Y-135.636
X363.22Y-136.144
X363.22Y-136.652
X363.22Y-137.16
X363.22Y-137.668
X363.22Y-138.176
X363.22Y-138.684
X363.22Y-139.954
X363.22Y-140.462
X363.22Y-140.97
X363.22Y-141.478
X363.22Y-141.986
X363.22Y-142.494
X363.22Y-143.002
X363.22Y-143.51
X363.22Y-144.018
X363.22Y-144.526
X363.22Y-145.034
X363.22Y-145.542
X363.22Y-146.05
X363.22Y-146.558
X363.22Y-147.066
X363.22Y-147.574
X363.22Y-148.082
X363.22Y-148.59
X363.22Y-149.098
X363.728Y-129.54
X363.728Y-130.048
X363.728Y-130.556
X363.728Y-131.064
X363.728Y-131.572
X363.728Y-132.08
X363.728Y-132.588
X363.728Y-133.096
X363.728Y-133.604
X363.728Y-134.112
X363.728Y-134.62
X363.728Y-135.128
X363.728Y-135.636
X363.728Y-136.144
X363.728Y-136.652
X363.728Y-137.16
X363.728Y-137.668
X363.728Y-138.176
X363.728Y-138.684
X363.728Y-139.954
X363.728Y-140.462
X363.728Y-140.97
X363.728Y-141.478
X363.728Y-141.986
X363.728Y-142.494
X363.728Y-143.002
X363.728Y-143.51
X363.728Y-144.018
X363.728Y-144.526
X363.728Y-145.034
X363.728Y-145.542
X363.728Y-146.05
X363.728Y-146.558
X363.728Y-147.066
X363.728Y-147.574
X363.728Y-148.082
X363.728Y-148.59
X363.728Y-149.098
X364.236Y-129.54
X364.236Y-130.048
X364.236Y-130.556
X364.236Y-131.064
X364.236Y-131.572
X364.236Y-132.08
X364.236Y-132.588
X364.236Y-133.096
X364.236Y-133.604
X364.236Y-134.112
X364.236Y-134.62
X364.236Y-135.128
X364.236Y-135.636
X364.236Y-136.144
X364.236Y-136.652
X364.236Y-137.16
X364.236Y-137.668
X364.236Y-138.176
X364.236Y-138.684
X364.236Y-139.954
X364.236Y-140.462
X364.236Y-140.97
X364.236Y-141.478
X364.236Y-141.986
X364.236Y-142.494
X364.236Y-143.002
X364.236Y-143.51
X364.236Y-144.018
X364.236Y-144.526
X364.236Y-145.034
X364.236Y-145.542
X364.236Y-146.05
X364.236Y-146.558
X364.236Y-147.066
X364.236Y-147.574
X364.236Y-148.082
X364.236Y-148.59
X364.236Y-149.098
X364.744Y-129.54
X364.744Y-130.048
X364.744Y-130.556
X364.744Y-131.064
X364.744Y-131.572
X364.744Y-132.08
X364.744Y-132.588
X364.744Y-133.096
X364.744Y-133.604
X364.744Y-134.112
X364.744Y-134.62
X364.744Y-135.128
X364.744Y-135.636
X364.744Y-136.144
X364.744Y-136.652
X364.744Y-137.16
X364.744Y-137.668
X364.744Y-138.176
X364.744Y-138.684
X364.744Y-139.954
X364.744Y-140.462
X364.744Y-140.97
X364.744Y-141.478
X364.744Y-141.986
X364.744Y-142.494
X364.744Y-143.002
X364.744Y-143.51
X364.744Y-144.018
X364.744Y-144.526
X364.744Y-145.034
X364.744Y-145.542
X364.744Y-146.05
X364.744Y-146.558
X364.744Y-147.066
X364.744Y-147.574
X364.744Y-148.082
X364.744Y-148.59
X364.744Y-149.098
X365.252Y-129.54
X365.252Y-130.048
X365.252Y-130.556
X365.252Y-131.064
X365.252Y-131.572
X365.252Y-132.08
X365.252Y-132.588
X365.252Y-133.096
X365.252Y-133.604
X365.252Y-134.112
X365.252Y-134.62
X365.252Y-135.128
X365.252Y-135.636
X365.252Y-136.144
X365.252Y-136.652
X365.252Y-137.16
X365.252Y-137.668
X365.252Y-138.176
X365.252Y-138.684
X365.252Y-139.954
X365.252Y-140.462
X365.252Y-140.97
X365.252Y-141.478
X365.252Y-141.986
X365.252Y-142.494
X365.252Y-143.002
X365.252Y-143.51
X365.252Y-144.018
X365.252Y-144.526
X365.252Y-145.034
X365.252Y-145.542
X365.252Y-146.05
X365.252Y-146.558
X365.252Y-147.066
X365.252Y-147.574
X365.252Y-148.082
X365.252Y-148.59
X365.252Y-149.098
X365.76Y-129.54
X365.76Y-130.048
X365.76Y-130.556
X365.76Y-131.064
X365.76Y-131.572
X365.76Y-132.08
X365.76Y-132.588
X365.76Y-133.096
X365.76Y-133.604
X365.76Y-134.112
X365.76Y-134.62
X365.76Y-135.128
X365.76Y-135.636
X365.76Y-136.144
X365.76Y-136.652
X365.76Y-137.16
X365.76Y-137.668
X365.76Y-138.176
X365.76Y-138.684
X365.76Y-139.954
X365.76Y-140.462
X365.76Y-140.97
X365.76Y-141.478
X365.76Y-141.986
X365.76Y-142.494
X365.76Y-143.002
X365.76Y-143.51
X365.76Y-144.018
X365.76Y-144.526
X365.76Y-145.034
X365.76Y-145.542
X365.76Y-146.05
X365.76Y-146.558
X365.76Y-147.066
X365.76Y-147.574
X365.76Y-148.082
X365.76Y-148.59
X365.76Y-149.098
X366.268Y-129.54
X366.268Y-130.048
X366.268Y-130.556
X366.268Y-131.064
X366.268Y-131.572
X366.268Y-132.08
X366.268Y-132.588
X366.268Y-133.096
X366.268Y-133.604
X366.268Y-134.112
X366.268Y-134.62
X366.268Y-135.128
X366.268Y-135.636
X366.268Y-136.144
X366.268Y-136.652
X366.268Y-137.16
X366.268Y-137.668
X366.268Y-138.176
X366.268Y-138.684
X366.268Y-139.954
X366.268Y-140.462
X366.268Y-140.97
X366.268Y-141.478
X366.268Y-141.986
X366.268Y-142.494
X366.268Y-143.002
X366.268Y-143.51
X366.268Y-144.018
X366.268Y-144.526
X366.268Y-145.034
X366.268Y-145.542
X366.268Y-146.05
X366.268Y-146.558
X366.268Y-147.066
X366.268Y-147.574
X366.268Y-148.082
X366.268Y-148.59
X366.268Y-149.098
X366.776Y-129.54
X366.776Y-130.048
X366.776Y-130.556
X366.776Y-131.064
X366.776Y-131.572
X366.776Y-132.08
X366.776Y-132.588
X366.776Y-133.096
X366.776Y-133.604
X366.776Y-134.112
X366.776Y-134.62
X366.776Y-135.128
X366.776Y-135.636
X366.776Y-136.144
X366.776Y-136.652
X366.776Y-137.16
X366.776Y-137.668
X366.776Y-138.176
X366.776Y-138.684
X366.776Y-139.954
X366.776Y-140.462
X366.776Y-140.97
X366.776Y-141.478
X366.776Y-141.986
X366.776Y-142.494
X366.776Y-143.002
X366.776Y-143.51
X366.776Y-144.018
X366.776Y-144.526
X366.776Y-145.034
X366.776Y-145.542
X366.776Y-146.05
X366.776Y-146.558
X366.776Y-147.066
X366.776Y-147.574
X366.776Y-148.082
X366.776Y-148.59
X366.776Y-149.098
X367.284Y-129.54
X367.284Y-130.048
X367.284Y-130.556
X367.284Y-131.064
X367.284Y-131.572
X367.284Y-132.08
X367.284Y-132.588
X367.284Y-133.096
X367.284Y-133.604
X367.284Y-134.112
X367.284Y-134.62
X367.284Y-135.128
X367.284Y-135.636
X367.284Y-136.144
X367.284Y-136.652
X367.284Y-137.16
X367.284Y-137.668
X367.284Y-138.176
X367.284Y-138.684
X367.284Y-139.954
X367.284Y-140.462
X367.284Y-140.97
X367.284Y-141.478
X367.284Y-141.986
X367.284Y-142.494
X367.284Y-143.002
X367.284Y-143.51
X367.284Y-144.018
X367.284Y-144.526
X367.284Y-145.034
X367.284Y-145.542
X367.284Y-146.05
X367.284Y-146.558
X367.284Y-147.066
X367.284Y-147.574
X367.284Y-148.082
X367.284Y-148.59
X367.284Y-149.098
X367.792Y-129.54
X367.792Y-130.048
X367.792Y-130.556
X367.792Y-131.064
X367.792Y-131.572
X367.792Y-132.08
X367.792Y-132.588
X367.792Y-133.096
X367.792Y-133.604
X367.792Y-134.112
X367.792Y-134.62
X367.792Y-135.128
X367.792Y-135.636
X367.792Y-136.144
X367.792Y-136.652
X367.792Y-137.16
X367.792Y-137.668
X367.792Y-138.176
X367.792Y-138.684
X367.792Y-139.954
X367.792Y-140.462
X367.792Y-140.97
X367.792Y-141.478
X367.792Y-141.986
X367.792Y-142.494
X367.792Y-143.002
X367.792Y-143.51
X367.792Y-144.018
X367.792Y-144.526
X367.792Y-145.034
X367.792Y-145.542
X367.792Y-146.05
X367.792Y-146.558
X367.792Y-147.066
X367.792Y-147.574
X367.792Y-148.082
X367.792Y-148.59
X367.792Y-149.098
X368.3Y-129.54
X368.3Y-130.048
X368.3Y-130.556
X368.3Y-131.064
X368.3Y-131.572
X368.3Y-132.08
X368.3Y-132.588
X368.3Y-133.096
X368.3Y-133.604
X368.3Y-134.112
X368.3Y-134.62
X368.3Y-135.128
X368.3Y-135.636
X368.3Y-136.144
X368.3Y-136.652
X368.3Y-137.16
X368.3Y-137.668
X368.3Y-138.176
X368.3Y-138.684
X368.3Y-139.954
X368.3Y-140.462
X368.3Y-140.97
X368.3Y-141.478
X368.3Y-141.986
X368.3Y-142.494
X368.3Y-143.002
X368.3Y-143.51
X368.3Y-144.018
X368.3Y-144.526
X368.3Y-145.034
X368.3Y-145.542
X368.3Y-146.05
X368.3Y-146.558
X368.3Y-147.066
X368.3Y-147.574
X368.3Y-148.082
X368.3Y-148.59
X368.3Y-149.098
X368.808Y-129.54
X368.808Y-130.048
X368.808Y-130.556
X368.808Y-131.064
X368.808Y-131.572
X368.808Y-132.08
X368.808Y-132.588
X368.808Y-133.096
X368.808Y-133.604
X368.808Y-134.112
X368.808Y-134.62
X368.808Y-135.128
X368.808Y-135.636
X368.808Y-136.144
X368.808Y-136.652
X368.808Y-137.16
X368.808Y-137.668
X368.808Y-138.176
X368.808Y-138.684
X368.808Y-139.954
X368.808Y-140.462
X368.808Y-140.97
X368.808Y-141.478
X368.808Y-141.986
X368.808Y-142.494
X368.808Y-143.002
X368.808Y-143.51
X368.808Y-144.018
X368.808Y-144.526
X368.808Y-145.034
X368.808Y-145.542
X368.808Y-146.05
X368.808Y-146.558
X368.808Y-147.066
X368.808Y-147.574
X368.808Y-148.082
X368.808Y-148.59
X368.808Y-149.098
X369.316Y-129.54
X369.316Y-130.048
X369.316Y-130.556
X369.316Y-131.064
X369.316Y-131.572
X369.316Y-132.08
X369.316Y-132.588
X369.316Y-133.096
X369.316Y-133.604
X369.316Y-134.112
X369.316Y-134.62
X369.316Y-135.128
X369.316Y-135.636
X369.316Y-136.144
X369.316Y-136.652
X369.316Y-137.16
X369.316Y-137.668
X369.316Y-138.176
X369.316Y-138.684
X369.316Y-139.954
X369.316Y-140.462
X369.316Y-140.97
X369.316Y-141.478
X369.316Y-141.986
X369.316Y-142.494
X369.316Y-143.002
X369.316Y-143.51
X369.316Y-144.018
X369.316Y-144.526
X369.316Y-145.034
X369.316Y-145.542
X369.316Y-146.05
X369.316Y-146.558
X369.316Y-147.066
X369.316Y-147.574
X369.316Y-148.082
X369.316Y-148.59
X369.316Y-149.098
X369.824Y-129.54
X369.824Y-130.048
X369.824Y-130.556
X369.824Y-131.064
X369.824Y-131.572
X369.824Y-132.08
X369.824Y-132.588
X369.824Y-133.096
X369.824Y-133.604
X369.824Y-134.112
X369.824Y-134.62
X369.824Y-135.128
X369.824Y-135.636
X369.824Y-136.144
X369.824Y-136.652
X369.824Y-137.16
X369.824Y-137.668
X369.824Y-138.176
X369.824Y-138.684
X369.824Y-139.954
X369.824Y-140.462
X369.824Y-140.97
X369.824Y-141.478
X369.824Y-141.986
X369.824Y-142.494
X369.824Y-143.002
X369.824Y-143.51
X369.824Y-144.018
X369.824Y-144.526
X369.824Y-145.034
X369.824Y-145.542
X369.824Y-146.05
X369.824Y-146.558
X369.824Y-147.066
X369.824Y-147.574
X369.824Y-148.082
X369.824Y-148.59
X369.824Y-149.098
X370.332Y-129.54
X370.332Y-130.048
X370.332Y-130.556
X370.332Y-131.064
X370.332Y-131.572
X370.332Y-132.08
X370.332Y-132.588
X370.332Y-133.096
X370.332Y-133.604
X370.332Y-134.112
X370.332Y-134.62
X370.332Y-135.128
X370.332Y-135.636
X370.332Y-136.144
X370.332Y-136.652
X370.332Y-137.16
X370.332Y-137.668
X370.332Y-138.176
X370.332Y-138.684
X370.332Y-139.954
X370.332Y-140.462
X370.332Y-140.97
X370.332Y-141.478
X370.332Y-141.986
X370.332Y-142.494
X370.332Y-143.002
X370.332Y-143.51
X370.332Y-144.018
X370.332Y-144.526
X370.332Y-145.034
X370.332Y-145.542
X370.332Y-146.05
X370.332Y-146.558
X370.332Y-147.066
X370.332Y-147.574
X370.332Y-148.082
X370.332Y-148.59
X370.332Y-149.098
X370.84Y-129.54
X370.84Y-130.048
X370.84Y-130.556
X370.84Y-131.064
X370.84Y-131.572
X370.84Y-132.08
X370.84Y-132.588
X370.84Y-133.096
X370.84Y-133.604
X370.84Y-134.112
X370.84Y-134.62
X370.84Y-135.128
X370.84Y-135.636
X370.84Y-136.144
X370.84Y-136.652
X370.84Y-137.16
X370.84Y-137.668
X370.84Y-138.176
X370.84Y-138.684
X370.84Y-139.954
X370.84Y-140.462
X370.84Y-140.97
X370.84Y-141.478
X370.84Y-141.986
X370.84Y-142.494
X370.84Y-143.002
X370.84Y-143.51
X370.84Y-144.018
X370.84Y-144.526
X370.84Y-145.034
X370.84Y-145.542
X370.84Y-146.05
X370.84Y-146.558
X370.84Y-147.066
X370.84Y-147.574
X370.84Y-148.082
X370.84Y-148.59
X370.84Y-149.098
X371.348Y-129.54
X371.348Y-130.048
X371.348Y-130.556
X371.348Y-131.064
X371.348Y-131.572
X371.348Y-132.08
X371.348Y-132.588
X371.348Y-133.096
X371.348Y-133.604
X371.348Y-134.112
X371.348Y-134.62
X371.348Y-135.128
X371.348Y-135.636
X371.348Y-136.144
X371.348Y-136.652
X371.348Y-137.16
X371.348Y-137.668
X371.348Y-138.176
X371.348Y-138.684
X371.348Y-139.954
X371.348Y-140.462
X371.348Y-140.97
X371.348Y-141.478
X371.348Y-141.986
X371.348Y-142.494
X371.348Y-143.002
X371.348Y-143.51
X371.348Y-144.018
X371.348Y-144.526
X371.348Y-145.034
X371.348Y-145.542
X371.348Y-146.05
X371.348Y-146.558
X371.348Y-147.066
X371.348Y-147.574
X371.348Y-148.082
X371.348Y-148.59
X371.348Y-149.098
X371.602Y-115.316
X371.602Y-115.824
X371.602Y-116.332
X371.602Y-121.412
X371.602Y-121.92
X371.602Y-122.428
X371.856Y-129.54
X371.856Y-130.048
X371.856Y-130.556
X371.856Y-131.064
X371.856Y-131.572
X371.856Y-132.08
X371.856Y-132.588
X371.856Y-133.096
X371.856Y-133.604
X371.856Y-134.112
X371.856Y-134.62
X371.856Y-135.128
X371.856Y-135.636
X371.856Y-136.144
X371.856Y-136.652
X371.856Y-137.16
X371.856Y-137.668
X371.856Y-138.176
X371.856Y-138.684
X371.856Y-139.954
X371.856Y-140.462
X371.856Y-140.97
X371.856Y-141.478
X371.856Y-141.986
X371.856Y-142.494
X371.856Y-143.002
X371.856Y-143.51
X371.856Y-144.018
X371.856Y-144.526
X371.856Y-145.034
X371.856Y-145.542
X371.856Y-146.05
X371.856Y-146.558
X371.856Y-147.066
X371.856Y-147.574
X371.856Y-148.082
X371.856Y-148.59
X371.856Y-149.098
X372.11Y-115.316
X372.11Y-115.824
X372.11Y-116.332
X372.11Y-121.412
X372.11Y-121.92
X372.11Y-122.428
X372.364Y-129.54
X372.364Y-130.048
X372.364Y-130.556
X372.364Y-131.064
X372.364Y-131.572
X372.364Y-132.08
X372.364Y-132.588
X372.364Y-133.096
X372.364Y-133.604
X372.364Y-134.112
X372.364Y-134.62
X372.364Y-135.128
X372.364Y-135.636
X372.364Y-136.144
X372.364Y-136.652
X372.364Y-137.16
X372.364Y-137.668
X372.364Y-138.176
X372.364Y-138.684
X372.364Y-139.954
X372.364Y-140.462
X372.364Y-140.97
X372.364Y-141.478
X372.364Y-141.986
X372.364Y-142.494
X372.364Y-143.002
X372.364Y-143.51
X372.364Y-144.018
X372.364Y-144.526
X372.364Y-145.034
X372.364Y-145.542
X372.364Y-146.05
X372.364Y-146.558
X372.364Y-147.066
X372.364Y-147.574
X372.364Y-148.082
X372.364Y-148.59
X372.364Y-149.098
X372.618Y-115.316
X372.618Y-115.824
X372.618Y-116.332
X372.618Y-121.412
X372.618Y-121.92
X372.618Y-122.428
X373.126Y-115.316
X373.126Y-115.824
X373.126Y-116.332
X373.126Y-121.412
X373.126Y-121.92
X373.126Y-122.428
X373.634Y-115.316
X373.634Y-115.824
X373.634Y-116.332
X373.634Y-121.412
X373.634Y-121.92
X373.634Y-122.428
X373.888Y-129.54
X373.888Y-130.048
X373.888Y-130.556
X373.888Y-131.064
X373.888Y-131.572
X373.888Y-132.08
X373.888Y-132.588
X373.888Y-133.096
X373.888Y-133.604
X373.888Y-134.112
X373.888Y-134.62
X373.888Y-135.128
X373.888Y-135.636
X373.888Y-136.144
X373.888Y-136.652
X373.888Y-137.16
X373.888Y-137.668
X373.888Y-138.176
X373.888Y-138.684
X373.888Y-139.954
X373.888Y-140.462
X373.888Y-140.97
X373.888Y-141.478
X373.888Y-141.986
X373.888Y-142.494
X373.888Y-143.002
X373.888Y-143.51
X373.888Y-144.018
X373.888Y-144.526
X373.888Y-145.034
X373.888Y-145.542
X373.888Y-146.05
X373.888Y-146.558
X373.888Y-147.066
X373.888Y-147.574
X373.888Y-148.082
X373.888Y-148.59
X373.888Y-149.098
X374.142Y-115.316
X374.142Y-115.824
X374.142Y-116.332
X374.142Y-121.412
X374.142Y-121.92
X374.142Y-122.428
X374.396Y-129.54
X374.396Y-130.048
X374.396Y-130.556
X374.396Y-131.064
X374.396Y-131.572
X374.396Y-132.08
X374.396Y-132.588
X374.396Y-133.096
X374.396Y-133.604
X374.396Y-134.112
X374.396Y-134.62
X374.396Y-135.128
X374.396Y-135.636
X374.396Y-136.144
X374.396Y-136.652
X374.396Y-137.16
X374.396Y-137.668
X374.396Y-138.176
X374.396Y-138.684
X374.396Y-139.954
X374.396Y-140.462
X374.396Y-140.97
X374.396Y-141.478
X374.396Y-141.986
X374.396Y-142.494
X374.396Y-143.002
X374.396Y-143.51
X374.396Y-144.018
X374.396Y-144.526
X374.396Y-145.034
X374.396Y-145.542
X374.396Y-146.05
X374.396Y-146.558
X374.396Y-147.066
X374.396Y-147.574
X374.396Y-148.082
X374.396Y-148.59
X374.396Y-149.098
X374.65Y-115.316
X374.65Y-115.824
X374.65Y-116.332
X374.65Y-121.412
X374.65Y-121.92
X374.65Y-122.428
X374.904Y-129.54
X374.904Y-130.048
X374.904Y-130.556
X374.904Y-131.064
X374.904Y-131.572
X374.904Y-132.08
X374.904Y-132.588
X374.904Y-133.096
X374.904Y-133.604
X374.904Y-134.112
X374.904Y-134.62
X374.904Y-135.128
X374.904Y-135.636
X374.904Y-136.144
X374.904Y-136.652
X374.904Y-137.16
X374.904Y-137.668
X374.904Y-138.176
X374.904Y-138.684
X374.904Y-139.954
X374.904Y-140.462
X374.904Y-140.97
X374.904Y-141.478
X374.904Y-141.986
X374.904Y-142.494
X374.904Y-143.002
X374.904Y-143.51
X374.904Y-144.018
X374.904Y-144.526
X374.904Y-145.034
X374.904Y-145.542
X374.904Y-146.05
X374.904Y-146.558
X374.904Y-147.066
X374.904Y-147.574
X374.904Y-148.082
X374.904Y-148.59
X374.904Y-149.098
X375.412Y-129.54
X375.412Y-130.048
X375.412Y-130.556
X375.412Y-131.064
X375.412Y-131.572
X375.412Y-132.08
X375.412Y-132.588
X375.412Y-133.096
X375.412Y-133.604
X375.412Y-134.112
X375.412Y-134.62
X375.412Y-135.128
X375.412Y-135.636
X375.412Y-136.144
X375.412Y-136.652
X375.412Y-137.16
X375.412Y-137.668
X375.412Y-138.176
X375.412Y-138.684
X375.412Y-139.954
X375.412Y-140.462
X375.412Y-140.97
X375.412Y-141.478
X375.412Y-141.986
X375.412Y-142.494
X375.412Y-143.002
X375.412Y-143.51
X375.412Y-144.018
X375.412Y-144.526
X375.412Y-145.034
X375.412Y-145.542
X375.412Y-146.05
X375.412Y-146.558
X375.412Y-147.066
X375.412Y-147.574
X375.412Y-148.082
X375.412Y-148.59
X375.412Y-149.098
X375.92Y-129.54
X375.92Y-130.048
X375.92Y-130.556
X375.92Y-131.064
X375.92Y-131.572
X375.92Y-132.08
X375.92Y-132.588
X375.92Y-133.096
X375.92Y-133.604
X375.92Y-134.112
X375.92Y-134.62
X375.92Y-135.128
X375.92Y-135.636
X375.92Y-136.144
X375.92Y-136.652
X375.92Y-137.16
X375.92Y-137.668
X375.92Y-138.176
X375.92Y-138.684
X375.92Y-139.954
X375.92Y-140.462
X375.92Y-140.97
X375.92Y-141.478
X375.92Y-141.986
X375.92Y-142.494
X375.92Y-143.002
X375.92Y-143.51
X375.92Y-144.018
X375.92Y-144.526
X375.92Y-145.034
X375.92Y-145.542
X375.92Y-146.05
X375.92Y-146.558
X375.92Y-147.066
X375.92Y-147.574
X375.92Y-148.082
X375.92Y-148.59
X375.92Y-149.098
X376.428Y-129.54
X376.428Y-130.048
X376.428Y-130.556
X376.428Y-131.064
X376.428Y-131.572
X376.428Y-132.08
X376.428Y-132.588
X376.428Y-133.096
X376.428Y-133.604
X376.428Y-134.112
X376.428Y-134.62
X376.428Y-135.128
X376.428Y-135.636
X376.428Y-136.144
X376.428Y-136.652
X376.428Y-137.16
X376.428Y-137.668
X376.428Y-138.176
X376.428Y-138.684
X376.428Y-139.954
X376.428Y-140.462
X376.428Y-140.97
X376.428Y-141.478
X376.428Y-141.986
X376.428Y-142.494
X376.428Y-143.002
X376.428Y-143.51
X376.428Y-144.018
X376.428Y-144.526
X376.428Y-145.034
X376.428Y-145.542
X376.428Y-146.05
X376.428Y-146.558
X376.428Y-147.066
X376.428Y-147.574
X376.428Y-148.082
X376.428Y-148.59
X376.428Y-149.098
X376.936Y-129.54
X376.936Y-130.048
X376.936Y-130.556
X376.936Y-131.064
X376.936Y-131.572
X376.936Y-132.08
X376.936Y-132.588
X376.936Y-133.096
X376.936Y-133.604
X376.936Y-134.112
X376.936Y-134.62
X376.936Y-135.128
X376.936Y-135.636
X376.936Y-136.144
X376.936Y-136.652
X376.936Y-137.16
X376.936Y-137.668
X376.936Y-138.176
X376.936Y-138.684
X376.936Y-139.954
X376.936Y-140.462
X376.936Y-140.97
X376.936Y-141.478
X376.936Y-141.986
X376.936Y-142.494
X376.936Y-143.002
X376.936Y-143.51
X376.936Y-144.018
X376.936Y-144.526
X376.936Y-145.034
X376.936Y-145.542
X376.936Y-146.05
X376.936Y-146.558
X376.936Y-147.066
X376.936Y-147.574
X376.936Y-148.082
X376.936Y-148.59
X376.936Y-149.098
X377.444Y-129.54
X377.444Y-130.048
X377.444Y-130.556
X377.444Y-131.064
X377.444Y-131.572
X377.444Y-132.08
X377.444Y-132.588
X377.444Y-133.096
X377.444Y-133.604
X377.444Y-134.112
X377.444Y-134.62
X377.444Y-135.128
X377.444Y-135.636
X377.444Y-136.144
X377.444Y-136.652
X377.444Y-137.16
X377.444Y-137.668
X377.444Y-138.176
X377.444Y-138.684
X377.444Y-139.954
X377.444Y-140.462
X377.444Y-140.97
X377.444Y-141.478
X377.444Y-141.986
X377.444Y-142.494
X377.444Y-143.002
X377.444Y-143.51
X377.444Y-144.018
X377.444Y-144.526
X377.444Y-145.034
X377.444Y-145.542
X377.444Y-146.05
X377.444Y-146.558
X377.444Y-147.066
X377.444Y-147.574
X377.444Y-148.082
X377.444Y-148.59
X377.444Y-149.098
X377.952Y-129.54
X377.952Y-130.048
X377.952Y-130.556
X377.952Y-131.064
X377.952Y-131.572
X377.952Y-132.08
X377.952Y-132.588
X377.952Y-133.096
X377.952Y-133.604
X377.952Y-134.112
X377.952Y-134.62
X377.952Y-135.128
X377.952Y-135.636
X377.952Y-136.144
X377.952Y-136.652
X377.952Y-137.16
X377.952Y-137.668
X377.952Y-138.176
X377.952Y-138.684
X377.952Y-139.954
X377.952Y-140.462
X377.952Y-140.97
X377.952Y-141.478
X377.952Y-141.986
X377.952Y-142.494
X377.952Y-143.002
X377.952Y-143.51
X377.952Y-144.018
X377.952Y-144.526
X377.952Y-145.034
X377.952Y-145.542
X377.952Y-146.05
X377.952Y-146.558
X377.952Y-147.066
X377.952Y-147.574
X377.952Y-148.082
X377.952Y-148.59
X377.952Y-149.098
X378.46Y-129.54
X378.46Y-130.048
X378.46Y-130.556
X378.46Y-131.064
X378.46Y-131.572
X378.46Y-132.08
X378.46Y-132.588
X378.46Y-133.096
X378.46Y-133.604
X378.46Y-134.112
X378.46Y-134.62
X378.46Y-135.128
X378.46Y-135.636
X378.46Y-136.144
X378.46Y-136.652
X378.46Y-137.16
X378.46Y-137.668
X378.46Y-138.176
X378.46Y-138.684
X378.46Y-139.954
X378.46Y-140.462
X378.46Y-140.97
X378.46Y-141.478
X378.46Y-141.986
X378.46Y-142.494
X378.46Y-143.002
X378.46Y-143.51
X378.46Y-144.018
X378.46Y-144.526
X378.46Y-145.034
X378.46Y-145.542
X378.46Y-146.05
X378.46Y-146.558
X378.46Y-147.066
X378.46Y-147.574
X378.46Y-148.082
X378.46Y-148.59
X378.46Y-149.098
X378.968Y-129.54
X378.968Y-130.048
X378.968Y-130.556
X378.968Y-131.064
X378.968Y-131.572
X378.968Y-132.08
X378.968Y-132.588
X378.968Y-133.096
X378.968Y-133.604
X378.968Y-134.112
X378.968Y-134.62
X378.968Y-135.128
X378.968Y-135.636
X378.968Y-136.144
X378.968Y-136.652
X378.968Y-137.16
X378.968Y-137.668
X378.968Y-138.176
X378.968Y-138.684
X378.968Y-139.954
X378.968Y-140.462
X378.968Y-140.97
X378.968Y-141.478
X378.968Y-141.986
X378.968Y-142.494
X378.968Y-143.002
X378.968Y-143.51
X378.968Y-144.018
X378.968Y-144.526
X378.968Y-145.034
X378.968Y-145.542
X378.968Y-146.05
X378.968Y-146.558
X378.968Y-147.066
X378.968Y-147.574
X378.968Y-148.082
X378.968Y-148.59
X378.968Y-149.098
X379.476Y-129.54
X379.476Y-130.048
X379.476Y-130.556
X379.476Y-131.064
X379.476Y-131.572
X379.476Y-132.08
X379.476Y-132.588
X379.476Y-133.096
X379.476Y-133.604
X379.476Y-134.112
X379.476Y-134.62
X379.476Y-135.128
X379.476Y-135.636
X379.476Y-136.144
X379.476Y-136.652
X379.476Y-137.16
X379.476Y-137.668
X379.476Y-138.176
X379.476Y-138.684
X379.476Y-139.954
X379.476Y-140.462
X379.476Y-140.97
X379.476Y-141.478
X379.476Y-141.986
X379.476Y-142.494
X379.476Y-143.002
X379.476Y-143.51
X379.476Y-144.018
X379.476Y-144.526
X379.476Y-145.034
X379.476Y-145.542
X379.476Y-146.05
X379.476Y-146.558
X379.476Y-147.066
X379.476Y-147.574
X379.476Y-148.082
X379.476Y-148.59
X379.476Y-149.098
X379.984Y-129.54
X379.984Y-130.048
X379.984Y-130.556
X379.984Y-131.064
X379.984Y-131.572
X379.984Y-132.08
X379.984Y-132.588
X379.984Y-133.096
X379.984Y-133.604
X379.984Y-134.112
X379.984Y-134.62
X379.984Y-135.128
X379.984Y-135.636
X379.984Y-136.144
X379.984Y-136.652
X379.984Y-137.16
X379.984Y-137.668
X379.984Y-138.176
X379.984Y-138.684
X379.984Y-139.954
X379.984Y-140.462
X379.984Y-140.97
X379.984Y-141.478
X379.984Y-141.986
X379.984Y-142.494
X379.984Y-143.002
X379.984Y-143.51
X379.984Y-144.018
X379.984Y-144.526
X379.984Y-145.034
X379.984Y-145.542
X379.984Y-146.05
X379.984Y-146.558
X379.984Y-147.066
X379.984Y-147.574
X379.984Y-148.082
X379.984Y-148.59
X379.984Y-149.098
X380.492Y-129.54
X380.492Y-130.048
X380.492Y-130.556
X380.492Y-131.064
X380.492Y-131.572
X380.492Y-132.08
X380.492Y-132.588
X380.492Y-133.096
X380.492Y-133.604
X380.492Y-134.112
X380.492Y-134.62
X380.492Y-135.128
X380.492Y-135.636
X380.492Y-136.144
X380.492Y-136.652
X380.492Y-137.16
X380.492Y-137.668
X380.492Y-138.176
X380.492Y-138.684
X380.492Y-139.954
X380.492Y-140.462
X380.492Y-140.97
X380.492Y-141.478
X380.492Y-141.986
X380.492Y-142.494
X380.492Y-143.002
X380.492Y-143.51
X380.492Y-144.018
X380.492Y-144.526
X380.492Y-145.034
X380.492Y-145.542
X380.492Y-146.05
X380.492Y-146.558
X380.492Y-147.066
X380.492Y-147.574
X380.492Y-148.082
X380.492Y-148.59
X380.492Y-149.098
X381.0Y-129.54
X381.0Y-130.048
X381.0Y-130.556
X381.0Y-131.064
X381.0Y-131.572
X381.0Y-132.08
X381.0Y-132.588
X381.0Y-133.096
X381.0Y-133.604
X381.0Y-134.112
X381.0Y-134.62
X381.0Y-135.128
X381.0Y-135.636
X381.0Y-136.144
X381.0Y-136.652
X381.0Y-137.16
X381.0Y-137.668
X381.0Y-138.176
X381.0Y-138.684
X381.0Y-139.954
X381.0Y-140.462
X381.0Y-140.97
X381.0Y-141.478
X381.0Y-141.986
X381.0Y-142.494
X381.0Y-143.002
X381.0Y-143.51
X381.0Y-144.018
X381.0Y-144.526
X381.0Y-145.034
X381.0Y-145.542
X381.0Y-146.05
X381.0Y-146.558
X381.0Y-147.066
X381.0Y-147.574
X381.0Y-148.082
X381.0Y-148.59
X381.0Y-149.098
X381.508Y-129.54
X381.508Y-130.048
X381.508Y-130.556
X381.508Y-131.064
X381.508Y-131.572
X381.508Y-132.08
X381.508Y-132.588
X381.508Y-133.096
X381.508Y-133.604
X381.508Y-134.112
X381.508Y-134.62
X381.508Y-135.128
X381.508Y-135.636
X381.508Y-136.144
X381.508Y-136.652
X381.508Y-137.16
X381.508Y-137.668
X381.508Y-138.176
X381.508Y-138.684
X381.508Y-139.954
X381.508Y-140.462
X381.508Y-140.97
X381.508Y-141.478
X381.508Y-141.986
X381.508Y-142.494
X381.508Y-143.002
X381.508Y-143.51
X381.508Y-144.018
X381.508Y-144.526
X381.508Y-145.034
X381.508Y-145.542
X381.508Y-146.05
X381.508Y-146.558
X381.508Y-147.066
X381.508Y-147.574
X381.508Y-148.082
X381.508Y-148.59
X381.508Y-149.098
X382.016Y-129.54
X382.016Y-130.048
X382.016Y-130.556
X382.016Y-131.064
X382.016Y-131.572
X382.016Y-132.08
X382.016Y-132.588
X382.016Y-133.096
X382.016Y-133.604
X382.016Y-134.112
X382.016Y-134.62
X382.016Y-135.128
X382.016Y-135.636
X382.016Y-136.144
X382.016Y-136.652
X382.016Y-137.16
X382.016Y-137.668
X382.016Y-138.176
X382.016Y-138.684
X382.016Y-139.954
X382.016Y-140.462
X382.016Y-140.97
X382.016Y-141.478
X382.016Y-141.986
X382.016Y-142.494
X382.016Y-143.002
X382.016Y-143.51
X382.016Y-144.018
X382.016Y-144.526
X382.016Y-145.034
X382.016Y-145.542
X382.016Y-146.05
X382.016Y-146.558
X382.016Y-147.066
X382.016Y-147.574
X382.016Y-148.082
X382.016Y-148.59
X382.016Y-149.098
X382.524Y-129.54
X382.524Y-130.048
X382.524Y-130.556
X382.524Y-131.064
X382.524Y-131.572
X382.524Y-132.08
X382.524Y-132.588
X382.524Y-133.096
X382.524Y-133.604
X382.524Y-134.112
X382.524Y-134.62
X382.524Y-135.128
X382.524Y-135.636
X382.524Y-136.144
X382.524Y-136.652
X382.524Y-137.16
X382.524Y-137.668
X382.524Y-138.176
X382.524Y-138.684
X382.524Y-139.954
X382.524Y-140.462
X382.524Y-140.97
X382.524Y-141.478
X382.524Y-141.986
X382.524Y-142.494
X382.524Y-143.002
X382.524Y-143.51
X382.524Y-144.018
X382.524Y-144.526
X382.524Y-145.034
X382.524Y-145.542
X382.524Y-146.05
X382.524Y-146.558
X382.524Y-147.066
X382.524Y-147.574
X382.524Y-148.082
X382.524Y-148.59
X382.524Y-149.098
X383.032Y-129.54
X383.032Y-130.048
X383.032Y-130.556
X383.032Y-131.064
X383.032Y-131.572
X383.032Y-132.08
X383.032Y-132.588
X383.032Y-133.096
X383.032Y-133.604
X383.032Y-134.112
X383.032Y-134.62
X383.032Y-135.128
X383.032Y-135.636
X383.032Y-136.144
X383.032Y-136.652
X383.032Y-137.16
X383.032Y-137.668
X383.032Y-138.176
X383.032Y-138.684
X383.032Y-139.954
X383.032Y-140.462
X383.032Y-140.97
X383.032Y-141.478
X383.032Y-141.986
X383.032Y-142.494
X383.032Y-143.002
X383.032Y-143.51
X383.032Y-144.018
X383.032Y-144.526
X383.032Y-145.034
X383.032Y-145.542
X383.032Y-146.05
X383.032Y-146.558
X383.032Y-147.066
X383.032Y-147.574
X383.032Y-148.082
X383.032Y-148.59
X383.032Y-149.098
X383.54Y-129.54
X383.54Y-130.048
X383.54Y-130.556
X383.54Y-131.064
X383.54Y-131.572
X383.54Y-132.08
X383.54Y-132.588
X383.54Y-133.096
X383.54Y-133.604
X383.54Y-134.112
X383.54Y-134.62
X383.54Y-135.128
X383.54Y-135.636
X383.54Y-136.144
X383.54Y-136.652
X383.54Y-137.16
X383.54Y-137.668
X383.54Y-138.176
X383.54Y-138.684
X383.54Y-139.954
X383.54Y-140.462
X383.54Y-140.97
X383.54Y-141.478
X383.54Y-141.986
X383.54Y-142.494
X383.54Y-143.002
X383.54Y-143.51
X383.54Y-144.018
X383.54Y-144.526
X383.54Y-145.034
X383.54Y-145.542
X383.54Y-146.05
X383.54Y-146.558
X383.54Y-147.066
X383.54Y-147.574
X383.54Y-148.082
X383.54Y-148.59
X383.54Y-149.098
X384.048Y-129.54
X384.048Y-130.048
X384.048Y-130.556
X384.048Y-131.064
X384.048Y-131.572
X384.048Y-132.08
X384.048Y-132.588
X384.048Y-133.096
X384.048Y-133.604
X384.048Y-134.112
X384.048Y-134.62
X384.048Y-135.128
X384.048Y-135.636
X384.048Y-136.144
X384.048Y-136.652
X384.048Y-137.16
X384.048Y-137.668
X384.048Y-138.176
X384.048Y-138.684
X384.048Y-139.954
X384.048Y-140.462
X384.048Y-140.97
X384.048Y-141.478
X384.048Y-141.986
X384.048Y-142.494
X384.048Y-143.002
X384.048Y-143.51
X384.048Y-144.018
X384.048Y-144.526
X384.048Y-145.034
X384.048Y-145.542
X384.048Y-146.05
X384.048Y-146.558
X384.048Y-147.066
X384.048Y-147.574
X384.048Y-148.082
X384.048Y-148.59
X384.048Y-149.098
T2
X269.24Y-127.508
X269.24Y-129.508
X269.24Y-131.508
X269.24Y-133.508
X269.24Y-135.508
X269.24Y-137.508
X269.24Y-139.508
X269.24Y-141.508
X269.24Y-143.508
X269.24Y-145.508
X269.24Y-147.508
X316.992Y-159.354
X316.992Y-161.354
X316.992Y-163.354
X316.992Y-165.354
X345.44Y-157.48
X345.44Y-159.48
X345.44Y-161.48
X345.44Y-163.48
X345.44Y-165.48
T3
X353.06Y-118.872
X353.06Y-159.766
X358.14Y-118.872
X358.14Y-159.766
X364.744Y-118.872
X364.744Y-159.766
X369.824Y-118.872
X369.824Y-159.766
X376.428Y-118.872
X376.428Y-159.766
X381.508Y-118.872
X381.508Y-159.766
T4
X264.922Y-112.776
X264.922Y-165.354
X355.84Y-164.766
X361.188Y-164.846
X367.284Y-113.538
X372.11Y-164.846
X381.508Y-112.776
X381.508Y-165.354
T0
M30
