G04 #@! TF.GenerationSoftware,KiCad,Pcbnew,(5.1.10)-1*
G04 #@! TF.CreationDate,2021-09-07T10:06:12+02:00*
G04 #@! TF.ProjectId,GatzBMS,4761747a-424d-4532-9e6b-696361645f70,rev?*
G04 #@! TF.SameCoordinates,Original*
G04 #@! TF.FileFunction,Soldermask,Top*
G04 #@! TF.FilePolarity,Negative*
%FSLAX46Y46*%
G04 Gerber Fmt 4.6, Leading zero omitted, Abs format (unit mm)*
G04 Created by KiCad (PCBNEW (5.1.10)-1) date 2021-09-07 10:06:12*
%MOMM*%
%LPD*%
G01*
G04 APERTURE LIST*
%ADD10O,1.750000X1.200000*%
%ADD11C,5.700000*%
%ADD12C,3.600000*%
%ADD13R,3.500000X1.800000*%
%ADD14R,11.000000X10.000000*%
%ADD15R,2.500000X2.500000*%
%ADD16O,2.500000X2.500000*%
%ADD17R,1.500000X1.780000*%
%ADD18R,0.900000X0.800000*%
%ADD19R,0.800000X2.500000*%
%ADD20R,3.000000X0.800000*%
%ADD21R,2.500000X0.800000*%
%ADD22C,0.100000*%
%ADD23R,1.300000X0.900000*%
%ADD24R,1.300000X1.550000*%
%ADD25R,0.600000X0.700000*%
%ADD26C,0.254000*%
G04 APERTURE END LIST*
G36*
G01*
X346056000Y-126295999D02*
X346056000Y-127196001D01*
G75*
G02*
X345806001Y-127446000I-249999J0D01*
G01*
X345105999Y-127446000D01*
G75*
G02*
X344856000Y-127196001I0J249999D01*
G01*
X344856000Y-126295999D01*
G75*
G02*
X345105999Y-126046000I249999J0D01*
G01*
X345806001Y-126046000D01*
G75*
G02*
X346056000Y-126295999I0J-249999D01*
G01*
G37*
G36*
G01*
X348056000Y-126295999D02*
X348056000Y-127196001D01*
G75*
G02*
X347806001Y-127446000I-249999J0D01*
G01*
X347105999Y-127446000D01*
G75*
G02*
X346856000Y-127196001I0J249999D01*
G01*
X346856000Y-126295999D01*
G75*
G02*
X347105999Y-126046000I249999J0D01*
G01*
X347806001Y-126046000D01*
G75*
G02*
X348056000Y-126295999I0J-249999D01*
G01*
G37*
G36*
G01*
X346006000Y-128303000D02*
X346006000Y-129253000D01*
G75*
G02*
X345756000Y-129503000I-250000J0D01*
G01*
X345081000Y-129503000D01*
G75*
G02*
X344831000Y-129253000I0J250000D01*
G01*
X344831000Y-128303000D01*
G75*
G02*
X345081000Y-128053000I250000J0D01*
G01*
X345756000Y-128053000D01*
G75*
G02*
X346006000Y-128303000I0J-250000D01*
G01*
G37*
G36*
G01*
X348081000Y-128303000D02*
X348081000Y-129253000D01*
G75*
G02*
X347831000Y-129503000I-250000J0D01*
G01*
X347156000Y-129503000D01*
G75*
G02*
X346906000Y-129253000I0J250000D01*
G01*
X346906000Y-128303000D01*
G75*
G02*
X347156000Y-128053000I250000J0D01*
G01*
X347831000Y-128053000D01*
G75*
G02*
X348081000Y-128303000I0J-250000D01*
G01*
G37*
D10*
X345440000Y-157480000D03*
X345440000Y-159480000D03*
X345440000Y-161480000D03*
X345440000Y-163480000D03*
G36*
G01*
X346065001Y-166080000D02*
X344814999Y-166080000D01*
G75*
G02*
X344565000Y-165830001I0J249999D01*
G01*
X344565000Y-165129999D01*
G75*
G02*
X344814999Y-164880000I249999J0D01*
G01*
X346065001Y-164880000D01*
G75*
G02*
X346315000Y-165129999I0J-249999D01*
G01*
X346315000Y-165830001D01*
G75*
G02*
X346065001Y-166080000I-249999J0D01*
G01*
G37*
D11*
X381508000Y-165354000D03*
D12*
X381508000Y-165354000D03*
D11*
X381508000Y-112776000D03*
D12*
X381508000Y-112776000D03*
D11*
X264922000Y-165354000D03*
D12*
X264922000Y-165354000D03*
D11*
X264922000Y-112776000D03*
D12*
X264922000Y-112776000D03*
G36*
G01*
X346006000Y-138209000D02*
X346006000Y-139159000D01*
G75*
G02*
X345756000Y-139409000I-250000J0D01*
G01*
X345081000Y-139409000D01*
G75*
G02*
X344831000Y-139159000I0J250000D01*
G01*
X344831000Y-138209000D01*
G75*
G02*
X345081000Y-137959000I250000J0D01*
G01*
X345756000Y-137959000D01*
G75*
G02*
X346006000Y-138209000I0J-250000D01*
G01*
G37*
G36*
G01*
X348081000Y-138209000D02*
X348081000Y-139159000D01*
G75*
G02*
X347831000Y-139409000I-250000J0D01*
G01*
X347156000Y-139409000D01*
G75*
G02*
X346906000Y-139159000I0J250000D01*
G01*
X346906000Y-138209000D01*
G75*
G02*
X347156000Y-137959000I250000J0D01*
G01*
X347831000Y-137959000D01*
G75*
G02*
X348081000Y-138209000I0J-250000D01*
G01*
G37*
G36*
G01*
X346856000Y-143198001D02*
X346856000Y-142297999D01*
G75*
G02*
X347105999Y-142048000I249999J0D01*
G01*
X347806001Y-142048000D01*
G75*
G02*
X348056000Y-142297999I0J-249999D01*
G01*
X348056000Y-143198001D01*
G75*
G02*
X347806001Y-143448000I-249999J0D01*
G01*
X347105999Y-143448000D01*
G75*
G02*
X346856000Y-143198001I0J249999D01*
G01*
G37*
G36*
G01*
X344856000Y-143198001D02*
X344856000Y-142297999D01*
G75*
G02*
X345105999Y-142048000I249999J0D01*
G01*
X345806001Y-142048000D01*
G75*
G02*
X346056000Y-142297999I0J-249999D01*
G01*
X346056000Y-143198001D01*
G75*
G02*
X345806001Y-143448000I-249999J0D01*
G01*
X345105999Y-143448000D01*
G75*
G02*
X344856000Y-143198001I0J249999D01*
G01*
G37*
G36*
G01*
X346056000Y-140265999D02*
X346056000Y-141166001D01*
G75*
G02*
X345806001Y-141416000I-249999J0D01*
G01*
X345105999Y-141416000D01*
G75*
G02*
X344856000Y-141166001I0J249999D01*
G01*
X344856000Y-140265999D01*
G75*
G02*
X345105999Y-140016000I249999J0D01*
G01*
X345806001Y-140016000D01*
G75*
G02*
X346056000Y-140265999I0J-249999D01*
G01*
G37*
G36*
G01*
X348056000Y-140265999D02*
X348056000Y-141166001D01*
G75*
G02*
X347806001Y-141416000I-249999J0D01*
G01*
X347105999Y-141416000D01*
G75*
G02*
X346856000Y-141166001I0J249999D01*
G01*
X346856000Y-140265999D01*
G75*
G02*
X347105999Y-140016000I249999J0D01*
G01*
X347806001Y-140016000D01*
G75*
G02*
X348056000Y-140265999I0J-249999D01*
G01*
G37*
D11*
X355840000Y-164766000D03*
D12*
X355840000Y-164766000D03*
D13*
X369276000Y-162560000D03*
X364276000Y-162560000D03*
X369276000Y-167132000D03*
X364276000Y-167132000D03*
D11*
X361188000Y-164846000D03*
D12*
X361188000Y-164846000D03*
D14*
X355600000Y-134112000D03*
D15*
X358140000Y-118872000D03*
D16*
X353060000Y-118872000D03*
D14*
X378968000Y-134112000D03*
D15*
X381508000Y-118872000D03*
D16*
X376428000Y-118872000D03*
D14*
X367284000Y-134112000D03*
D15*
X369824000Y-118872000D03*
D16*
X364744000Y-118872000D03*
G36*
G01*
X349866000Y-111817999D02*
X349866000Y-112718001D01*
G75*
G02*
X349616001Y-112968000I-249999J0D01*
G01*
X348915999Y-112968000D01*
G75*
G02*
X348666000Y-112718001I0J249999D01*
G01*
X348666000Y-111817999D01*
G75*
G02*
X348915999Y-111568000I249999J0D01*
G01*
X349616001Y-111568000D01*
G75*
G02*
X349866000Y-111817999I0J-249999D01*
G01*
G37*
G36*
G01*
X351866000Y-111817999D02*
X351866000Y-112718001D01*
G75*
G02*
X351616001Y-112968000I-249999J0D01*
G01*
X350915999Y-112968000D01*
G75*
G02*
X350666000Y-112718001I0J249999D01*
G01*
X350666000Y-111817999D01*
G75*
G02*
X350915999Y-111568000I249999J0D01*
G01*
X351616001Y-111568000D01*
G75*
G02*
X351866000Y-111817999I0J-249999D01*
G01*
G37*
G36*
G01*
X346906000Y-123411000D02*
X346906000Y-122461000D01*
G75*
G02*
X347156000Y-122211000I250000J0D01*
G01*
X347656000Y-122211000D01*
G75*
G02*
X347906000Y-122461000I0J-250000D01*
G01*
X347906000Y-123411000D01*
G75*
G02*
X347656000Y-123661000I-250000J0D01*
G01*
X347156000Y-123661000D01*
G75*
G02*
X346906000Y-123411000I0J250000D01*
G01*
G37*
G36*
G01*
X345006000Y-123411000D02*
X345006000Y-122461000D01*
G75*
G02*
X345256000Y-122211000I250000J0D01*
G01*
X345756000Y-122211000D01*
G75*
G02*
X346006000Y-122461000I0J-250000D01*
G01*
X346006000Y-123411000D01*
G75*
G02*
X345756000Y-123661000I-250000J0D01*
G01*
X345256000Y-123661000D01*
G75*
G02*
X345006000Y-123411000I0J250000D01*
G01*
G37*
D14*
X355600000Y-144526000D03*
D15*
X353060000Y-159766000D03*
D16*
X358140000Y-159766000D03*
G36*
G01*
X344989999Y-131972000D02*
X345890001Y-131972000D01*
G75*
G02*
X346140000Y-132221999I0J-249999D01*
G01*
X346140000Y-132922001D01*
G75*
G02*
X345890001Y-133172000I-249999J0D01*
G01*
X344989999Y-133172000D01*
G75*
G02*
X344740000Y-132922001I0J249999D01*
G01*
X344740000Y-132221999D01*
G75*
G02*
X344989999Y-131972000I249999J0D01*
G01*
G37*
G36*
G01*
X344989999Y-129972000D02*
X345890001Y-129972000D01*
G75*
G02*
X346140000Y-130221999I0J-249999D01*
G01*
X346140000Y-130922001D01*
G75*
G02*
X345890001Y-131172000I-249999J0D01*
G01*
X344989999Y-131172000D01*
G75*
G02*
X344740000Y-130922001I0J249999D01*
G01*
X344740000Y-130221999D01*
G75*
G02*
X344989999Y-129972000I249999J0D01*
G01*
G37*
D17*
X303469000Y-166370000D03*
X293939000Y-163830000D03*
X303469000Y-163830000D03*
X293939000Y-166370000D03*
X293939000Y-160528000D03*
X303469000Y-157988000D03*
X293939000Y-157988000D03*
X303469000Y-160528000D03*
X293939000Y-154686000D03*
X303469000Y-152146000D03*
X293939000Y-152146000D03*
X303469000Y-154686000D03*
X293939000Y-148844000D03*
X303469000Y-146304000D03*
X293939000Y-146304000D03*
X303469000Y-148844000D03*
X293939000Y-143002000D03*
X303469000Y-140462000D03*
X293939000Y-140462000D03*
X303469000Y-143002000D03*
X293939000Y-137160000D03*
X303469000Y-134620000D03*
X293939000Y-134620000D03*
X303469000Y-137160000D03*
X293939000Y-131318000D03*
X303469000Y-128778000D03*
X293939000Y-128778000D03*
X303469000Y-131318000D03*
X293939000Y-125476000D03*
X303469000Y-122936000D03*
X293939000Y-122936000D03*
X303469000Y-125476000D03*
X293939000Y-119634000D03*
X303469000Y-117094000D03*
X293939000Y-117094000D03*
X303469000Y-119634000D03*
X293939000Y-113792000D03*
X303469000Y-111252000D03*
X293939000Y-111252000D03*
X303469000Y-113792000D03*
G36*
G01*
X279714000Y-166271001D02*
X279714000Y-163420999D01*
G75*
G02*
X279963999Y-163171000I249999J0D01*
G01*
X280864001Y-163171000D01*
G75*
G02*
X281114000Y-163420999I0J-249999D01*
G01*
X281114000Y-166271001D01*
G75*
G02*
X280864001Y-166521000I-249999J0D01*
G01*
X279963999Y-166521000D01*
G75*
G02*
X279714000Y-166271001I0J249999D01*
G01*
G37*
G36*
G01*
X285814000Y-166271001D02*
X285814000Y-163420999D01*
G75*
G02*
X286063999Y-163171000I249999J0D01*
G01*
X286964001Y-163171000D01*
G75*
G02*
X287214000Y-163420999I0J-249999D01*
G01*
X287214000Y-166271001D01*
G75*
G02*
X286964001Y-166521000I-249999J0D01*
G01*
X286063999Y-166521000D01*
G75*
G02*
X285814000Y-166271001I0J249999D01*
G01*
G37*
G36*
G01*
X271586000Y-166271001D02*
X271586000Y-163420999D01*
G75*
G02*
X271835999Y-163171000I249999J0D01*
G01*
X272736001Y-163171000D01*
G75*
G02*
X272986000Y-163420999I0J-249999D01*
G01*
X272986000Y-166271001D01*
G75*
G02*
X272736001Y-166521000I-249999J0D01*
G01*
X271835999Y-166521000D01*
G75*
G02*
X271586000Y-166271001I0J249999D01*
G01*
G37*
G36*
G01*
X277686000Y-166271001D02*
X277686000Y-163420999D01*
G75*
G02*
X277935999Y-163171000I249999J0D01*
G01*
X278836001Y-163171000D01*
G75*
G02*
X279086000Y-163420999I0J-249999D01*
G01*
X279086000Y-166271001D01*
G75*
G02*
X278836001Y-166521000I-249999J0D01*
G01*
X277935999Y-166521000D01*
G75*
G02*
X277686000Y-166271001I0J249999D01*
G01*
G37*
G36*
G01*
X292296001Y-165684000D02*
X291395999Y-165684000D01*
G75*
G02*
X291146000Y-165434001I0J249999D01*
G01*
X291146000Y-164733999D01*
G75*
G02*
X291395999Y-164484000I249999J0D01*
G01*
X292296001Y-164484000D01*
G75*
G02*
X292546000Y-164733999I0J-249999D01*
G01*
X292546000Y-165434001D01*
G75*
G02*
X292296001Y-165684000I-249999J0D01*
G01*
G37*
G36*
G01*
X292296001Y-163684000D02*
X291395999Y-163684000D01*
G75*
G02*
X291146000Y-163434001I0J249999D01*
G01*
X291146000Y-162733999D01*
G75*
G02*
X291395999Y-162484000I249999J0D01*
G01*
X292296001Y-162484000D01*
G75*
G02*
X292546000Y-162733999I0J-249999D01*
G01*
X292546000Y-163434001D01*
G75*
G02*
X292296001Y-163684000I-249999J0D01*
G01*
G37*
G36*
G01*
X308178000Y-166427999D02*
X308178000Y-167328001D01*
G75*
G02*
X307928001Y-167578000I-249999J0D01*
G01*
X307227999Y-167578000D01*
G75*
G02*
X306978000Y-167328001I0J249999D01*
G01*
X306978000Y-166427999D01*
G75*
G02*
X307227999Y-166178000I249999J0D01*
G01*
X307928001Y-166178000D01*
G75*
G02*
X308178000Y-166427999I0J-249999D01*
G01*
G37*
G36*
G01*
X306178000Y-166427999D02*
X306178000Y-167328001D01*
G75*
G02*
X305928001Y-167578000I-249999J0D01*
G01*
X305227999Y-167578000D01*
G75*
G02*
X304978000Y-167328001I0J249999D01*
G01*
X304978000Y-166427999D01*
G75*
G02*
X305227999Y-166178000I249999J0D01*
G01*
X305928001Y-166178000D01*
G75*
G02*
X306178000Y-166427999I0J-249999D01*
G01*
G37*
G36*
G01*
X309822001Y-165684000D02*
X308921999Y-165684000D01*
G75*
G02*
X308672000Y-165434001I0J249999D01*
G01*
X308672000Y-164733999D01*
G75*
G02*
X308921999Y-164484000I249999J0D01*
G01*
X309822001Y-164484000D01*
G75*
G02*
X310072000Y-164733999I0J-249999D01*
G01*
X310072000Y-165434001D01*
G75*
G02*
X309822001Y-165684000I-249999J0D01*
G01*
G37*
G36*
G01*
X309822001Y-163684000D02*
X308921999Y-163684000D01*
G75*
G02*
X308672000Y-163434001I0J249999D01*
G01*
X308672000Y-162733999D01*
G75*
G02*
X308921999Y-162484000I249999J0D01*
G01*
X309822001Y-162484000D01*
G75*
G02*
X310072000Y-162733999I0J-249999D01*
G01*
X310072000Y-163434001D01*
G75*
G02*
X309822001Y-163684000I-249999J0D01*
G01*
G37*
G36*
G01*
X308788000Y-167328001D02*
X308788000Y-166427999D01*
G75*
G02*
X309037999Y-166178000I249999J0D01*
G01*
X309738001Y-166178000D01*
G75*
G02*
X309988000Y-166427999I0J-249999D01*
G01*
X309988000Y-167328001D01*
G75*
G02*
X309738001Y-167578000I-249999J0D01*
G01*
X309037999Y-167578000D01*
G75*
G02*
X308788000Y-167328001I0J249999D01*
G01*
G37*
G36*
G01*
X310788000Y-167328001D02*
X310788000Y-166427999D01*
G75*
G02*
X311037999Y-166178000I249999J0D01*
G01*
X311738001Y-166178000D01*
G75*
G02*
X311988000Y-166427999I0J-249999D01*
G01*
X311988000Y-167328001D01*
G75*
G02*
X311738001Y-167578000I-249999J0D01*
G01*
X311037999Y-167578000D01*
G75*
G02*
X310788000Y-167328001I0J249999D01*
G01*
G37*
G36*
G01*
X285814000Y-160429001D02*
X285814000Y-157578999D01*
G75*
G02*
X286063999Y-157329000I249999J0D01*
G01*
X286964001Y-157329000D01*
G75*
G02*
X287214000Y-157578999I0J-249999D01*
G01*
X287214000Y-160429001D01*
G75*
G02*
X286964001Y-160679000I-249999J0D01*
G01*
X286063999Y-160679000D01*
G75*
G02*
X285814000Y-160429001I0J249999D01*
G01*
G37*
G36*
G01*
X279714000Y-160429001D02*
X279714000Y-157578999D01*
G75*
G02*
X279963999Y-157329000I249999J0D01*
G01*
X280864001Y-157329000D01*
G75*
G02*
X281114000Y-157578999I0J-249999D01*
G01*
X281114000Y-160429001D01*
G75*
G02*
X280864001Y-160679000I-249999J0D01*
G01*
X279963999Y-160679000D01*
G75*
G02*
X279714000Y-160429001I0J249999D01*
G01*
G37*
G36*
G01*
X277686000Y-160429001D02*
X277686000Y-157578999D01*
G75*
G02*
X277935999Y-157329000I249999J0D01*
G01*
X278836001Y-157329000D01*
G75*
G02*
X279086000Y-157578999I0J-249999D01*
G01*
X279086000Y-160429001D01*
G75*
G02*
X278836001Y-160679000I-249999J0D01*
G01*
X277935999Y-160679000D01*
G75*
G02*
X277686000Y-160429001I0J249999D01*
G01*
G37*
G36*
G01*
X271586000Y-160429001D02*
X271586000Y-157578999D01*
G75*
G02*
X271835999Y-157329000I249999J0D01*
G01*
X272736001Y-157329000D01*
G75*
G02*
X272986000Y-157578999I0J-249999D01*
G01*
X272986000Y-160429001D01*
G75*
G02*
X272736001Y-160679000I-249999J0D01*
G01*
X271835999Y-160679000D01*
G75*
G02*
X271586000Y-160429001I0J249999D01*
G01*
G37*
G36*
G01*
X292296001Y-157842000D02*
X291395999Y-157842000D01*
G75*
G02*
X291146000Y-157592001I0J249999D01*
G01*
X291146000Y-156891999D01*
G75*
G02*
X291395999Y-156642000I249999J0D01*
G01*
X292296001Y-156642000D01*
G75*
G02*
X292546000Y-156891999I0J-249999D01*
G01*
X292546000Y-157592001D01*
G75*
G02*
X292296001Y-157842000I-249999J0D01*
G01*
G37*
G36*
G01*
X292296001Y-159842000D02*
X291395999Y-159842000D01*
G75*
G02*
X291146000Y-159592001I0J249999D01*
G01*
X291146000Y-158891999D01*
G75*
G02*
X291395999Y-158642000I249999J0D01*
G01*
X292296001Y-158642000D01*
G75*
G02*
X292546000Y-158891999I0J-249999D01*
G01*
X292546000Y-159592001D01*
G75*
G02*
X292296001Y-159842000I-249999J0D01*
G01*
G37*
G36*
G01*
X306178000Y-160585999D02*
X306178000Y-161486001D01*
G75*
G02*
X305928001Y-161736000I-249999J0D01*
G01*
X305227999Y-161736000D01*
G75*
G02*
X304978000Y-161486001I0J249999D01*
G01*
X304978000Y-160585999D01*
G75*
G02*
X305227999Y-160336000I249999J0D01*
G01*
X305928001Y-160336000D01*
G75*
G02*
X306178000Y-160585999I0J-249999D01*
G01*
G37*
G36*
G01*
X308178000Y-160585999D02*
X308178000Y-161486001D01*
G75*
G02*
X307928001Y-161736000I-249999J0D01*
G01*
X307227999Y-161736000D01*
G75*
G02*
X306978000Y-161486001I0J249999D01*
G01*
X306978000Y-160585999D01*
G75*
G02*
X307227999Y-160336000I249999J0D01*
G01*
X307928001Y-160336000D01*
G75*
G02*
X308178000Y-160585999I0J-249999D01*
G01*
G37*
G36*
G01*
X309822001Y-157842000D02*
X308921999Y-157842000D01*
G75*
G02*
X308672000Y-157592001I0J249999D01*
G01*
X308672000Y-156891999D01*
G75*
G02*
X308921999Y-156642000I249999J0D01*
G01*
X309822001Y-156642000D01*
G75*
G02*
X310072000Y-156891999I0J-249999D01*
G01*
X310072000Y-157592001D01*
G75*
G02*
X309822001Y-157842000I-249999J0D01*
G01*
G37*
G36*
G01*
X309822001Y-159842000D02*
X308921999Y-159842000D01*
G75*
G02*
X308672000Y-159592001I0J249999D01*
G01*
X308672000Y-158891999D01*
G75*
G02*
X308921999Y-158642000I249999J0D01*
G01*
X309822001Y-158642000D01*
G75*
G02*
X310072000Y-158891999I0J-249999D01*
G01*
X310072000Y-159592001D01*
G75*
G02*
X309822001Y-159842000I-249999J0D01*
G01*
G37*
G36*
G01*
X310788000Y-161486001D02*
X310788000Y-160585999D01*
G75*
G02*
X311037999Y-160336000I249999J0D01*
G01*
X311738001Y-160336000D01*
G75*
G02*
X311988000Y-160585999I0J-249999D01*
G01*
X311988000Y-161486001D01*
G75*
G02*
X311738001Y-161736000I-249999J0D01*
G01*
X311037999Y-161736000D01*
G75*
G02*
X310788000Y-161486001I0J249999D01*
G01*
G37*
G36*
G01*
X308788000Y-161486001D02*
X308788000Y-160585999D01*
G75*
G02*
X309037999Y-160336000I249999J0D01*
G01*
X309738001Y-160336000D01*
G75*
G02*
X309988000Y-160585999I0J-249999D01*
G01*
X309988000Y-161486001D01*
G75*
G02*
X309738001Y-161736000I-249999J0D01*
G01*
X309037999Y-161736000D01*
G75*
G02*
X308788000Y-161486001I0J249999D01*
G01*
G37*
G36*
G01*
X285814000Y-154587001D02*
X285814000Y-151736999D01*
G75*
G02*
X286063999Y-151487000I249999J0D01*
G01*
X286964001Y-151487000D01*
G75*
G02*
X287214000Y-151736999I0J-249999D01*
G01*
X287214000Y-154587001D01*
G75*
G02*
X286964001Y-154837000I-249999J0D01*
G01*
X286063999Y-154837000D01*
G75*
G02*
X285814000Y-154587001I0J249999D01*
G01*
G37*
G36*
G01*
X279714000Y-154587001D02*
X279714000Y-151736999D01*
G75*
G02*
X279963999Y-151487000I249999J0D01*
G01*
X280864001Y-151487000D01*
G75*
G02*
X281114000Y-151736999I0J-249999D01*
G01*
X281114000Y-154587001D01*
G75*
G02*
X280864001Y-154837000I-249999J0D01*
G01*
X279963999Y-154837000D01*
G75*
G02*
X279714000Y-154587001I0J249999D01*
G01*
G37*
G36*
G01*
X277686000Y-154587001D02*
X277686000Y-151736999D01*
G75*
G02*
X277935999Y-151487000I249999J0D01*
G01*
X278836001Y-151487000D01*
G75*
G02*
X279086000Y-151736999I0J-249999D01*
G01*
X279086000Y-154587001D01*
G75*
G02*
X278836001Y-154837000I-249999J0D01*
G01*
X277935999Y-154837000D01*
G75*
G02*
X277686000Y-154587001I0J249999D01*
G01*
G37*
G36*
G01*
X271586000Y-154587001D02*
X271586000Y-151736999D01*
G75*
G02*
X271835999Y-151487000I249999J0D01*
G01*
X272736001Y-151487000D01*
G75*
G02*
X272986000Y-151736999I0J-249999D01*
G01*
X272986000Y-154587001D01*
G75*
G02*
X272736001Y-154837000I-249999J0D01*
G01*
X271835999Y-154837000D01*
G75*
G02*
X271586000Y-154587001I0J249999D01*
G01*
G37*
G36*
G01*
X292296001Y-152000000D02*
X291395999Y-152000000D01*
G75*
G02*
X291146000Y-151750001I0J249999D01*
G01*
X291146000Y-151049999D01*
G75*
G02*
X291395999Y-150800000I249999J0D01*
G01*
X292296001Y-150800000D01*
G75*
G02*
X292546000Y-151049999I0J-249999D01*
G01*
X292546000Y-151750001D01*
G75*
G02*
X292296001Y-152000000I-249999J0D01*
G01*
G37*
G36*
G01*
X292296001Y-154000000D02*
X291395999Y-154000000D01*
G75*
G02*
X291146000Y-153750001I0J249999D01*
G01*
X291146000Y-153049999D01*
G75*
G02*
X291395999Y-152800000I249999J0D01*
G01*
X292296001Y-152800000D01*
G75*
G02*
X292546000Y-153049999I0J-249999D01*
G01*
X292546000Y-153750001D01*
G75*
G02*
X292296001Y-154000000I-249999J0D01*
G01*
G37*
G36*
G01*
X306178000Y-154743999D02*
X306178000Y-155644001D01*
G75*
G02*
X305928001Y-155894000I-249999J0D01*
G01*
X305227999Y-155894000D01*
G75*
G02*
X304978000Y-155644001I0J249999D01*
G01*
X304978000Y-154743999D01*
G75*
G02*
X305227999Y-154494000I249999J0D01*
G01*
X305928001Y-154494000D01*
G75*
G02*
X306178000Y-154743999I0J-249999D01*
G01*
G37*
G36*
G01*
X308178000Y-154743999D02*
X308178000Y-155644001D01*
G75*
G02*
X307928001Y-155894000I-249999J0D01*
G01*
X307227999Y-155894000D01*
G75*
G02*
X306978000Y-155644001I0J249999D01*
G01*
X306978000Y-154743999D01*
G75*
G02*
X307227999Y-154494000I249999J0D01*
G01*
X307928001Y-154494000D01*
G75*
G02*
X308178000Y-154743999I0J-249999D01*
G01*
G37*
G36*
G01*
X309822001Y-152000000D02*
X308921999Y-152000000D01*
G75*
G02*
X308672000Y-151750001I0J249999D01*
G01*
X308672000Y-151049999D01*
G75*
G02*
X308921999Y-150800000I249999J0D01*
G01*
X309822001Y-150800000D01*
G75*
G02*
X310072000Y-151049999I0J-249999D01*
G01*
X310072000Y-151750001D01*
G75*
G02*
X309822001Y-152000000I-249999J0D01*
G01*
G37*
G36*
G01*
X309822001Y-154000000D02*
X308921999Y-154000000D01*
G75*
G02*
X308672000Y-153750001I0J249999D01*
G01*
X308672000Y-153049999D01*
G75*
G02*
X308921999Y-152800000I249999J0D01*
G01*
X309822001Y-152800000D01*
G75*
G02*
X310072000Y-153049999I0J-249999D01*
G01*
X310072000Y-153750001D01*
G75*
G02*
X309822001Y-154000000I-249999J0D01*
G01*
G37*
G36*
G01*
X310788000Y-155644001D02*
X310788000Y-154743999D01*
G75*
G02*
X311037999Y-154494000I249999J0D01*
G01*
X311738001Y-154494000D01*
G75*
G02*
X311988000Y-154743999I0J-249999D01*
G01*
X311988000Y-155644001D01*
G75*
G02*
X311738001Y-155894000I-249999J0D01*
G01*
X311037999Y-155894000D01*
G75*
G02*
X310788000Y-155644001I0J249999D01*
G01*
G37*
G36*
G01*
X308788000Y-155644001D02*
X308788000Y-154743999D01*
G75*
G02*
X309037999Y-154494000I249999J0D01*
G01*
X309738001Y-154494000D01*
G75*
G02*
X309988000Y-154743999I0J-249999D01*
G01*
X309988000Y-155644001D01*
G75*
G02*
X309738001Y-155894000I-249999J0D01*
G01*
X309037999Y-155894000D01*
G75*
G02*
X308788000Y-155644001I0J249999D01*
G01*
G37*
G36*
G01*
X285814000Y-148745001D02*
X285814000Y-145894999D01*
G75*
G02*
X286063999Y-145645000I249999J0D01*
G01*
X286964001Y-145645000D01*
G75*
G02*
X287214000Y-145894999I0J-249999D01*
G01*
X287214000Y-148745001D01*
G75*
G02*
X286964001Y-148995000I-249999J0D01*
G01*
X286063999Y-148995000D01*
G75*
G02*
X285814000Y-148745001I0J249999D01*
G01*
G37*
G36*
G01*
X279714000Y-148745001D02*
X279714000Y-145894999D01*
G75*
G02*
X279963999Y-145645000I249999J0D01*
G01*
X280864001Y-145645000D01*
G75*
G02*
X281114000Y-145894999I0J-249999D01*
G01*
X281114000Y-148745001D01*
G75*
G02*
X280864001Y-148995000I-249999J0D01*
G01*
X279963999Y-148995000D01*
G75*
G02*
X279714000Y-148745001I0J249999D01*
G01*
G37*
G36*
G01*
X277686000Y-148745001D02*
X277686000Y-145894999D01*
G75*
G02*
X277935999Y-145645000I249999J0D01*
G01*
X278836001Y-145645000D01*
G75*
G02*
X279086000Y-145894999I0J-249999D01*
G01*
X279086000Y-148745001D01*
G75*
G02*
X278836001Y-148995000I-249999J0D01*
G01*
X277935999Y-148995000D01*
G75*
G02*
X277686000Y-148745001I0J249999D01*
G01*
G37*
G36*
G01*
X271586000Y-148745001D02*
X271586000Y-145894999D01*
G75*
G02*
X271835999Y-145645000I249999J0D01*
G01*
X272736001Y-145645000D01*
G75*
G02*
X272986000Y-145894999I0J-249999D01*
G01*
X272986000Y-148745001D01*
G75*
G02*
X272736001Y-148995000I-249999J0D01*
G01*
X271835999Y-148995000D01*
G75*
G02*
X271586000Y-148745001I0J249999D01*
G01*
G37*
G36*
G01*
X292296001Y-146158000D02*
X291395999Y-146158000D01*
G75*
G02*
X291146000Y-145908001I0J249999D01*
G01*
X291146000Y-145207999D01*
G75*
G02*
X291395999Y-144958000I249999J0D01*
G01*
X292296001Y-144958000D01*
G75*
G02*
X292546000Y-145207999I0J-249999D01*
G01*
X292546000Y-145908001D01*
G75*
G02*
X292296001Y-146158000I-249999J0D01*
G01*
G37*
G36*
G01*
X292296001Y-148158000D02*
X291395999Y-148158000D01*
G75*
G02*
X291146000Y-147908001I0J249999D01*
G01*
X291146000Y-147207999D01*
G75*
G02*
X291395999Y-146958000I249999J0D01*
G01*
X292296001Y-146958000D01*
G75*
G02*
X292546000Y-147207999I0J-249999D01*
G01*
X292546000Y-147908001D01*
G75*
G02*
X292296001Y-148158000I-249999J0D01*
G01*
G37*
G36*
G01*
X306178000Y-148901999D02*
X306178000Y-149802001D01*
G75*
G02*
X305928001Y-150052000I-249999J0D01*
G01*
X305227999Y-150052000D01*
G75*
G02*
X304978000Y-149802001I0J249999D01*
G01*
X304978000Y-148901999D01*
G75*
G02*
X305227999Y-148652000I249999J0D01*
G01*
X305928001Y-148652000D01*
G75*
G02*
X306178000Y-148901999I0J-249999D01*
G01*
G37*
G36*
G01*
X308178000Y-148901999D02*
X308178000Y-149802001D01*
G75*
G02*
X307928001Y-150052000I-249999J0D01*
G01*
X307227999Y-150052000D01*
G75*
G02*
X306978000Y-149802001I0J249999D01*
G01*
X306978000Y-148901999D01*
G75*
G02*
X307227999Y-148652000I249999J0D01*
G01*
X307928001Y-148652000D01*
G75*
G02*
X308178000Y-148901999I0J-249999D01*
G01*
G37*
G36*
G01*
X309822001Y-146158000D02*
X308921999Y-146158000D01*
G75*
G02*
X308672000Y-145908001I0J249999D01*
G01*
X308672000Y-145207999D01*
G75*
G02*
X308921999Y-144958000I249999J0D01*
G01*
X309822001Y-144958000D01*
G75*
G02*
X310072000Y-145207999I0J-249999D01*
G01*
X310072000Y-145908001D01*
G75*
G02*
X309822001Y-146158000I-249999J0D01*
G01*
G37*
G36*
G01*
X309822001Y-148158000D02*
X308921999Y-148158000D01*
G75*
G02*
X308672000Y-147908001I0J249999D01*
G01*
X308672000Y-147207999D01*
G75*
G02*
X308921999Y-146958000I249999J0D01*
G01*
X309822001Y-146958000D01*
G75*
G02*
X310072000Y-147207999I0J-249999D01*
G01*
X310072000Y-147908001D01*
G75*
G02*
X309822001Y-148158000I-249999J0D01*
G01*
G37*
G36*
G01*
X310788000Y-149802001D02*
X310788000Y-148901999D01*
G75*
G02*
X311037999Y-148652000I249999J0D01*
G01*
X311738001Y-148652000D01*
G75*
G02*
X311988000Y-148901999I0J-249999D01*
G01*
X311988000Y-149802001D01*
G75*
G02*
X311738001Y-150052000I-249999J0D01*
G01*
X311037999Y-150052000D01*
G75*
G02*
X310788000Y-149802001I0J249999D01*
G01*
G37*
G36*
G01*
X308788000Y-149802001D02*
X308788000Y-148901999D01*
G75*
G02*
X309037999Y-148652000I249999J0D01*
G01*
X309738001Y-148652000D01*
G75*
G02*
X309988000Y-148901999I0J-249999D01*
G01*
X309988000Y-149802001D01*
G75*
G02*
X309738001Y-150052000I-249999J0D01*
G01*
X309037999Y-150052000D01*
G75*
G02*
X308788000Y-149802001I0J249999D01*
G01*
G37*
G36*
G01*
X285814000Y-142903001D02*
X285814000Y-140052999D01*
G75*
G02*
X286063999Y-139803000I249999J0D01*
G01*
X286964001Y-139803000D01*
G75*
G02*
X287214000Y-140052999I0J-249999D01*
G01*
X287214000Y-142903001D01*
G75*
G02*
X286964001Y-143153000I-249999J0D01*
G01*
X286063999Y-143153000D01*
G75*
G02*
X285814000Y-142903001I0J249999D01*
G01*
G37*
G36*
G01*
X279714000Y-142903001D02*
X279714000Y-140052999D01*
G75*
G02*
X279963999Y-139803000I249999J0D01*
G01*
X280864001Y-139803000D01*
G75*
G02*
X281114000Y-140052999I0J-249999D01*
G01*
X281114000Y-142903001D01*
G75*
G02*
X280864001Y-143153000I-249999J0D01*
G01*
X279963999Y-143153000D01*
G75*
G02*
X279714000Y-142903001I0J249999D01*
G01*
G37*
G36*
G01*
X277686000Y-142903001D02*
X277686000Y-140052999D01*
G75*
G02*
X277935999Y-139803000I249999J0D01*
G01*
X278836001Y-139803000D01*
G75*
G02*
X279086000Y-140052999I0J-249999D01*
G01*
X279086000Y-142903001D01*
G75*
G02*
X278836001Y-143153000I-249999J0D01*
G01*
X277935999Y-143153000D01*
G75*
G02*
X277686000Y-142903001I0J249999D01*
G01*
G37*
G36*
G01*
X271586000Y-142903001D02*
X271586000Y-140052999D01*
G75*
G02*
X271835999Y-139803000I249999J0D01*
G01*
X272736001Y-139803000D01*
G75*
G02*
X272986000Y-140052999I0J-249999D01*
G01*
X272986000Y-142903001D01*
G75*
G02*
X272736001Y-143153000I-249999J0D01*
G01*
X271835999Y-143153000D01*
G75*
G02*
X271586000Y-142903001I0J249999D01*
G01*
G37*
G36*
G01*
X292296001Y-140316000D02*
X291395999Y-140316000D01*
G75*
G02*
X291146000Y-140066001I0J249999D01*
G01*
X291146000Y-139365999D01*
G75*
G02*
X291395999Y-139116000I249999J0D01*
G01*
X292296001Y-139116000D01*
G75*
G02*
X292546000Y-139365999I0J-249999D01*
G01*
X292546000Y-140066001D01*
G75*
G02*
X292296001Y-140316000I-249999J0D01*
G01*
G37*
G36*
G01*
X292296001Y-142316000D02*
X291395999Y-142316000D01*
G75*
G02*
X291146000Y-142066001I0J249999D01*
G01*
X291146000Y-141365999D01*
G75*
G02*
X291395999Y-141116000I249999J0D01*
G01*
X292296001Y-141116000D01*
G75*
G02*
X292546000Y-141365999I0J-249999D01*
G01*
X292546000Y-142066001D01*
G75*
G02*
X292296001Y-142316000I-249999J0D01*
G01*
G37*
G36*
G01*
X306178000Y-143059999D02*
X306178000Y-143960001D01*
G75*
G02*
X305928001Y-144210000I-249999J0D01*
G01*
X305227999Y-144210000D01*
G75*
G02*
X304978000Y-143960001I0J249999D01*
G01*
X304978000Y-143059999D01*
G75*
G02*
X305227999Y-142810000I249999J0D01*
G01*
X305928001Y-142810000D01*
G75*
G02*
X306178000Y-143059999I0J-249999D01*
G01*
G37*
G36*
G01*
X308178000Y-143059999D02*
X308178000Y-143960001D01*
G75*
G02*
X307928001Y-144210000I-249999J0D01*
G01*
X307227999Y-144210000D01*
G75*
G02*
X306978000Y-143960001I0J249999D01*
G01*
X306978000Y-143059999D01*
G75*
G02*
X307227999Y-142810000I249999J0D01*
G01*
X307928001Y-142810000D01*
G75*
G02*
X308178000Y-143059999I0J-249999D01*
G01*
G37*
G36*
G01*
X309822001Y-140316000D02*
X308921999Y-140316000D01*
G75*
G02*
X308672000Y-140066001I0J249999D01*
G01*
X308672000Y-139365999D01*
G75*
G02*
X308921999Y-139116000I249999J0D01*
G01*
X309822001Y-139116000D01*
G75*
G02*
X310072000Y-139365999I0J-249999D01*
G01*
X310072000Y-140066001D01*
G75*
G02*
X309822001Y-140316000I-249999J0D01*
G01*
G37*
G36*
G01*
X309822001Y-142316000D02*
X308921999Y-142316000D01*
G75*
G02*
X308672000Y-142066001I0J249999D01*
G01*
X308672000Y-141365999D01*
G75*
G02*
X308921999Y-141116000I249999J0D01*
G01*
X309822001Y-141116000D01*
G75*
G02*
X310072000Y-141365999I0J-249999D01*
G01*
X310072000Y-142066001D01*
G75*
G02*
X309822001Y-142316000I-249999J0D01*
G01*
G37*
G36*
G01*
X310788000Y-143960001D02*
X310788000Y-143059999D01*
G75*
G02*
X311037999Y-142810000I249999J0D01*
G01*
X311738001Y-142810000D01*
G75*
G02*
X311988000Y-143059999I0J-249999D01*
G01*
X311988000Y-143960001D01*
G75*
G02*
X311738001Y-144210000I-249999J0D01*
G01*
X311037999Y-144210000D01*
G75*
G02*
X310788000Y-143960001I0J249999D01*
G01*
G37*
G36*
G01*
X308788000Y-143960001D02*
X308788000Y-143059999D01*
G75*
G02*
X309037999Y-142810000I249999J0D01*
G01*
X309738001Y-142810000D01*
G75*
G02*
X309988000Y-143059999I0J-249999D01*
G01*
X309988000Y-143960001D01*
G75*
G02*
X309738001Y-144210000I-249999J0D01*
G01*
X309037999Y-144210000D01*
G75*
G02*
X308788000Y-143960001I0J249999D01*
G01*
G37*
G36*
G01*
X285814000Y-137061001D02*
X285814000Y-134210999D01*
G75*
G02*
X286063999Y-133961000I249999J0D01*
G01*
X286964001Y-133961000D01*
G75*
G02*
X287214000Y-134210999I0J-249999D01*
G01*
X287214000Y-137061001D01*
G75*
G02*
X286964001Y-137311000I-249999J0D01*
G01*
X286063999Y-137311000D01*
G75*
G02*
X285814000Y-137061001I0J249999D01*
G01*
G37*
G36*
G01*
X279714000Y-137061001D02*
X279714000Y-134210999D01*
G75*
G02*
X279963999Y-133961000I249999J0D01*
G01*
X280864001Y-133961000D01*
G75*
G02*
X281114000Y-134210999I0J-249999D01*
G01*
X281114000Y-137061001D01*
G75*
G02*
X280864001Y-137311000I-249999J0D01*
G01*
X279963999Y-137311000D01*
G75*
G02*
X279714000Y-137061001I0J249999D01*
G01*
G37*
G36*
G01*
X277686000Y-137061001D02*
X277686000Y-134210999D01*
G75*
G02*
X277935999Y-133961000I249999J0D01*
G01*
X278836001Y-133961000D01*
G75*
G02*
X279086000Y-134210999I0J-249999D01*
G01*
X279086000Y-137061001D01*
G75*
G02*
X278836001Y-137311000I-249999J0D01*
G01*
X277935999Y-137311000D01*
G75*
G02*
X277686000Y-137061001I0J249999D01*
G01*
G37*
G36*
G01*
X271586000Y-137061001D02*
X271586000Y-134210999D01*
G75*
G02*
X271835999Y-133961000I249999J0D01*
G01*
X272736001Y-133961000D01*
G75*
G02*
X272986000Y-134210999I0J-249999D01*
G01*
X272986000Y-137061001D01*
G75*
G02*
X272736001Y-137311000I-249999J0D01*
G01*
X271835999Y-137311000D01*
G75*
G02*
X271586000Y-137061001I0J249999D01*
G01*
G37*
G36*
G01*
X292296001Y-134474000D02*
X291395999Y-134474000D01*
G75*
G02*
X291146000Y-134224001I0J249999D01*
G01*
X291146000Y-133523999D01*
G75*
G02*
X291395999Y-133274000I249999J0D01*
G01*
X292296001Y-133274000D01*
G75*
G02*
X292546000Y-133523999I0J-249999D01*
G01*
X292546000Y-134224001D01*
G75*
G02*
X292296001Y-134474000I-249999J0D01*
G01*
G37*
G36*
G01*
X292296001Y-136474000D02*
X291395999Y-136474000D01*
G75*
G02*
X291146000Y-136224001I0J249999D01*
G01*
X291146000Y-135523999D01*
G75*
G02*
X291395999Y-135274000I249999J0D01*
G01*
X292296001Y-135274000D01*
G75*
G02*
X292546000Y-135523999I0J-249999D01*
G01*
X292546000Y-136224001D01*
G75*
G02*
X292296001Y-136474000I-249999J0D01*
G01*
G37*
G36*
G01*
X306178000Y-137217999D02*
X306178000Y-138118001D01*
G75*
G02*
X305928001Y-138368000I-249999J0D01*
G01*
X305227999Y-138368000D01*
G75*
G02*
X304978000Y-138118001I0J249999D01*
G01*
X304978000Y-137217999D01*
G75*
G02*
X305227999Y-136968000I249999J0D01*
G01*
X305928001Y-136968000D01*
G75*
G02*
X306178000Y-137217999I0J-249999D01*
G01*
G37*
G36*
G01*
X308178000Y-137217999D02*
X308178000Y-138118001D01*
G75*
G02*
X307928001Y-138368000I-249999J0D01*
G01*
X307227999Y-138368000D01*
G75*
G02*
X306978000Y-138118001I0J249999D01*
G01*
X306978000Y-137217999D01*
G75*
G02*
X307227999Y-136968000I249999J0D01*
G01*
X307928001Y-136968000D01*
G75*
G02*
X308178000Y-137217999I0J-249999D01*
G01*
G37*
G36*
G01*
X309822001Y-134474000D02*
X308921999Y-134474000D01*
G75*
G02*
X308672000Y-134224001I0J249999D01*
G01*
X308672000Y-133523999D01*
G75*
G02*
X308921999Y-133274000I249999J0D01*
G01*
X309822001Y-133274000D01*
G75*
G02*
X310072000Y-133523999I0J-249999D01*
G01*
X310072000Y-134224001D01*
G75*
G02*
X309822001Y-134474000I-249999J0D01*
G01*
G37*
G36*
G01*
X309822001Y-136474000D02*
X308921999Y-136474000D01*
G75*
G02*
X308672000Y-136224001I0J249999D01*
G01*
X308672000Y-135523999D01*
G75*
G02*
X308921999Y-135274000I249999J0D01*
G01*
X309822001Y-135274000D01*
G75*
G02*
X310072000Y-135523999I0J-249999D01*
G01*
X310072000Y-136224001D01*
G75*
G02*
X309822001Y-136474000I-249999J0D01*
G01*
G37*
G36*
G01*
X310788000Y-138118001D02*
X310788000Y-137217999D01*
G75*
G02*
X311037999Y-136968000I249999J0D01*
G01*
X311738001Y-136968000D01*
G75*
G02*
X311988000Y-137217999I0J-249999D01*
G01*
X311988000Y-138118001D01*
G75*
G02*
X311738001Y-138368000I-249999J0D01*
G01*
X311037999Y-138368000D01*
G75*
G02*
X310788000Y-138118001I0J249999D01*
G01*
G37*
G36*
G01*
X308788000Y-138118001D02*
X308788000Y-137217999D01*
G75*
G02*
X309037999Y-136968000I249999J0D01*
G01*
X309738001Y-136968000D01*
G75*
G02*
X309988000Y-137217999I0J-249999D01*
G01*
X309988000Y-138118001D01*
G75*
G02*
X309738001Y-138368000I-249999J0D01*
G01*
X309037999Y-138368000D01*
G75*
G02*
X308788000Y-138118001I0J249999D01*
G01*
G37*
G36*
G01*
X285814000Y-131219001D02*
X285814000Y-128368999D01*
G75*
G02*
X286063999Y-128119000I249999J0D01*
G01*
X286964001Y-128119000D01*
G75*
G02*
X287214000Y-128368999I0J-249999D01*
G01*
X287214000Y-131219001D01*
G75*
G02*
X286964001Y-131469000I-249999J0D01*
G01*
X286063999Y-131469000D01*
G75*
G02*
X285814000Y-131219001I0J249999D01*
G01*
G37*
G36*
G01*
X279714000Y-131219001D02*
X279714000Y-128368999D01*
G75*
G02*
X279963999Y-128119000I249999J0D01*
G01*
X280864001Y-128119000D01*
G75*
G02*
X281114000Y-128368999I0J-249999D01*
G01*
X281114000Y-131219001D01*
G75*
G02*
X280864001Y-131469000I-249999J0D01*
G01*
X279963999Y-131469000D01*
G75*
G02*
X279714000Y-131219001I0J249999D01*
G01*
G37*
G36*
G01*
X277686000Y-131219001D02*
X277686000Y-128368999D01*
G75*
G02*
X277935999Y-128119000I249999J0D01*
G01*
X278836001Y-128119000D01*
G75*
G02*
X279086000Y-128368999I0J-249999D01*
G01*
X279086000Y-131219001D01*
G75*
G02*
X278836001Y-131469000I-249999J0D01*
G01*
X277935999Y-131469000D01*
G75*
G02*
X277686000Y-131219001I0J249999D01*
G01*
G37*
G36*
G01*
X271586000Y-131219001D02*
X271586000Y-128368999D01*
G75*
G02*
X271835999Y-128119000I249999J0D01*
G01*
X272736001Y-128119000D01*
G75*
G02*
X272986000Y-128368999I0J-249999D01*
G01*
X272986000Y-131219001D01*
G75*
G02*
X272736001Y-131469000I-249999J0D01*
G01*
X271835999Y-131469000D01*
G75*
G02*
X271586000Y-131219001I0J249999D01*
G01*
G37*
G36*
G01*
X292296001Y-128632000D02*
X291395999Y-128632000D01*
G75*
G02*
X291146000Y-128382001I0J249999D01*
G01*
X291146000Y-127681999D01*
G75*
G02*
X291395999Y-127432000I249999J0D01*
G01*
X292296001Y-127432000D01*
G75*
G02*
X292546000Y-127681999I0J-249999D01*
G01*
X292546000Y-128382001D01*
G75*
G02*
X292296001Y-128632000I-249999J0D01*
G01*
G37*
G36*
G01*
X292296001Y-130632000D02*
X291395999Y-130632000D01*
G75*
G02*
X291146000Y-130382001I0J249999D01*
G01*
X291146000Y-129681999D01*
G75*
G02*
X291395999Y-129432000I249999J0D01*
G01*
X292296001Y-129432000D01*
G75*
G02*
X292546000Y-129681999I0J-249999D01*
G01*
X292546000Y-130382001D01*
G75*
G02*
X292296001Y-130632000I-249999J0D01*
G01*
G37*
G36*
G01*
X306178000Y-131375999D02*
X306178000Y-132276001D01*
G75*
G02*
X305928001Y-132526000I-249999J0D01*
G01*
X305227999Y-132526000D01*
G75*
G02*
X304978000Y-132276001I0J249999D01*
G01*
X304978000Y-131375999D01*
G75*
G02*
X305227999Y-131126000I249999J0D01*
G01*
X305928001Y-131126000D01*
G75*
G02*
X306178000Y-131375999I0J-249999D01*
G01*
G37*
G36*
G01*
X308178000Y-131375999D02*
X308178000Y-132276001D01*
G75*
G02*
X307928001Y-132526000I-249999J0D01*
G01*
X307227999Y-132526000D01*
G75*
G02*
X306978000Y-132276001I0J249999D01*
G01*
X306978000Y-131375999D01*
G75*
G02*
X307227999Y-131126000I249999J0D01*
G01*
X307928001Y-131126000D01*
G75*
G02*
X308178000Y-131375999I0J-249999D01*
G01*
G37*
G36*
G01*
X309822001Y-128632000D02*
X308921999Y-128632000D01*
G75*
G02*
X308672000Y-128382001I0J249999D01*
G01*
X308672000Y-127681999D01*
G75*
G02*
X308921999Y-127432000I249999J0D01*
G01*
X309822001Y-127432000D01*
G75*
G02*
X310072000Y-127681999I0J-249999D01*
G01*
X310072000Y-128382001D01*
G75*
G02*
X309822001Y-128632000I-249999J0D01*
G01*
G37*
G36*
G01*
X309822001Y-130632000D02*
X308921999Y-130632000D01*
G75*
G02*
X308672000Y-130382001I0J249999D01*
G01*
X308672000Y-129681999D01*
G75*
G02*
X308921999Y-129432000I249999J0D01*
G01*
X309822001Y-129432000D01*
G75*
G02*
X310072000Y-129681999I0J-249999D01*
G01*
X310072000Y-130382001D01*
G75*
G02*
X309822001Y-130632000I-249999J0D01*
G01*
G37*
G36*
G01*
X310788000Y-132276001D02*
X310788000Y-131375999D01*
G75*
G02*
X311037999Y-131126000I249999J0D01*
G01*
X311738001Y-131126000D01*
G75*
G02*
X311988000Y-131375999I0J-249999D01*
G01*
X311988000Y-132276001D01*
G75*
G02*
X311738001Y-132526000I-249999J0D01*
G01*
X311037999Y-132526000D01*
G75*
G02*
X310788000Y-132276001I0J249999D01*
G01*
G37*
G36*
G01*
X308788000Y-132276001D02*
X308788000Y-131375999D01*
G75*
G02*
X309037999Y-131126000I249999J0D01*
G01*
X309738001Y-131126000D01*
G75*
G02*
X309988000Y-131375999I0J-249999D01*
G01*
X309988000Y-132276001D01*
G75*
G02*
X309738001Y-132526000I-249999J0D01*
G01*
X309037999Y-132526000D01*
G75*
G02*
X308788000Y-132276001I0J249999D01*
G01*
G37*
G36*
G01*
X285814000Y-125377001D02*
X285814000Y-122526999D01*
G75*
G02*
X286063999Y-122277000I249999J0D01*
G01*
X286964001Y-122277000D01*
G75*
G02*
X287214000Y-122526999I0J-249999D01*
G01*
X287214000Y-125377001D01*
G75*
G02*
X286964001Y-125627000I-249999J0D01*
G01*
X286063999Y-125627000D01*
G75*
G02*
X285814000Y-125377001I0J249999D01*
G01*
G37*
G36*
G01*
X279714000Y-125377001D02*
X279714000Y-122526999D01*
G75*
G02*
X279963999Y-122277000I249999J0D01*
G01*
X280864001Y-122277000D01*
G75*
G02*
X281114000Y-122526999I0J-249999D01*
G01*
X281114000Y-125377001D01*
G75*
G02*
X280864001Y-125627000I-249999J0D01*
G01*
X279963999Y-125627000D01*
G75*
G02*
X279714000Y-125377001I0J249999D01*
G01*
G37*
G36*
G01*
X277686000Y-125377001D02*
X277686000Y-122526999D01*
G75*
G02*
X277935999Y-122277000I249999J0D01*
G01*
X278836001Y-122277000D01*
G75*
G02*
X279086000Y-122526999I0J-249999D01*
G01*
X279086000Y-125377001D01*
G75*
G02*
X278836001Y-125627000I-249999J0D01*
G01*
X277935999Y-125627000D01*
G75*
G02*
X277686000Y-125377001I0J249999D01*
G01*
G37*
G36*
G01*
X271586000Y-125377001D02*
X271586000Y-122526999D01*
G75*
G02*
X271835999Y-122277000I249999J0D01*
G01*
X272736001Y-122277000D01*
G75*
G02*
X272986000Y-122526999I0J-249999D01*
G01*
X272986000Y-125377001D01*
G75*
G02*
X272736001Y-125627000I-249999J0D01*
G01*
X271835999Y-125627000D01*
G75*
G02*
X271586000Y-125377001I0J249999D01*
G01*
G37*
G36*
G01*
X292296001Y-122790000D02*
X291395999Y-122790000D01*
G75*
G02*
X291146000Y-122540001I0J249999D01*
G01*
X291146000Y-121839999D01*
G75*
G02*
X291395999Y-121590000I249999J0D01*
G01*
X292296001Y-121590000D01*
G75*
G02*
X292546000Y-121839999I0J-249999D01*
G01*
X292546000Y-122540001D01*
G75*
G02*
X292296001Y-122790000I-249999J0D01*
G01*
G37*
G36*
G01*
X292296001Y-124790000D02*
X291395999Y-124790000D01*
G75*
G02*
X291146000Y-124540001I0J249999D01*
G01*
X291146000Y-123839999D01*
G75*
G02*
X291395999Y-123590000I249999J0D01*
G01*
X292296001Y-123590000D01*
G75*
G02*
X292546000Y-123839999I0J-249999D01*
G01*
X292546000Y-124540001D01*
G75*
G02*
X292296001Y-124790000I-249999J0D01*
G01*
G37*
G36*
G01*
X306178000Y-125533999D02*
X306178000Y-126434001D01*
G75*
G02*
X305928001Y-126684000I-249999J0D01*
G01*
X305227999Y-126684000D01*
G75*
G02*
X304978000Y-126434001I0J249999D01*
G01*
X304978000Y-125533999D01*
G75*
G02*
X305227999Y-125284000I249999J0D01*
G01*
X305928001Y-125284000D01*
G75*
G02*
X306178000Y-125533999I0J-249999D01*
G01*
G37*
G36*
G01*
X308178000Y-125533999D02*
X308178000Y-126434001D01*
G75*
G02*
X307928001Y-126684000I-249999J0D01*
G01*
X307227999Y-126684000D01*
G75*
G02*
X306978000Y-126434001I0J249999D01*
G01*
X306978000Y-125533999D01*
G75*
G02*
X307227999Y-125284000I249999J0D01*
G01*
X307928001Y-125284000D01*
G75*
G02*
X308178000Y-125533999I0J-249999D01*
G01*
G37*
G36*
G01*
X309822001Y-122790000D02*
X308921999Y-122790000D01*
G75*
G02*
X308672000Y-122540001I0J249999D01*
G01*
X308672000Y-121839999D01*
G75*
G02*
X308921999Y-121590000I249999J0D01*
G01*
X309822001Y-121590000D01*
G75*
G02*
X310072000Y-121839999I0J-249999D01*
G01*
X310072000Y-122540001D01*
G75*
G02*
X309822001Y-122790000I-249999J0D01*
G01*
G37*
G36*
G01*
X309822001Y-124790000D02*
X308921999Y-124790000D01*
G75*
G02*
X308672000Y-124540001I0J249999D01*
G01*
X308672000Y-123839999D01*
G75*
G02*
X308921999Y-123590000I249999J0D01*
G01*
X309822001Y-123590000D01*
G75*
G02*
X310072000Y-123839999I0J-249999D01*
G01*
X310072000Y-124540001D01*
G75*
G02*
X309822001Y-124790000I-249999J0D01*
G01*
G37*
G36*
G01*
X310788000Y-126434001D02*
X310788000Y-125533999D01*
G75*
G02*
X311037999Y-125284000I249999J0D01*
G01*
X311738001Y-125284000D01*
G75*
G02*
X311988000Y-125533999I0J-249999D01*
G01*
X311988000Y-126434001D01*
G75*
G02*
X311738001Y-126684000I-249999J0D01*
G01*
X311037999Y-126684000D01*
G75*
G02*
X310788000Y-126434001I0J249999D01*
G01*
G37*
G36*
G01*
X308788000Y-126434001D02*
X308788000Y-125533999D01*
G75*
G02*
X309037999Y-125284000I249999J0D01*
G01*
X309738001Y-125284000D01*
G75*
G02*
X309988000Y-125533999I0J-249999D01*
G01*
X309988000Y-126434001D01*
G75*
G02*
X309738001Y-126684000I-249999J0D01*
G01*
X309037999Y-126684000D01*
G75*
G02*
X308788000Y-126434001I0J249999D01*
G01*
G37*
G36*
G01*
X285814000Y-119535001D02*
X285814000Y-116684999D01*
G75*
G02*
X286063999Y-116435000I249999J0D01*
G01*
X286964001Y-116435000D01*
G75*
G02*
X287214000Y-116684999I0J-249999D01*
G01*
X287214000Y-119535001D01*
G75*
G02*
X286964001Y-119785000I-249999J0D01*
G01*
X286063999Y-119785000D01*
G75*
G02*
X285814000Y-119535001I0J249999D01*
G01*
G37*
G36*
G01*
X279714000Y-119535001D02*
X279714000Y-116684999D01*
G75*
G02*
X279963999Y-116435000I249999J0D01*
G01*
X280864001Y-116435000D01*
G75*
G02*
X281114000Y-116684999I0J-249999D01*
G01*
X281114000Y-119535001D01*
G75*
G02*
X280864001Y-119785000I-249999J0D01*
G01*
X279963999Y-119785000D01*
G75*
G02*
X279714000Y-119535001I0J249999D01*
G01*
G37*
G36*
G01*
X277686000Y-119535001D02*
X277686000Y-116684999D01*
G75*
G02*
X277935999Y-116435000I249999J0D01*
G01*
X278836001Y-116435000D01*
G75*
G02*
X279086000Y-116684999I0J-249999D01*
G01*
X279086000Y-119535001D01*
G75*
G02*
X278836001Y-119785000I-249999J0D01*
G01*
X277935999Y-119785000D01*
G75*
G02*
X277686000Y-119535001I0J249999D01*
G01*
G37*
G36*
G01*
X271586000Y-119535001D02*
X271586000Y-116684999D01*
G75*
G02*
X271835999Y-116435000I249999J0D01*
G01*
X272736001Y-116435000D01*
G75*
G02*
X272986000Y-116684999I0J-249999D01*
G01*
X272986000Y-119535001D01*
G75*
G02*
X272736001Y-119785000I-249999J0D01*
G01*
X271835999Y-119785000D01*
G75*
G02*
X271586000Y-119535001I0J249999D01*
G01*
G37*
G36*
G01*
X292296001Y-116948000D02*
X291395999Y-116948000D01*
G75*
G02*
X291146000Y-116698001I0J249999D01*
G01*
X291146000Y-115997999D01*
G75*
G02*
X291395999Y-115748000I249999J0D01*
G01*
X292296001Y-115748000D01*
G75*
G02*
X292546000Y-115997999I0J-249999D01*
G01*
X292546000Y-116698001D01*
G75*
G02*
X292296001Y-116948000I-249999J0D01*
G01*
G37*
G36*
G01*
X292296001Y-118948000D02*
X291395999Y-118948000D01*
G75*
G02*
X291146000Y-118698001I0J249999D01*
G01*
X291146000Y-117997999D01*
G75*
G02*
X291395999Y-117748000I249999J0D01*
G01*
X292296001Y-117748000D01*
G75*
G02*
X292546000Y-117997999I0J-249999D01*
G01*
X292546000Y-118698001D01*
G75*
G02*
X292296001Y-118948000I-249999J0D01*
G01*
G37*
G36*
G01*
X306178000Y-119691999D02*
X306178000Y-120592001D01*
G75*
G02*
X305928001Y-120842000I-249999J0D01*
G01*
X305227999Y-120842000D01*
G75*
G02*
X304978000Y-120592001I0J249999D01*
G01*
X304978000Y-119691999D01*
G75*
G02*
X305227999Y-119442000I249999J0D01*
G01*
X305928001Y-119442000D01*
G75*
G02*
X306178000Y-119691999I0J-249999D01*
G01*
G37*
G36*
G01*
X308178000Y-119691999D02*
X308178000Y-120592001D01*
G75*
G02*
X307928001Y-120842000I-249999J0D01*
G01*
X307227999Y-120842000D01*
G75*
G02*
X306978000Y-120592001I0J249999D01*
G01*
X306978000Y-119691999D01*
G75*
G02*
X307227999Y-119442000I249999J0D01*
G01*
X307928001Y-119442000D01*
G75*
G02*
X308178000Y-119691999I0J-249999D01*
G01*
G37*
G36*
G01*
X309822001Y-116948000D02*
X308921999Y-116948000D01*
G75*
G02*
X308672000Y-116698001I0J249999D01*
G01*
X308672000Y-115997999D01*
G75*
G02*
X308921999Y-115748000I249999J0D01*
G01*
X309822001Y-115748000D01*
G75*
G02*
X310072000Y-115997999I0J-249999D01*
G01*
X310072000Y-116698001D01*
G75*
G02*
X309822001Y-116948000I-249999J0D01*
G01*
G37*
G36*
G01*
X309822001Y-118948000D02*
X308921999Y-118948000D01*
G75*
G02*
X308672000Y-118698001I0J249999D01*
G01*
X308672000Y-117997999D01*
G75*
G02*
X308921999Y-117748000I249999J0D01*
G01*
X309822001Y-117748000D01*
G75*
G02*
X310072000Y-117997999I0J-249999D01*
G01*
X310072000Y-118698001D01*
G75*
G02*
X309822001Y-118948000I-249999J0D01*
G01*
G37*
G36*
G01*
X310788000Y-120592001D02*
X310788000Y-119691999D01*
G75*
G02*
X311037999Y-119442000I249999J0D01*
G01*
X311738001Y-119442000D01*
G75*
G02*
X311988000Y-119691999I0J-249999D01*
G01*
X311988000Y-120592001D01*
G75*
G02*
X311738001Y-120842000I-249999J0D01*
G01*
X311037999Y-120842000D01*
G75*
G02*
X310788000Y-120592001I0J249999D01*
G01*
G37*
G36*
G01*
X308788000Y-120592001D02*
X308788000Y-119691999D01*
G75*
G02*
X309037999Y-119442000I249999J0D01*
G01*
X309738001Y-119442000D01*
G75*
G02*
X309988000Y-119691999I0J-249999D01*
G01*
X309988000Y-120592001D01*
G75*
G02*
X309738001Y-120842000I-249999J0D01*
G01*
X309037999Y-120842000D01*
G75*
G02*
X308788000Y-120592001I0J249999D01*
G01*
G37*
G36*
G01*
X285814000Y-113693001D02*
X285814000Y-110842999D01*
G75*
G02*
X286063999Y-110593000I249999J0D01*
G01*
X286964001Y-110593000D01*
G75*
G02*
X287214000Y-110842999I0J-249999D01*
G01*
X287214000Y-113693001D01*
G75*
G02*
X286964001Y-113943000I-249999J0D01*
G01*
X286063999Y-113943000D01*
G75*
G02*
X285814000Y-113693001I0J249999D01*
G01*
G37*
G36*
G01*
X279714000Y-113693001D02*
X279714000Y-110842999D01*
G75*
G02*
X279963999Y-110593000I249999J0D01*
G01*
X280864001Y-110593000D01*
G75*
G02*
X281114000Y-110842999I0J-249999D01*
G01*
X281114000Y-113693001D01*
G75*
G02*
X280864001Y-113943000I-249999J0D01*
G01*
X279963999Y-113943000D01*
G75*
G02*
X279714000Y-113693001I0J249999D01*
G01*
G37*
G36*
G01*
X277686000Y-113693001D02*
X277686000Y-110842999D01*
G75*
G02*
X277935999Y-110593000I249999J0D01*
G01*
X278836001Y-110593000D01*
G75*
G02*
X279086000Y-110842999I0J-249999D01*
G01*
X279086000Y-113693001D01*
G75*
G02*
X278836001Y-113943000I-249999J0D01*
G01*
X277935999Y-113943000D01*
G75*
G02*
X277686000Y-113693001I0J249999D01*
G01*
G37*
G36*
G01*
X271586000Y-113693001D02*
X271586000Y-110842999D01*
G75*
G02*
X271835999Y-110593000I249999J0D01*
G01*
X272736001Y-110593000D01*
G75*
G02*
X272986000Y-110842999I0J-249999D01*
G01*
X272986000Y-113693001D01*
G75*
G02*
X272736001Y-113943000I-249999J0D01*
G01*
X271835999Y-113943000D01*
G75*
G02*
X271586000Y-113693001I0J249999D01*
G01*
G37*
G36*
G01*
X292296001Y-111106000D02*
X291395999Y-111106000D01*
G75*
G02*
X291146000Y-110856001I0J249999D01*
G01*
X291146000Y-110155999D01*
G75*
G02*
X291395999Y-109906000I249999J0D01*
G01*
X292296001Y-109906000D01*
G75*
G02*
X292546000Y-110155999I0J-249999D01*
G01*
X292546000Y-110856001D01*
G75*
G02*
X292296001Y-111106000I-249999J0D01*
G01*
G37*
G36*
G01*
X292296001Y-113106000D02*
X291395999Y-113106000D01*
G75*
G02*
X291146000Y-112856001I0J249999D01*
G01*
X291146000Y-112155999D01*
G75*
G02*
X291395999Y-111906000I249999J0D01*
G01*
X292296001Y-111906000D01*
G75*
G02*
X292546000Y-112155999I0J-249999D01*
G01*
X292546000Y-112856001D01*
G75*
G02*
X292296001Y-113106000I-249999J0D01*
G01*
G37*
G36*
G01*
X306178000Y-113849999D02*
X306178000Y-114750001D01*
G75*
G02*
X305928001Y-115000000I-249999J0D01*
G01*
X305227999Y-115000000D01*
G75*
G02*
X304978000Y-114750001I0J249999D01*
G01*
X304978000Y-113849999D01*
G75*
G02*
X305227999Y-113600000I249999J0D01*
G01*
X305928001Y-113600000D01*
G75*
G02*
X306178000Y-113849999I0J-249999D01*
G01*
G37*
G36*
G01*
X308178000Y-113849999D02*
X308178000Y-114750001D01*
G75*
G02*
X307928001Y-115000000I-249999J0D01*
G01*
X307227999Y-115000000D01*
G75*
G02*
X306978000Y-114750001I0J249999D01*
G01*
X306978000Y-113849999D01*
G75*
G02*
X307227999Y-113600000I249999J0D01*
G01*
X307928001Y-113600000D01*
G75*
G02*
X308178000Y-113849999I0J-249999D01*
G01*
G37*
G36*
G01*
X309822001Y-111106000D02*
X308921999Y-111106000D01*
G75*
G02*
X308672000Y-110856001I0J249999D01*
G01*
X308672000Y-110155999D01*
G75*
G02*
X308921999Y-109906000I249999J0D01*
G01*
X309822001Y-109906000D01*
G75*
G02*
X310072000Y-110155999I0J-249999D01*
G01*
X310072000Y-110856001D01*
G75*
G02*
X309822001Y-111106000I-249999J0D01*
G01*
G37*
G36*
G01*
X309822001Y-113106000D02*
X308921999Y-113106000D01*
G75*
G02*
X308672000Y-112856001I0J249999D01*
G01*
X308672000Y-112155999D01*
G75*
G02*
X308921999Y-111906000I249999J0D01*
G01*
X309822001Y-111906000D01*
G75*
G02*
X310072000Y-112155999I0J-249999D01*
G01*
X310072000Y-112856001D01*
G75*
G02*
X309822001Y-113106000I-249999J0D01*
G01*
G37*
G36*
G01*
X310788000Y-114750001D02*
X310788000Y-113849999D01*
G75*
G02*
X311037999Y-113600000I249999J0D01*
G01*
X311738001Y-113600000D01*
G75*
G02*
X311988000Y-113849999I0J-249999D01*
G01*
X311988000Y-114750001D01*
G75*
G02*
X311738001Y-115000000I-249999J0D01*
G01*
X311037999Y-115000000D01*
G75*
G02*
X310788000Y-114750001I0J249999D01*
G01*
G37*
G36*
G01*
X308788000Y-114750001D02*
X308788000Y-113849999D01*
G75*
G02*
X309037999Y-113600000I249999J0D01*
G01*
X309738001Y-113600000D01*
G75*
G02*
X309988000Y-113849999I0J-249999D01*
G01*
X309988000Y-114750001D01*
G75*
G02*
X309738001Y-115000000I-249999J0D01*
G01*
X309037999Y-115000000D01*
G75*
G02*
X308788000Y-114750001I0J249999D01*
G01*
G37*
D18*
X290306000Y-165034000D03*
X290306000Y-163134000D03*
X288306000Y-164084000D03*
X307324000Y-165034000D03*
X307324000Y-163134000D03*
X305324000Y-164084000D03*
X288306000Y-158242000D03*
X290306000Y-157292000D03*
X290306000Y-159192000D03*
X305324000Y-158242000D03*
X307324000Y-157292000D03*
X307324000Y-159192000D03*
X288306000Y-152400000D03*
X290306000Y-151450000D03*
X290306000Y-153350000D03*
X305324000Y-152400000D03*
X307324000Y-151450000D03*
X307324000Y-153350000D03*
X288306000Y-146558000D03*
X290306000Y-145608000D03*
X290306000Y-147508000D03*
X305324000Y-146558000D03*
X307324000Y-145608000D03*
X307324000Y-147508000D03*
X288306000Y-140716000D03*
X290306000Y-139766000D03*
X290306000Y-141666000D03*
X305324000Y-140716000D03*
X307324000Y-139766000D03*
X307324000Y-141666000D03*
X288306000Y-134874000D03*
X290306000Y-133924000D03*
X290306000Y-135824000D03*
X305324000Y-134874000D03*
X307324000Y-133924000D03*
X307324000Y-135824000D03*
X288306000Y-129032000D03*
X290306000Y-128082000D03*
X290306000Y-129982000D03*
X305324000Y-129032000D03*
X307324000Y-128082000D03*
X307324000Y-129982000D03*
X288306000Y-123190000D03*
X290306000Y-122240000D03*
X290306000Y-124140000D03*
X305324000Y-123190000D03*
X307324000Y-122240000D03*
X307324000Y-124140000D03*
X288306000Y-117348000D03*
X290306000Y-116398000D03*
X290306000Y-118298000D03*
X305324000Y-117348000D03*
X307324000Y-116398000D03*
X307324000Y-118298000D03*
X288306000Y-111506000D03*
X290306000Y-110556000D03*
X290306000Y-112456000D03*
X305324000Y-111506000D03*
X307324000Y-110556000D03*
X307324000Y-112456000D03*
G36*
G01*
X292430000Y-166427999D02*
X292430000Y-167328001D01*
G75*
G02*
X292180001Y-167578000I-249999J0D01*
G01*
X291529999Y-167578000D01*
G75*
G02*
X291280000Y-167328001I0J249999D01*
G01*
X291280000Y-166427999D01*
G75*
G02*
X291529999Y-166178000I249999J0D01*
G01*
X292180001Y-166178000D01*
G75*
G02*
X292430000Y-166427999I0J-249999D01*
G01*
G37*
G36*
G01*
X290380000Y-166427999D02*
X290380000Y-167328001D01*
G75*
G02*
X290130001Y-167578000I-249999J0D01*
G01*
X289479999Y-167578000D01*
G75*
G02*
X289230000Y-167328001I0J249999D01*
G01*
X289230000Y-166427999D01*
G75*
G02*
X289479999Y-166178000I249999J0D01*
G01*
X290130001Y-166178000D01*
G75*
G02*
X290380000Y-166427999I0J-249999D01*
G01*
G37*
G36*
G01*
X290380000Y-160585999D02*
X290380000Y-161486001D01*
G75*
G02*
X290130001Y-161736000I-249999J0D01*
G01*
X289479999Y-161736000D01*
G75*
G02*
X289230000Y-161486001I0J249999D01*
G01*
X289230000Y-160585999D01*
G75*
G02*
X289479999Y-160336000I249999J0D01*
G01*
X290130001Y-160336000D01*
G75*
G02*
X290380000Y-160585999I0J-249999D01*
G01*
G37*
G36*
G01*
X292430000Y-160585999D02*
X292430000Y-161486001D01*
G75*
G02*
X292180001Y-161736000I-249999J0D01*
G01*
X291529999Y-161736000D01*
G75*
G02*
X291280000Y-161486001I0J249999D01*
G01*
X291280000Y-160585999D01*
G75*
G02*
X291529999Y-160336000I249999J0D01*
G01*
X292180001Y-160336000D01*
G75*
G02*
X292430000Y-160585999I0J-249999D01*
G01*
G37*
G36*
G01*
X290380000Y-154743999D02*
X290380000Y-155644001D01*
G75*
G02*
X290130001Y-155894000I-249999J0D01*
G01*
X289479999Y-155894000D01*
G75*
G02*
X289230000Y-155644001I0J249999D01*
G01*
X289230000Y-154743999D01*
G75*
G02*
X289479999Y-154494000I249999J0D01*
G01*
X290130001Y-154494000D01*
G75*
G02*
X290380000Y-154743999I0J-249999D01*
G01*
G37*
G36*
G01*
X292430000Y-154743999D02*
X292430000Y-155644001D01*
G75*
G02*
X292180001Y-155894000I-249999J0D01*
G01*
X291529999Y-155894000D01*
G75*
G02*
X291280000Y-155644001I0J249999D01*
G01*
X291280000Y-154743999D01*
G75*
G02*
X291529999Y-154494000I249999J0D01*
G01*
X292180001Y-154494000D01*
G75*
G02*
X292430000Y-154743999I0J-249999D01*
G01*
G37*
G36*
G01*
X290380000Y-148901999D02*
X290380000Y-149802001D01*
G75*
G02*
X290130001Y-150052000I-249999J0D01*
G01*
X289479999Y-150052000D01*
G75*
G02*
X289230000Y-149802001I0J249999D01*
G01*
X289230000Y-148901999D01*
G75*
G02*
X289479999Y-148652000I249999J0D01*
G01*
X290130001Y-148652000D01*
G75*
G02*
X290380000Y-148901999I0J-249999D01*
G01*
G37*
G36*
G01*
X292430000Y-148901999D02*
X292430000Y-149802001D01*
G75*
G02*
X292180001Y-150052000I-249999J0D01*
G01*
X291529999Y-150052000D01*
G75*
G02*
X291280000Y-149802001I0J249999D01*
G01*
X291280000Y-148901999D01*
G75*
G02*
X291529999Y-148652000I249999J0D01*
G01*
X292180001Y-148652000D01*
G75*
G02*
X292430000Y-148901999I0J-249999D01*
G01*
G37*
G36*
G01*
X290380000Y-143059999D02*
X290380000Y-143960001D01*
G75*
G02*
X290130001Y-144210000I-249999J0D01*
G01*
X289479999Y-144210000D01*
G75*
G02*
X289230000Y-143960001I0J249999D01*
G01*
X289230000Y-143059999D01*
G75*
G02*
X289479999Y-142810000I249999J0D01*
G01*
X290130001Y-142810000D01*
G75*
G02*
X290380000Y-143059999I0J-249999D01*
G01*
G37*
G36*
G01*
X292430000Y-143059999D02*
X292430000Y-143960001D01*
G75*
G02*
X292180001Y-144210000I-249999J0D01*
G01*
X291529999Y-144210000D01*
G75*
G02*
X291280000Y-143960001I0J249999D01*
G01*
X291280000Y-143059999D01*
G75*
G02*
X291529999Y-142810000I249999J0D01*
G01*
X292180001Y-142810000D01*
G75*
G02*
X292430000Y-143059999I0J-249999D01*
G01*
G37*
G36*
G01*
X290380000Y-137217999D02*
X290380000Y-138118001D01*
G75*
G02*
X290130001Y-138368000I-249999J0D01*
G01*
X289479999Y-138368000D01*
G75*
G02*
X289230000Y-138118001I0J249999D01*
G01*
X289230000Y-137217999D01*
G75*
G02*
X289479999Y-136968000I249999J0D01*
G01*
X290130001Y-136968000D01*
G75*
G02*
X290380000Y-137217999I0J-249999D01*
G01*
G37*
G36*
G01*
X292430000Y-137217999D02*
X292430000Y-138118001D01*
G75*
G02*
X292180001Y-138368000I-249999J0D01*
G01*
X291529999Y-138368000D01*
G75*
G02*
X291280000Y-138118001I0J249999D01*
G01*
X291280000Y-137217999D01*
G75*
G02*
X291529999Y-136968000I249999J0D01*
G01*
X292180001Y-136968000D01*
G75*
G02*
X292430000Y-137217999I0J-249999D01*
G01*
G37*
G36*
G01*
X290380000Y-131375999D02*
X290380000Y-132276001D01*
G75*
G02*
X290130001Y-132526000I-249999J0D01*
G01*
X289479999Y-132526000D01*
G75*
G02*
X289230000Y-132276001I0J249999D01*
G01*
X289230000Y-131375999D01*
G75*
G02*
X289479999Y-131126000I249999J0D01*
G01*
X290130001Y-131126000D01*
G75*
G02*
X290380000Y-131375999I0J-249999D01*
G01*
G37*
G36*
G01*
X292430000Y-131375999D02*
X292430000Y-132276001D01*
G75*
G02*
X292180001Y-132526000I-249999J0D01*
G01*
X291529999Y-132526000D01*
G75*
G02*
X291280000Y-132276001I0J249999D01*
G01*
X291280000Y-131375999D01*
G75*
G02*
X291529999Y-131126000I249999J0D01*
G01*
X292180001Y-131126000D01*
G75*
G02*
X292430000Y-131375999I0J-249999D01*
G01*
G37*
G36*
G01*
X290380000Y-125533999D02*
X290380000Y-126434001D01*
G75*
G02*
X290130001Y-126684000I-249999J0D01*
G01*
X289479999Y-126684000D01*
G75*
G02*
X289230000Y-126434001I0J249999D01*
G01*
X289230000Y-125533999D01*
G75*
G02*
X289479999Y-125284000I249999J0D01*
G01*
X290130001Y-125284000D01*
G75*
G02*
X290380000Y-125533999I0J-249999D01*
G01*
G37*
G36*
G01*
X292430000Y-125533999D02*
X292430000Y-126434001D01*
G75*
G02*
X292180001Y-126684000I-249999J0D01*
G01*
X291529999Y-126684000D01*
G75*
G02*
X291280000Y-126434001I0J249999D01*
G01*
X291280000Y-125533999D01*
G75*
G02*
X291529999Y-125284000I249999J0D01*
G01*
X292180001Y-125284000D01*
G75*
G02*
X292430000Y-125533999I0J-249999D01*
G01*
G37*
G36*
G01*
X290380000Y-119691999D02*
X290380000Y-120592001D01*
G75*
G02*
X290130001Y-120842000I-249999J0D01*
G01*
X289479999Y-120842000D01*
G75*
G02*
X289230000Y-120592001I0J249999D01*
G01*
X289230000Y-119691999D01*
G75*
G02*
X289479999Y-119442000I249999J0D01*
G01*
X290130001Y-119442000D01*
G75*
G02*
X290380000Y-119691999I0J-249999D01*
G01*
G37*
G36*
G01*
X292430000Y-119691999D02*
X292430000Y-120592001D01*
G75*
G02*
X292180001Y-120842000I-249999J0D01*
G01*
X291529999Y-120842000D01*
G75*
G02*
X291280000Y-120592001I0J249999D01*
G01*
X291280000Y-119691999D01*
G75*
G02*
X291529999Y-119442000I249999J0D01*
G01*
X292180001Y-119442000D01*
G75*
G02*
X292430000Y-119691999I0J-249999D01*
G01*
G37*
G36*
G01*
X290380000Y-113849999D02*
X290380000Y-114750001D01*
G75*
G02*
X290130001Y-115000000I-249999J0D01*
G01*
X289479999Y-115000000D01*
G75*
G02*
X289230000Y-114750001I0J249999D01*
G01*
X289230000Y-113849999D01*
G75*
G02*
X289479999Y-113600000I249999J0D01*
G01*
X290130001Y-113600000D01*
G75*
G02*
X290380000Y-113849999I0J-249999D01*
G01*
G37*
G36*
G01*
X292430000Y-113849999D02*
X292430000Y-114750001D01*
G75*
G02*
X292180001Y-115000000I-249999J0D01*
G01*
X291529999Y-115000000D01*
G75*
G02*
X291280000Y-114750001I0J249999D01*
G01*
X291280000Y-113849999D01*
G75*
G02*
X291529999Y-113600000I249999J0D01*
G01*
X292180001Y-113600000D01*
G75*
G02*
X292430000Y-113849999I0J-249999D01*
G01*
G37*
D14*
X378968000Y-144526000D03*
D15*
X376428000Y-159766000D03*
D16*
X381508000Y-159766000D03*
D14*
X367284000Y-144526000D03*
D15*
X364744000Y-159766000D03*
D16*
X369824000Y-159766000D03*
D10*
X316992000Y-159354000D03*
X316992000Y-161354000D03*
X316992000Y-163354000D03*
G36*
G01*
X317617001Y-165954000D02*
X316366999Y-165954000D01*
G75*
G02*
X316117000Y-165704001I0J249999D01*
G01*
X316117000Y-165003999D01*
G75*
G02*
X316366999Y-164754000I249999J0D01*
G01*
X317617001Y-164754000D01*
G75*
G02*
X317867000Y-165003999I0J-249999D01*
G01*
X317867000Y-165704001D01*
G75*
G02*
X317617001Y-165954000I-249999J0D01*
G01*
G37*
D19*
X324993000Y-138843000D03*
X326263000Y-138843000D03*
X327533000Y-138843000D03*
X328803000Y-138843000D03*
X330073000Y-138843000D03*
X331343000Y-138843000D03*
X338963000Y-138843000D03*
X337693000Y-138843000D03*
X336423000Y-138843000D03*
X335153000Y-138843000D03*
X333883000Y-138843000D03*
X332613000Y-138843000D03*
D20*
X323228000Y-161163000D03*
X323228000Y-159893000D03*
X323228000Y-148463000D03*
X323228000Y-145923000D03*
X323228000Y-151003000D03*
X323228000Y-153543000D03*
X323228000Y-143383000D03*
X323228000Y-144653000D03*
X323228000Y-152273000D03*
X323228000Y-154813000D03*
X323228000Y-147193000D03*
D21*
X322978000Y-140843000D03*
D20*
X323228000Y-142113000D03*
X323228000Y-157353000D03*
X323228000Y-156083000D03*
X323228000Y-149733000D03*
X340728000Y-159893000D03*
X340728000Y-161163000D03*
D21*
X340978000Y-140843000D03*
D20*
X340728000Y-142113000D03*
X340728000Y-156083000D03*
X340728000Y-157353000D03*
X340728000Y-153543000D03*
X340728000Y-154813000D03*
X340728000Y-151003000D03*
X340728000Y-152273000D03*
X340728000Y-143383000D03*
X340728000Y-144653000D03*
X340728000Y-145923000D03*
X340728000Y-147193000D03*
X340728000Y-148463000D03*
X340728000Y-149733000D03*
D22*
G36*
X330440000Y-120291500D02*
G01*
X333565000Y-120291500D01*
X333565000Y-120708000D01*
X335040000Y-120708000D01*
X335040000Y-121608000D01*
X333565000Y-121608000D01*
X333565000Y-122024500D01*
X330440000Y-122024500D01*
X330440000Y-120291500D01*
G37*
D23*
X334390000Y-119658000D03*
X334390000Y-122658000D03*
G36*
G01*
X347021999Y-131972000D02*
X347922001Y-131972000D01*
G75*
G02*
X348172000Y-132221999I0J-249999D01*
G01*
X348172000Y-132922001D01*
G75*
G02*
X347922001Y-133172000I-249999J0D01*
G01*
X347021999Y-133172000D01*
G75*
G02*
X346772000Y-132922001I0J249999D01*
G01*
X346772000Y-132221999D01*
G75*
G02*
X347021999Y-131972000I249999J0D01*
G01*
G37*
G36*
G01*
X347021999Y-129972000D02*
X347922001Y-129972000D01*
G75*
G02*
X348172000Y-130221999I0J-249999D01*
G01*
X348172000Y-130922001D01*
G75*
G02*
X347922001Y-131172000I-249999J0D01*
G01*
X347021999Y-131172000D01*
G75*
G02*
X346772000Y-130922001I0J249999D01*
G01*
X346772000Y-130221999D01*
G75*
G02*
X347021999Y-129972000I249999J0D01*
G01*
G37*
G36*
G01*
X332290000Y-116873000D02*
X332290000Y-117823000D01*
G75*
G02*
X332040000Y-118073000I-250000J0D01*
G01*
X331540000Y-118073000D01*
G75*
G02*
X331290000Y-117823000I0J250000D01*
G01*
X331290000Y-116873000D01*
G75*
G02*
X331540000Y-116623000I250000J0D01*
G01*
X332040000Y-116623000D01*
G75*
G02*
X332290000Y-116873000I0J-250000D01*
G01*
G37*
G36*
G01*
X334190000Y-116873000D02*
X334190000Y-117823000D01*
G75*
G02*
X333940000Y-118073000I-250000J0D01*
G01*
X333440000Y-118073000D01*
G75*
G02*
X333190000Y-117823000I0J250000D01*
G01*
X333190000Y-116873000D01*
G75*
G02*
X333440000Y-116623000I250000J0D01*
G01*
X333940000Y-116623000D01*
G75*
G02*
X334190000Y-116873000I0J-250000D01*
G01*
G37*
G36*
G01*
X333190000Y-125443000D02*
X333190000Y-124493000D01*
G75*
G02*
X333440000Y-124243000I250000J0D01*
G01*
X333940000Y-124243000D01*
G75*
G02*
X334190000Y-124493000I0J-250000D01*
G01*
X334190000Y-125443000D01*
G75*
G02*
X333940000Y-125693000I-250000J0D01*
G01*
X333440000Y-125693000D01*
G75*
G02*
X333190000Y-125443000I0J250000D01*
G01*
G37*
G36*
G01*
X331290000Y-125443000D02*
X331290000Y-124493000D01*
G75*
G02*
X331540000Y-124243000I250000J0D01*
G01*
X332040000Y-124243000D01*
G75*
G02*
X332290000Y-124493000I0J-250000D01*
G01*
X332290000Y-125443000D01*
G75*
G02*
X332040000Y-125693000I-250000J0D01*
G01*
X331540000Y-125693000D01*
G75*
G02*
X331290000Y-125443000I0J250000D01*
G01*
G37*
G36*
G01*
X322616000Y-117201000D02*
X322616000Y-116901000D01*
G75*
G02*
X322766000Y-116751000I150000J0D01*
G01*
X324216000Y-116751000D01*
G75*
G02*
X324366000Y-116901000I0J-150000D01*
G01*
X324366000Y-117201000D01*
G75*
G02*
X324216000Y-117351000I-150000J0D01*
G01*
X322766000Y-117351000D01*
G75*
G02*
X322616000Y-117201000I0J150000D01*
G01*
G37*
G36*
G01*
X322616000Y-118471000D02*
X322616000Y-118171000D01*
G75*
G02*
X322766000Y-118021000I150000J0D01*
G01*
X324216000Y-118021000D01*
G75*
G02*
X324366000Y-118171000I0J-150000D01*
G01*
X324366000Y-118471000D01*
G75*
G02*
X324216000Y-118621000I-150000J0D01*
G01*
X322766000Y-118621000D01*
G75*
G02*
X322616000Y-118471000I0J150000D01*
G01*
G37*
G36*
G01*
X322616000Y-119741000D02*
X322616000Y-119441000D01*
G75*
G02*
X322766000Y-119291000I150000J0D01*
G01*
X324216000Y-119291000D01*
G75*
G02*
X324366000Y-119441000I0J-150000D01*
G01*
X324366000Y-119741000D01*
G75*
G02*
X324216000Y-119891000I-150000J0D01*
G01*
X322766000Y-119891000D01*
G75*
G02*
X322616000Y-119741000I0J150000D01*
G01*
G37*
G36*
G01*
X322616000Y-121011000D02*
X322616000Y-120711000D01*
G75*
G02*
X322766000Y-120561000I150000J0D01*
G01*
X324216000Y-120561000D01*
G75*
G02*
X324366000Y-120711000I0J-150000D01*
G01*
X324366000Y-121011000D01*
G75*
G02*
X324216000Y-121161000I-150000J0D01*
G01*
X322766000Y-121161000D01*
G75*
G02*
X322616000Y-121011000I0J150000D01*
G01*
G37*
G36*
G01*
X322616000Y-122281000D02*
X322616000Y-121981000D01*
G75*
G02*
X322766000Y-121831000I150000J0D01*
G01*
X324216000Y-121831000D01*
G75*
G02*
X324366000Y-121981000I0J-150000D01*
G01*
X324366000Y-122281000D01*
G75*
G02*
X324216000Y-122431000I-150000J0D01*
G01*
X322766000Y-122431000D01*
G75*
G02*
X322616000Y-122281000I0J150000D01*
G01*
G37*
G36*
G01*
X322616000Y-123551000D02*
X322616000Y-123251000D01*
G75*
G02*
X322766000Y-123101000I150000J0D01*
G01*
X324216000Y-123101000D01*
G75*
G02*
X324366000Y-123251000I0J-150000D01*
G01*
X324366000Y-123551000D01*
G75*
G02*
X324216000Y-123701000I-150000J0D01*
G01*
X322766000Y-123701000D01*
G75*
G02*
X322616000Y-123551000I0J150000D01*
G01*
G37*
G36*
G01*
X322616000Y-124821000D02*
X322616000Y-124521000D01*
G75*
G02*
X322766000Y-124371000I150000J0D01*
G01*
X324216000Y-124371000D01*
G75*
G02*
X324366000Y-124521000I0J-150000D01*
G01*
X324366000Y-124821000D01*
G75*
G02*
X324216000Y-124971000I-150000J0D01*
G01*
X322766000Y-124971000D01*
G75*
G02*
X322616000Y-124821000I0J150000D01*
G01*
G37*
G36*
G01*
X322616000Y-126091000D02*
X322616000Y-125791000D01*
G75*
G02*
X322766000Y-125641000I150000J0D01*
G01*
X324216000Y-125641000D01*
G75*
G02*
X324366000Y-125791000I0J-150000D01*
G01*
X324366000Y-126091000D01*
G75*
G02*
X324216000Y-126241000I-150000J0D01*
G01*
X322766000Y-126241000D01*
G75*
G02*
X322616000Y-126091000I0J150000D01*
G01*
G37*
G36*
G01*
X317466000Y-126091000D02*
X317466000Y-125791000D01*
G75*
G02*
X317616000Y-125641000I150000J0D01*
G01*
X319066000Y-125641000D01*
G75*
G02*
X319216000Y-125791000I0J-150000D01*
G01*
X319216000Y-126091000D01*
G75*
G02*
X319066000Y-126241000I-150000J0D01*
G01*
X317616000Y-126241000D01*
G75*
G02*
X317466000Y-126091000I0J150000D01*
G01*
G37*
G36*
G01*
X317466000Y-124821000D02*
X317466000Y-124521000D01*
G75*
G02*
X317616000Y-124371000I150000J0D01*
G01*
X319066000Y-124371000D01*
G75*
G02*
X319216000Y-124521000I0J-150000D01*
G01*
X319216000Y-124821000D01*
G75*
G02*
X319066000Y-124971000I-150000J0D01*
G01*
X317616000Y-124971000D01*
G75*
G02*
X317466000Y-124821000I0J150000D01*
G01*
G37*
G36*
G01*
X317466000Y-123551000D02*
X317466000Y-123251000D01*
G75*
G02*
X317616000Y-123101000I150000J0D01*
G01*
X319066000Y-123101000D01*
G75*
G02*
X319216000Y-123251000I0J-150000D01*
G01*
X319216000Y-123551000D01*
G75*
G02*
X319066000Y-123701000I-150000J0D01*
G01*
X317616000Y-123701000D01*
G75*
G02*
X317466000Y-123551000I0J150000D01*
G01*
G37*
G36*
G01*
X317466000Y-122281000D02*
X317466000Y-121981000D01*
G75*
G02*
X317616000Y-121831000I150000J0D01*
G01*
X319066000Y-121831000D01*
G75*
G02*
X319216000Y-121981000I0J-150000D01*
G01*
X319216000Y-122281000D01*
G75*
G02*
X319066000Y-122431000I-150000J0D01*
G01*
X317616000Y-122431000D01*
G75*
G02*
X317466000Y-122281000I0J150000D01*
G01*
G37*
G36*
G01*
X317466000Y-121011000D02*
X317466000Y-120711000D01*
G75*
G02*
X317616000Y-120561000I150000J0D01*
G01*
X319066000Y-120561000D01*
G75*
G02*
X319216000Y-120711000I0J-150000D01*
G01*
X319216000Y-121011000D01*
G75*
G02*
X319066000Y-121161000I-150000J0D01*
G01*
X317616000Y-121161000D01*
G75*
G02*
X317466000Y-121011000I0J150000D01*
G01*
G37*
G36*
G01*
X317466000Y-119741000D02*
X317466000Y-119441000D01*
G75*
G02*
X317616000Y-119291000I150000J0D01*
G01*
X319066000Y-119291000D01*
G75*
G02*
X319216000Y-119441000I0J-150000D01*
G01*
X319216000Y-119741000D01*
G75*
G02*
X319066000Y-119891000I-150000J0D01*
G01*
X317616000Y-119891000D01*
G75*
G02*
X317466000Y-119741000I0J150000D01*
G01*
G37*
G36*
G01*
X317466000Y-118471000D02*
X317466000Y-118171000D01*
G75*
G02*
X317616000Y-118021000I150000J0D01*
G01*
X319066000Y-118021000D01*
G75*
G02*
X319216000Y-118171000I0J-150000D01*
G01*
X319216000Y-118471000D01*
G75*
G02*
X319066000Y-118621000I-150000J0D01*
G01*
X317616000Y-118621000D01*
G75*
G02*
X317466000Y-118471000I0J150000D01*
G01*
G37*
G36*
G01*
X317466000Y-117201000D02*
X317466000Y-116901000D01*
G75*
G02*
X317616000Y-116751000I150000J0D01*
G01*
X319066000Y-116751000D01*
G75*
G02*
X319216000Y-116901000I0J-150000D01*
G01*
X319216000Y-117201000D01*
G75*
G02*
X319066000Y-117351000I-150000J0D01*
G01*
X317616000Y-117351000D01*
G75*
G02*
X317466000Y-117201000I0J150000D01*
G01*
G37*
D24*
X319677000Y-147683000D03*
X315177000Y-147683000D03*
X315177000Y-155633000D03*
X319677000Y-155633000D03*
G36*
G01*
X344227999Y-153612000D02*
X345128001Y-153612000D01*
G75*
G02*
X345378000Y-153861999I0J-249999D01*
G01*
X345378000Y-154512001D01*
G75*
G02*
X345128001Y-154762000I-249999J0D01*
G01*
X344227999Y-154762000D01*
G75*
G02*
X343978000Y-154512001I0J249999D01*
G01*
X343978000Y-153861999D01*
G75*
G02*
X344227999Y-153612000I249999J0D01*
G01*
G37*
G36*
G01*
X344227999Y-151562000D02*
X345128001Y-151562000D01*
G75*
G02*
X345378000Y-151811999I0J-249999D01*
G01*
X345378000Y-152462001D01*
G75*
G02*
X345128001Y-152712000I-249999J0D01*
G01*
X344227999Y-152712000D01*
G75*
G02*
X343978000Y-152462001I0J249999D01*
G01*
X343978000Y-151811999D01*
G75*
G02*
X344227999Y-151562000I249999J0D01*
G01*
G37*
G36*
G01*
X329522002Y-117718000D02*
X327321998Y-117718000D01*
G75*
G02*
X327072000Y-117468002I0J249998D01*
G01*
X327072000Y-116642998D01*
G75*
G02*
X327321998Y-116393000I249998J0D01*
G01*
X329522002Y-116393000D01*
G75*
G02*
X329772000Y-116642998I0J-249998D01*
G01*
X329772000Y-117468002D01*
G75*
G02*
X329522002Y-117718000I-249998J0D01*
G01*
G37*
G36*
G01*
X329522002Y-120843000D02*
X327321998Y-120843000D01*
G75*
G02*
X327072000Y-120593002I0J249998D01*
G01*
X327072000Y-119767998D01*
G75*
G02*
X327321998Y-119518000I249998J0D01*
G01*
X329522002Y-119518000D01*
G75*
G02*
X329772000Y-119767998I0J-249998D01*
G01*
X329772000Y-120593002D01*
G75*
G02*
X329522002Y-120843000I-249998J0D01*
G01*
G37*
G36*
G01*
X327321998Y-124598000D02*
X329522002Y-124598000D01*
G75*
G02*
X329772000Y-124847998I0J-249998D01*
G01*
X329772000Y-125673002D01*
G75*
G02*
X329522002Y-125923000I-249998J0D01*
G01*
X327321998Y-125923000D01*
G75*
G02*
X327072000Y-125673002I0J249998D01*
G01*
X327072000Y-124847998D01*
G75*
G02*
X327321998Y-124598000I249998J0D01*
G01*
G37*
G36*
G01*
X327321998Y-121473000D02*
X329522002Y-121473000D01*
G75*
G02*
X329772000Y-121722998I0J-249998D01*
G01*
X329772000Y-122548002D01*
G75*
G02*
X329522002Y-122798000I-249998J0D01*
G01*
X327321998Y-122798000D01*
G75*
G02*
X327072000Y-122548002I0J249998D01*
G01*
X327072000Y-121722998D01*
G75*
G02*
X327321998Y-121473000I249998J0D01*
G01*
G37*
G36*
G01*
X342368000Y-117117000D02*
X342368000Y-116817000D01*
G75*
G02*
X342518000Y-116667000I150000J0D01*
G01*
X344168000Y-116667000D01*
G75*
G02*
X344318000Y-116817000I0J-150000D01*
G01*
X344318000Y-117117000D01*
G75*
G02*
X344168000Y-117267000I-150000J0D01*
G01*
X342518000Y-117267000D01*
G75*
G02*
X342368000Y-117117000I0J150000D01*
G01*
G37*
G36*
G01*
X342368000Y-118387000D02*
X342368000Y-118087000D01*
G75*
G02*
X342518000Y-117937000I150000J0D01*
G01*
X344168000Y-117937000D01*
G75*
G02*
X344318000Y-118087000I0J-150000D01*
G01*
X344318000Y-118387000D01*
G75*
G02*
X344168000Y-118537000I-150000J0D01*
G01*
X342518000Y-118537000D01*
G75*
G02*
X342368000Y-118387000I0J150000D01*
G01*
G37*
G36*
G01*
X342368000Y-119657000D02*
X342368000Y-119357000D01*
G75*
G02*
X342518000Y-119207000I150000J0D01*
G01*
X344168000Y-119207000D01*
G75*
G02*
X344318000Y-119357000I0J-150000D01*
G01*
X344318000Y-119657000D01*
G75*
G02*
X344168000Y-119807000I-150000J0D01*
G01*
X342518000Y-119807000D01*
G75*
G02*
X342368000Y-119657000I0J150000D01*
G01*
G37*
G36*
G01*
X342368000Y-120927000D02*
X342368000Y-120627000D01*
G75*
G02*
X342518000Y-120477000I150000J0D01*
G01*
X344168000Y-120477000D01*
G75*
G02*
X344318000Y-120627000I0J-150000D01*
G01*
X344318000Y-120927000D01*
G75*
G02*
X344168000Y-121077000I-150000J0D01*
G01*
X342518000Y-121077000D01*
G75*
G02*
X342368000Y-120927000I0J150000D01*
G01*
G37*
G36*
G01*
X337418000Y-120927000D02*
X337418000Y-120627000D01*
G75*
G02*
X337568000Y-120477000I150000J0D01*
G01*
X339218000Y-120477000D01*
G75*
G02*
X339368000Y-120627000I0J-150000D01*
G01*
X339368000Y-120927000D01*
G75*
G02*
X339218000Y-121077000I-150000J0D01*
G01*
X337568000Y-121077000D01*
G75*
G02*
X337418000Y-120927000I0J150000D01*
G01*
G37*
G36*
G01*
X337418000Y-119657000D02*
X337418000Y-119357000D01*
G75*
G02*
X337568000Y-119207000I150000J0D01*
G01*
X339218000Y-119207000D01*
G75*
G02*
X339368000Y-119357000I0J-150000D01*
G01*
X339368000Y-119657000D01*
G75*
G02*
X339218000Y-119807000I-150000J0D01*
G01*
X337568000Y-119807000D01*
G75*
G02*
X337418000Y-119657000I0J150000D01*
G01*
G37*
G36*
G01*
X337418000Y-118387000D02*
X337418000Y-118087000D01*
G75*
G02*
X337568000Y-117937000I150000J0D01*
G01*
X339218000Y-117937000D01*
G75*
G02*
X339368000Y-118087000I0J-150000D01*
G01*
X339368000Y-118387000D01*
G75*
G02*
X339218000Y-118537000I-150000J0D01*
G01*
X337568000Y-118537000D01*
G75*
G02*
X337418000Y-118387000I0J150000D01*
G01*
G37*
G36*
G01*
X337418000Y-117117000D02*
X337418000Y-116817000D01*
G75*
G02*
X337568000Y-116667000I150000J0D01*
G01*
X339218000Y-116667000D01*
G75*
G02*
X339368000Y-116817000I0J-150000D01*
G01*
X339368000Y-117117000D01*
G75*
G02*
X339218000Y-117267000I-150000J0D01*
G01*
X337568000Y-117267000D01*
G75*
G02*
X337418000Y-117117000I0J150000D01*
G01*
G37*
G36*
G01*
X321456000Y-132276001D02*
X321456000Y-131375999D01*
G75*
G02*
X321705999Y-131126000I249999J0D01*
G01*
X322406001Y-131126000D01*
G75*
G02*
X322656000Y-131375999I0J-249999D01*
G01*
X322656000Y-132276001D01*
G75*
G02*
X322406001Y-132526000I-249999J0D01*
G01*
X321705999Y-132526000D01*
G75*
G02*
X321456000Y-132276001I0J249999D01*
G01*
G37*
G36*
G01*
X319456000Y-132276001D02*
X319456000Y-131375999D01*
G75*
G02*
X319705999Y-131126000I249999J0D01*
G01*
X320406001Y-131126000D01*
G75*
G02*
X320656000Y-131375999I0J-249999D01*
G01*
X320656000Y-132276001D01*
G75*
G02*
X320406001Y-132526000I-249999J0D01*
G01*
X319705999Y-132526000D01*
G75*
G02*
X319456000Y-132276001I0J249999D01*
G01*
G37*
G36*
G01*
X321456000Y-130244001D02*
X321456000Y-129343999D01*
G75*
G02*
X321705999Y-129094000I249999J0D01*
G01*
X322406001Y-129094000D01*
G75*
G02*
X322656000Y-129343999I0J-249999D01*
G01*
X322656000Y-130244001D01*
G75*
G02*
X322406001Y-130494000I-249999J0D01*
G01*
X321705999Y-130494000D01*
G75*
G02*
X321456000Y-130244001I0J249999D01*
G01*
G37*
G36*
G01*
X319456000Y-130244001D02*
X319456000Y-129343999D01*
G75*
G02*
X319705999Y-129094000I249999J0D01*
G01*
X320406001Y-129094000D01*
G75*
G02*
X320656000Y-129343999I0J-249999D01*
G01*
X320656000Y-130244001D01*
G75*
G02*
X320406001Y-130494000I-249999J0D01*
G01*
X319705999Y-130494000D01*
G75*
G02*
X319456000Y-130244001I0J249999D01*
G01*
G37*
G36*
G01*
X321456000Y-128212001D02*
X321456000Y-127311999D01*
G75*
G02*
X321705999Y-127062000I249999J0D01*
G01*
X322406001Y-127062000D01*
G75*
G02*
X322656000Y-127311999I0J-249999D01*
G01*
X322656000Y-128212001D01*
G75*
G02*
X322406001Y-128462000I-249999J0D01*
G01*
X321705999Y-128462000D01*
G75*
G02*
X321456000Y-128212001I0J249999D01*
G01*
G37*
G36*
G01*
X319456000Y-128212001D02*
X319456000Y-127311999D01*
G75*
G02*
X319705999Y-127062000I249999J0D01*
G01*
X320406001Y-127062000D01*
G75*
G02*
X320656000Y-127311999I0J-249999D01*
G01*
X320656000Y-128212001D01*
G75*
G02*
X320406001Y-128462000I-249999J0D01*
G01*
X319705999Y-128462000D01*
G75*
G02*
X319456000Y-128212001I0J249999D01*
G01*
G37*
D10*
X269240000Y-147508000D03*
X269240000Y-145508000D03*
X269240000Y-143508000D03*
X269240000Y-141508000D03*
X269240000Y-139508000D03*
X269240000Y-137508000D03*
X269240000Y-135508000D03*
X269240000Y-133508000D03*
X269240000Y-131508000D03*
X269240000Y-129508000D03*
G36*
G01*
X268614999Y-126908000D02*
X269865001Y-126908000D01*
G75*
G02*
X270115000Y-127157999I0J-249999D01*
G01*
X270115000Y-127858001D01*
G75*
G02*
X269865001Y-128108000I-249999J0D01*
G01*
X268614999Y-128108000D01*
G75*
G02*
X268365000Y-127858001I0J249999D01*
G01*
X268365000Y-127157999D01*
G75*
G02*
X268614999Y-126908000I249999J0D01*
G01*
G37*
G36*
G01*
X320352000Y-114841000D02*
X320352000Y-115791000D01*
G75*
G02*
X320102000Y-116041000I-250000J0D01*
G01*
X319602000Y-116041000D01*
G75*
G02*
X319352000Y-115791000I0J250000D01*
G01*
X319352000Y-114841000D01*
G75*
G02*
X319602000Y-114591000I250000J0D01*
G01*
X320102000Y-114591000D01*
G75*
G02*
X320352000Y-114841000I0J-250000D01*
G01*
G37*
G36*
G01*
X322252000Y-114841000D02*
X322252000Y-115791000D01*
G75*
G02*
X322002000Y-116041000I-250000J0D01*
G01*
X321502000Y-116041000D01*
G75*
G02*
X321252000Y-115791000I0J250000D01*
G01*
X321252000Y-114841000D01*
G75*
G02*
X321502000Y-114591000I250000J0D01*
G01*
X322002000Y-114591000D01*
G75*
G02*
X322252000Y-114841000I0J-250000D01*
G01*
G37*
G36*
G01*
X355200000Y-116135999D02*
X355200000Y-117036001D01*
G75*
G02*
X354950001Y-117286000I-249999J0D01*
G01*
X354249999Y-117286000D01*
G75*
G02*
X354000000Y-117036001I0J249999D01*
G01*
X354000000Y-116135999D01*
G75*
G02*
X354249999Y-115886000I249999J0D01*
G01*
X354950001Y-115886000D01*
G75*
G02*
X355200000Y-116135999I0J-249999D01*
G01*
G37*
G36*
G01*
X357200000Y-116135999D02*
X357200000Y-117036001D01*
G75*
G02*
X356950001Y-117286000I-249999J0D01*
G01*
X356249999Y-117286000D01*
G75*
G02*
X356000000Y-117036001I0J249999D01*
G01*
X356000000Y-116135999D01*
G75*
G02*
X356249999Y-115886000I249999J0D01*
G01*
X356950001Y-115886000D01*
G75*
G02*
X357200000Y-116135999I0J-249999D01*
G01*
G37*
G36*
G01*
X374551001Y-116522000D02*
X371700999Y-116522000D01*
G75*
G02*
X371451000Y-116272001I0J249999D01*
G01*
X371451000Y-115371999D01*
G75*
G02*
X371700999Y-115122000I249999J0D01*
G01*
X374551001Y-115122000D01*
G75*
G02*
X374801000Y-115371999I0J-249999D01*
G01*
X374801000Y-116272001D01*
G75*
G02*
X374551001Y-116522000I-249999J0D01*
G01*
G37*
G36*
G01*
X374551001Y-122622000D02*
X371700999Y-122622000D01*
G75*
G02*
X371451000Y-122372001I0J249999D01*
G01*
X371451000Y-121471999D01*
G75*
G02*
X371700999Y-121222000I249999J0D01*
G01*
X374551001Y-121222000D01*
G75*
G02*
X374801000Y-121471999I0J-249999D01*
G01*
X374801000Y-122372001D01*
G75*
G02*
X374551001Y-122622000I-249999J0D01*
G01*
G37*
G36*
G01*
X362867001Y-116522000D02*
X360016999Y-116522000D01*
G75*
G02*
X359767000Y-116272001I0J249999D01*
G01*
X359767000Y-115371999D01*
G75*
G02*
X360016999Y-115122000I249999J0D01*
G01*
X362867001Y-115122000D01*
G75*
G02*
X363117000Y-115371999I0J-249999D01*
G01*
X363117000Y-116272001D01*
G75*
G02*
X362867001Y-116522000I-249999J0D01*
G01*
G37*
G36*
G01*
X362867001Y-122622000D02*
X360016999Y-122622000D01*
G75*
G02*
X359767000Y-122372001I0J249999D01*
G01*
X359767000Y-121471999D01*
G75*
G02*
X360016999Y-121222000I249999J0D01*
G01*
X362867001Y-121222000D01*
G75*
G02*
X363117000Y-121471999I0J-249999D01*
G01*
X363117000Y-122372001D01*
G75*
G02*
X362867001Y-122622000I-249999J0D01*
G01*
G37*
G36*
G01*
X346072000Y-116897999D02*
X346072000Y-117798001D01*
G75*
G02*
X345822001Y-118048000I-249999J0D01*
G01*
X345121999Y-118048000D01*
G75*
G02*
X344872000Y-117798001I0J249999D01*
G01*
X344872000Y-116897999D01*
G75*
G02*
X345121999Y-116648000I249999J0D01*
G01*
X345822001Y-116648000D01*
G75*
G02*
X346072000Y-116897999I0J-249999D01*
G01*
G37*
G36*
G01*
X348072000Y-116897999D02*
X348072000Y-117798001D01*
G75*
G02*
X347822001Y-118048000I-249999J0D01*
G01*
X347121999Y-118048000D01*
G75*
G02*
X346872000Y-117798001I0J249999D01*
G01*
X346872000Y-116897999D01*
G75*
G02*
X347121999Y-116648000I249999J0D01*
G01*
X347822001Y-116648000D01*
G75*
G02*
X348072000Y-116897999I0J-249999D01*
G01*
G37*
G36*
G01*
X341268000Y-115512001D02*
X341268000Y-114611999D01*
G75*
G02*
X341517999Y-114362000I249999J0D01*
G01*
X342218001Y-114362000D01*
G75*
G02*
X342468000Y-114611999I0J-249999D01*
G01*
X342468000Y-115512001D01*
G75*
G02*
X342218001Y-115762000I-249999J0D01*
G01*
X341517999Y-115762000D01*
G75*
G02*
X341268000Y-115512001I0J249999D01*
G01*
G37*
G36*
G01*
X339268000Y-115512001D02*
X339268000Y-114611999D01*
G75*
G02*
X339517999Y-114362000I249999J0D01*
G01*
X340218001Y-114362000D01*
G75*
G02*
X340468000Y-114611999I0J-249999D01*
G01*
X340468000Y-115512001D01*
G75*
G02*
X340218001Y-115762000I-249999J0D01*
G01*
X339517999Y-115762000D01*
G75*
G02*
X339268000Y-115512001I0J249999D01*
G01*
G37*
G36*
G01*
X341252000Y-122878001D02*
X341252000Y-121977999D01*
G75*
G02*
X341501999Y-121728000I249999J0D01*
G01*
X342202001Y-121728000D01*
G75*
G02*
X342452000Y-121977999I0J-249999D01*
G01*
X342452000Y-122878001D01*
G75*
G02*
X342202001Y-123128000I-249999J0D01*
G01*
X341501999Y-123128000D01*
G75*
G02*
X341252000Y-122878001I0J249999D01*
G01*
G37*
G36*
G01*
X339252000Y-122878001D02*
X339252000Y-121977999D01*
G75*
G02*
X339501999Y-121728000I249999J0D01*
G01*
X340202001Y-121728000D01*
G75*
G02*
X340452000Y-121977999I0J-249999D01*
G01*
X340452000Y-122878001D01*
G75*
G02*
X340202001Y-123128000I-249999J0D01*
G01*
X339501999Y-123128000D01*
G75*
G02*
X339252000Y-122878001I0J249999D01*
G01*
G37*
G36*
G01*
X340468000Y-124009999D02*
X340468000Y-124910001D01*
G75*
G02*
X340218001Y-125160000I-249999J0D01*
G01*
X339517999Y-125160000D01*
G75*
G02*
X339268000Y-124910001I0J249999D01*
G01*
X339268000Y-124009999D01*
G75*
G02*
X339517999Y-123760000I249999J0D01*
G01*
X340218001Y-123760000D01*
G75*
G02*
X340468000Y-124009999I0J-249999D01*
G01*
G37*
G36*
G01*
X342468000Y-124009999D02*
X342468000Y-124910001D01*
G75*
G02*
X342218001Y-125160000I-249999J0D01*
G01*
X341517999Y-125160000D01*
G75*
G02*
X341268000Y-124910001I0J249999D01*
G01*
X341268000Y-124009999D01*
G75*
G02*
X341517999Y-123760000I249999J0D01*
G01*
X342218001Y-123760000D01*
G75*
G02*
X342468000Y-124009999I0J-249999D01*
G01*
G37*
G36*
G01*
X346072000Y-118675999D02*
X346072000Y-119576001D01*
G75*
G02*
X345822001Y-119826000I-249999J0D01*
G01*
X345121999Y-119826000D01*
G75*
G02*
X344872000Y-119576001I0J249999D01*
G01*
X344872000Y-118675999D01*
G75*
G02*
X345121999Y-118426000I249999J0D01*
G01*
X345822001Y-118426000D01*
G75*
G02*
X346072000Y-118675999I0J-249999D01*
G01*
G37*
G36*
G01*
X348072000Y-118675999D02*
X348072000Y-119576001D01*
G75*
G02*
X347822001Y-119826000I-249999J0D01*
G01*
X347121999Y-119826000D01*
G75*
G02*
X346872000Y-119576001I0J249999D01*
G01*
X346872000Y-118675999D01*
G75*
G02*
X347121999Y-118426000I249999J0D01*
G01*
X347822001Y-118426000D01*
G75*
G02*
X348072000Y-118675999I0J-249999D01*
G01*
G37*
G36*
G01*
X346056000Y-120453999D02*
X346056000Y-121354001D01*
G75*
G02*
X345806001Y-121604000I-249999J0D01*
G01*
X345105999Y-121604000D01*
G75*
G02*
X344856000Y-121354001I0J249999D01*
G01*
X344856000Y-120453999D01*
G75*
G02*
X345105999Y-120204000I249999J0D01*
G01*
X345806001Y-120204000D01*
G75*
G02*
X346056000Y-120453999I0J-249999D01*
G01*
G37*
G36*
G01*
X348056000Y-120453999D02*
X348056000Y-121354001D01*
G75*
G02*
X347806001Y-121604000I-249999J0D01*
G01*
X347105999Y-121604000D01*
G75*
G02*
X346856000Y-121354001I0J249999D01*
G01*
X346856000Y-120453999D01*
G75*
G02*
X347105999Y-120204000I249999J0D01*
G01*
X347806001Y-120204000D01*
G75*
G02*
X348056000Y-120453999I0J-249999D01*
G01*
G37*
D18*
X345456000Y-135636000D03*
X347456000Y-134686000D03*
X347456000Y-136586000D03*
D11*
X372110000Y-164846000D03*
D12*
X372110000Y-164846000D03*
D11*
X367284000Y-113538000D03*
D12*
X367284000Y-113538000D03*
D25*
X356300000Y-114808000D03*
X354900000Y-114808000D03*
G36*
G01*
X346513999Y-153612000D02*
X347414001Y-153612000D01*
G75*
G02*
X347664000Y-153861999I0J-249999D01*
G01*
X347664000Y-154512001D01*
G75*
G02*
X347414001Y-154762000I-249999J0D01*
G01*
X346513999Y-154762000D01*
G75*
G02*
X346264000Y-154512001I0J249999D01*
G01*
X346264000Y-153861999D01*
G75*
G02*
X346513999Y-153612000I249999J0D01*
G01*
G37*
G36*
G01*
X346513999Y-151562000D02*
X347414001Y-151562000D01*
G75*
G02*
X347664000Y-151811999I0J-249999D01*
G01*
X347664000Y-152462001D01*
G75*
G02*
X347414001Y-152712000I-249999J0D01*
G01*
X346513999Y-152712000D01*
G75*
G02*
X346264000Y-152462001I0J249999D01*
G01*
X346264000Y-151811999D01*
G75*
G02*
X346513999Y-151562000I249999J0D01*
G01*
G37*
G36*
G01*
X340418000Y-125763000D02*
X340418000Y-126713000D01*
G75*
G02*
X340168000Y-126963000I-250000J0D01*
G01*
X339668000Y-126963000D01*
G75*
G02*
X339418000Y-126713000I0J250000D01*
G01*
X339418000Y-125763000D01*
G75*
G02*
X339668000Y-125513000I250000J0D01*
G01*
X340168000Y-125513000D01*
G75*
G02*
X340418000Y-125763000I0J-250000D01*
G01*
G37*
G36*
G01*
X342318000Y-125763000D02*
X342318000Y-126713000D01*
G75*
G02*
X342068000Y-126963000I-250000J0D01*
G01*
X341568000Y-126963000D01*
G75*
G02*
X341318000Y-126713000I0J250000D01*
G01*
X341318000Y-125763000D01*
G75*
G02*
X341568000Y-125513000I250000J0D01*
G01*
X342068000Y-125513000D01*
G75*
G02*
X342318000Y-125763000I0J-250000D01*
G01*
G37*
D26*
X384429000Y-149479000D02*
X350647000Y-149479000D01*
X350647000Y-129159000D01*
X384429000Y-129159000D01*
X384429000Y-149479000D01*
D22*
G36*
X384429000Y-149479000D02*
G01*
X350647000Y-149479000D01*
X350647000Y-129159000D01*
X384429000Y-129159000D01*
X384429000Y-149479000D01*
G37*
D26*
X371729000Y-161290000D02*
X371731440Y-161314776D01*
X371738667Y-161338601D01*
X371750403Y-161360557D01*
X371766197Y-161379803D01*
X371785443Y-161395597D01*
X371807399Y-161407333D01*
X371831224Y-161414560D01*
X371856000Y-161417000D01*
X377952000Y-161417000D01*
X377976776Y-161414560D01*
X378000601Y-161407333D01*
X378022557Y-161395597D01*
X378041803Y-161379803D01*
X378057597Y-161360557D01*
X378069333Y-161338601D01*
X378076560Y-161314776D01*
X378079000Y-161290000D01*
X378079000Y-160834606D01*
X380290606Y-158623000D01*
X382905000Y-158623000D01*
X382905000Y-162179000D01*
X380238000Y-162179000D01*
X380213224Y-162181440D01*
X380189399Y-162188667D01*
X380167443Y-162200403D01*
X380148197Y-162216197D01*
X378370197Y-163994197D01*
X378354403Y-164013443D01*
X378342667Y-164035399D01*
X378335440Y-164059224D01*
X378333000Y-164084000D01*
X378333000Y-168275000D01*
X369697000Y-168275000D01*
X369697000Y-161798000D01*
X369694560Y-161773224D01*
X369687333Y-161749399D01*
X369675597Y-161727443D01*
X369659803Y-161708197D01*
X368427000Y-160475394D01*
X368427000Y-158242000D01*
X368424560Y-158217224D01*
X368417333Y-158193399D01*
X368405597Y-158171443D01*
X368389803Y-158152197D01*
X368370557Y-158136403D01*
X368348601Y-158124667D01*
X368324776Y-158117440D01*
X368300000Y-158115000D01*
X362712000Y-158115000D01*
X362687224Y-158117440D01*
X362663399Y-158124667D01*
X362641443Y-158136403D01*
X362622197Y-158152197D01*
X359865394Y-160909000D01*
X356997000Y-160909000D01*
X356997000Y-155067000D01*
X371729000Y-155067000D01*
X371729000Y-161290000D01*
D22*
G36*
X371729000Y-161290000D02*
G01*
X371731440Y-161314776D01*
X371738667Y-161338601D01*
X371750403Y-161360557D01*
X371766197Y-161379803D01*
X371785443Y-161395597D01*
X371807399Y-161407333D01*
X371831224Y-161414560D01*
X371856000Y-161417000D01*
X377952000Y-161417000D01*
X377976776Y-161414560D01*
X378000601Y-161407333D01*
X378022557Y-161395597D01*
X378041803Y-161379803D01*
X378057597Y-161360557D01*
X378069333Y-161338601D01*
X378076560Y-161314776D01*
X378079000Y-161290000D01*
X378079000Y-160834606D01*
X380290606Y-158623000D01*
X382905000Y-158623000D01*
X382905000Y-162179000D01*
X380238000Y-162179000D01*
X380213224Y-162181440D01*
X380189399Y-162188667D01*
X380167443Y-162200403D01*
X380148197Y-162216197D01*
X378370197Y-163994197D01*
X378354403Y-164013443D01*
X378342667Y-164035399D01*
X378335440Y-164059224D01*
X378333000Y-164084000D01*
X378333000Y-168275000D01*
X369697000Y-168275000D01*
X369697000Y-161798000D01*
X369694560Y-161773224D01*
X369687333Y-161749399D01*
X369675597Y-161727443D01*
X369659803Y-161708197D01*
X368427000Y-160475394D01*
X368427000Y-158242000D01*
X368424560Y-158217224D01*
X368417333Y-158193399D01*
X368405597Y-158171443D01*
X368389803Y-158152197D01*
X368370557Y-158136403D01*
X368348601Y-158124667D01*
X368324776Y-158117440D01*
X368300000Y-158115000D01*
X362712000Y-158115000D01*
X362687224Y-158117440D01*
X362663399Y-158124667D01*
X362641443Y-158136403D01*
X362622197Y-158152197D01*
X359865394Y-160909000D01*
X356997000Y-160909000D01*
X356997000Y-155067000D01*
X371729000Y-155067000D01*
X371729000Y-161290000D01*
G37*
D26*
X354457000Y-120650000D02*
X354459440Y-120674776D01*
X354466667Y-120698601D01*
X354478403Y-120720557D01*
X354494197Y-120739803D01*
X354513443Y-120755597D01*
X354535399Y-120767333D01*
X354559224Y-120774560D01*
X354584000Y-120777000D01*
X363474000Y-120777000D01*
X363498776Y-120774560D01*
X363522601Y-120767333D01*
X363544557Y-120755597D01*
X363563803Y-120739803D01*
X363579597Y-120720557D01*
X363591333Y-120698601D01*
X363598560Y-120674776D01*
X363601000Y-120650000D01*
X363601000Y-117729000D01*
X366141000Y-117729000D01*
X366141000Y-120650000D01*
X366143440Y-120674776D01*
X366150667Y-120698601D01*
X366162403Y-120720557D01*
X366178197Y-120739803D01*
X366197443Y-120755597D01*
X366219399Y-120767333D01*
X366243224Y-120774560D01*
X366268000Y-120777000D01*
X375158000Y-120777000D01*
X375182776Y-120774560D01*
X375206601Y-120767333D01*
X375228557Y-120755597D01*
X375247803Y-120739803D01*
X375263597Y-120720557D01*
X375275333Y-120698601D01*
X375282560Y-120674776D01*
X375285000Y-120650000D01*
X375285000Y-117729000D01*
X377825000Y-117729000D01*
X377825000Y-123317000D01*
X351663000Y-123317000D01*
X351663000Y-117729000D01*
X354457000Y-117729000D01*
X354457000Y-120650000D01*
D22*
G36*
X354457000Y-120650000D02*
G01*
X354459440Y-120674776D01*
X354466667Y-120698601D01*
X354478403Y-120720557D01*
X354494197Y-120739803D01*
X354513443Y-120755597D01*
X354535399Y-120767333D01*
X354559224Y-120774560D01*
X354584000Y-120777000D01*
X363474000Y-120777000D01*
X363498776Y-120774560D01*
X363522601Y-120767333D01*
X363544557Y-120755597D01*
X363563803Y-120739803D01*
X363579597Y-120720557D01*
X363591333Y-120698601D01*
X363598560Y-120674776D01*
X363601000Y-120650000D01*
X363601000Y-117729000D01*
X366141000Y-117729000D01*
X366141000Y-120650000D01*
X366143440Y-120674776D01*
X366150667Y-120698601D01*
X366162403Y-120720557D01*
X366178197Y-120739803D01*
X366197443Y-120755597D01*
X366219399Y-120767333D01*
X366243224Y-120774560D01*
X366268000Y-120777000D01*
X375158000Y-120777000D01*
X375182776Y-120774560D01*
X375206601Y-120767333D01*
X375228557Y-120755597D01*
X375247803Y-120739803D01*
X375263597Y-120720557D01*
X375275333Y-120698601D01*
X375282560Y-120674776D01*
X375285000Y-120650000D01*
X375285000Y-117729000D01*
X377825000Y-117729000D01*
X377825000Y-123317000D01*
X351663000Y-123317000D01*
X351663000Y-117729000D01*
X354457000Y-117729000D01*
X354457000Y-120650000D01*
G37*
D26*
X370459000Y-112320606D02*
X370459000Y-114554000D01*
X370461440Y-114578776D01*
X370468667Y-114602601D01*
X370480403Y-114624557D01*
X370496197Y-114643803D01*
X371004197Y-115151803D01*
X371023443Y-115167597D01*
X371045399Y-115179333D01*
X371069224Y-115186560D01*
X371094000Y-115189000D01*
X374777000Y-115189000D01*
X374777000Y-116459000D01*
X359791000Y-116459000D01*
X359791000Y-115189000D01*
X363220000Y-115189000D01*
X363244776Y-115186560D01*
X363268601Y-115179333D01*
X363290447Y-115167670D01*
X364052447Y-114659670D01*
X364071709Y-114643896D01*
X364087523Y-114624668D01*
X364099282Y-114602724D01*
X364106534Y-114578907D01*
X364109000Y-114554000D01*
X364109000Y-112320606D01*
X366066606Y-110363000D01*
X368501394Y-110363000D01*
X370459000Y-112320606D01*
D22*
G36*
X370459000Y-112320606D02*
G01*
X370459000Y-114554000D01*
X370461440Y-114578776D01*
X370468667Y-114602601D01*
X370480403Y-114624557D01*
X370496197Y-114643803D01*
X371004197Y-115151803D01*
X371023443Y-115167597D01*
X371045399Y-115179333D01*
X371069224Y-115186560D01*
X371094000Y-115189000D01*
X374777000Y-115189000D01*
X374777000Y-116459000D01*
X359791000Y-116459000D01*
X359791000Y-115189000D01*
X363220000Y-115189000D01*
X363244776Y-115186560D01*
X363268601Y-115179333D01*
X363290447Y-115167670D01*
X364052447Y-114659670D01*
X364071709Y-114643896D01*
X364087523Y-114624668D01*
X364099282Y-114602724D01*
X364106534Y-114578907D01*
X364109000Y-114554000D01*
X364109000Y-112320606D01*
X366066606Y-110363000D01*
X368501394Y-110363000D01*
X370459000Y-112320606D01*
G37*
M02*
